<svg width="116" height="117" viewBox="0 0 116 117" fill="none" xmlns="http://www.w3.org/2000/svg">
<path d="M34.177 90.8324C31.4586 86.8333 20.165 70.1855 20.165 70.1855L27.9129 55.1965L24.4285 53.3772L20.432 61.1062L15.5643 70.4634L18.0594 74.1369L18.0638 74.1325L31.3142 93.6504C31.9314 94.5579 32.2246 95.5913 32.2246 96.6117C32.2246 98.3225 31.3973 100.003 29.8609 101.028C27.4095 102.665 24.074 102.022 22.4237 99.5861L5.91658 75.2702C5.76337 75.0487 4.7522 73.4118 4.63839 73.1686C3.85046 71.6792 3.7848 69.8469 4.62088 68.2403C4.62088 68.2403 16.2691 45.9044 16.3041 45.8175C16.7681 44.719 17.4291 43.7246 18.2389 42.8692C18.4359 42.6912 18.646 42.5305 18.8649 42.3829C20.8347 40.772 23.3561 39.8037 26.1051 39.8037L54.4136 39.7776C59.0405 39.7776 62.932 42.9257 64.0263 47.1766C65.1032 46.547 66.3332 46.0259 67.7296 45.709C67.7252 45.6916 67.7208 45.6742 67.7165 45.6612C66.0005 39.986 60.6908 35.8436 54.4136 35.8436H25.4528C21.5351 35.8436 17.9938 37.4589 15.468 40.0512C14.8421 40.6374 14.2861 41.3147 13.8309 42.0833C13.3362 42.8345 1.0358 66.6554 1.0358 66.6554C-0.684509 69.9598 -0.189865 73.8242 1.98569 76.5772C2.15203 76.7856 19.1888 101.753 19.1888 101.753C21.198 104.714 24.6474 106.147 27.9917 105.761V116.599C27.9917 116.716 28.0049 116.824 28.0267 116.937H31.8963C31.9139 116.829 31.9314 116.716 31.9314 116.599V104.354C31.9839 104.319 32.0408 104.284 32.0933 104.25C35.4158 102.031 36.834 98.049 35.9279 94.4016C35.9454 94.3842 34.9211 91.9266 34.177 90.8324Z" fill="white"/>
<path d="M44.3763 33.8897C53.5425 33.8897 60.984 26.5081 60.984 17.4156C60.9884 8.31888 53.5469 0.937256 44.3763 0.937256C35.2056 0.937256 27.7685 8.31888 27.7685 17.4113C27.7685 26.5037 35.21 33.8897 44.3763 33.8897ZM44.3763 4.86688C51.3538 4.86688 57.0225 10.4856 57.0225 17.4113C57.0225 24.3326 51.3582 29.9557 44.3763 29.9557C37.3987 29.9557 31.73 24.337 31.73 17.4113C31.73 10.4899 37.3987 4.86688 44.3763 4.86688Z" fill="white"/>
<path d="M81.5709 45.5049C89.6647 45.5049 96.2351 38.9873 96.2351 30.9587C96.2351 22.9301 89.6647 16.4126 81.5709 16.4126C73.4771 16.4126 66.9067 22.9301 66.9067 30.9587C66.9067 38.9873 73.4771 45.5049 81.5709 45.5049ZM81.5709 20.3466C87.476 20.3466 92.2692 25.1012 92.2692 30.9587C92.2692 36.8163 87.476 41.5709 81.5709 41.5709C75.6658 41.5709 70.8726 36.8163 70.8726 30.9587C70.8682 25.1012 75.6658 20.3466 81.5709 20.3466Z" fill="white"/>
<path d="M69.8439 91.7616H52.3431C44.8446 91.7616 38.7601 97.8015 38.7601 105.235C38.7601 105.235 38.7601 110.715 38.7601 114.263C38.7601 114.319 38.7601 114.375 38.7645 114.432V116.772C38.7645 116.829 38.7776 116.885 38.782 116.937H42.3276C42.332 116.881 42.3452 116.829 42.3452 116.772V108.896C42.3452 108.857 42.3452 108.817 42.3408 108.778V105.24C42.3408 99.7598 46.8232 95.3135 52.3475 95.3135H69.8483C75.3725 95.3135 79.8549 99.7598 79.8549 105.24V105.622C79.8549 105.656 79.8506 105.687 79.8506 105.722V116.772C79.8506 116.829 79.8637 116.885 79.8681 116.937H83.4137C83.4181 116.881 83.4313 116.829 83.4313 116.772V113.407C83.4313 113.355 83.4356 113.303 83.4356 113.246C83.4356 110.012 83.4356 105.235 83.4356 105.235C83.4313 97.8015 77.3423 91.7616 69.8439 91.7616Z" fill="white"/>
<path d="M61.0935 89.7208C68.6226 89.7208 74.7378 83.6548 74.7378 76.1864C74.7378 68.7179 68.6226 62.6519 61.0935 62.6519C53.5644 62.6519 47.4492 68.7179 47.4492 76.1864C47.4492 83.6548 53.5644 89.7208 61.0935 89.7208ZM61.0935 66.1995C66.6484 66.1995 71.1615 70.6762 71.1615 76.1864C71.1615 81.6965 66.6484 86.1733 61.0935 86.1733C55.5386 86.1733 51.0255 81.6965 51.0255 76.1864C51.0255 70.6762 55.5386 66.1995 61.0935 66.1995Z" fill="white"/>
<path d="M115.093 73.4508C115.093 73.4508 105.261 54.4844 105.231 54.428C104.968 53.8331 104.653 53.2686 104.298 52.7302C103.9 52.0615 103.418 51.4666 102.871 50.9586C100.687 48.7181 97.6271 47.3286 94.2434 47.3286C94.2434 47.3286 93.2191 47.3286 70.82 47.3286C62.4505 47.3286 59.4914 55.3224 59.4914 55.3224L58.397 57.7801C57.9549 58.7701 58.4058 59.9294 59.4038 60.368C60.4019 60.8065 61.5706 60.3593 62.0127 59.3693C62.5949 57.9711 63.1727 56.5513 63.8294 55.2964C65.217 52.8865 67.8303 51.2625 70.8244 51.2625L94.5848 51.2712C97.15 51.3754 99.4087 52.6781 100.805 54.6277C100.831 54.6624 100.858 54.6928 100.884 54.7276C101.041 54.9837 101.794 56.3472 101.895 56.5469L111.525 75.0618C112.186 76.334 112.129 77.7843 111.499 78.9566C111.411 79.1433 111.302 79.3301 111.184 79.5081L97.2638 100.012C96.7298 100.802 95.9637 101.349 95.1189 101.627C95.027 101.657 94.935 101.683 94.8431 101.709C94.4754 101.805 92.5537 102.326 90.6977 100.481C90.4964 100.281 90.3344 100.038 90.1943 99.7945C89.8047 99.1389 89.6078 98.3877 89.6209 97.6321L89.6296 97.6495C89.6428 96.8766 89.8704 96.0994 90.3388 95.409L102.937 76.8464L95.3027 62.196L91.8621 64.0935L98.3625 76.5077C98.3625 76.5077 88.3646 91.1841 88.1107 91.5619C87.4716 92.5171 86.3948 94.2236 86.4298 94.2453C84.7401 97.7928 85.8695 102.131 89.2488 104.388C89.6734 104.671 90.1155 104.91 90.5708 105.105L90.5839 116.599C90.5839 116.716 90.597 116.824 90.6189 116.937H94.4885C94.5061 116.829 94.5236 116.716 94.5236 116.599V105.73C96.883 105.522 99.1286 104.297 100.556 102.196C100.556 102.196 114.16 82.274 114.314 82.0786C116.174 79.6774 116.586 76.321 115.093 73.4508Z" fill="white"/>
<path d="M71.2709 103.946C70.2816 103.946 69.4805 104.74 69.4805 105.722V116.772C69.4805 116.829 69.4937 116.885 69.4981 116.937H73.0437C73.0481 116.881 73.0612 116.829 73.0612 116.772V105.722C73.0569 104.74 72.2558 103.946 71.2709 103.946Z" fill="white"/>
<path d="M50.9205 103.946C49.9312 103.946 49.1301 104.74 49.1301 105.722V116.772C49.1301 116.829 49.1432 116.885 49.1476 116.937H52.6933C52.6977 116.881 52.7108 116.829 52.7108 116.772V105.722C52.7108 104.74 51.9097 103.946 50.9205 103.946Z" fill="white"/>
</svg>
