<svg width="120" height="151" viewBox="0 0 120 151" fill="none" xmlns="http://www.w3.org/2000/svg">
<path d="M59.5469 150.469L57.8841 148.717C53.8611 144.47 46.1908 140.626 38.076 136.565C21.1107 128.065 0 117.488 0 96.3889V20.9779H2.29881C10.8274 20.9779 23.149 18.5538 35.2484 14.4852C46.6659 10.6483 55.455 6.10877 57.6542 2.90489L59.5469 0.156494L61.4396 2.90489C63.6388 6.10105 72.4279 10.6483 83.8453 14.4852C95.9447 18.5538 108.259 20.9779 116.795 20.9779H119.094V96.3889C119.094 117.488 97.983 128.065 81.0178 136.565C72.903 140.633 65.2403 144.47 61.2097 148.717L59.5469 150.469ZM4.59762 25.5637V96.3889C4.59762 114.616 23.4709 124.074 40.1219 132.419C47.6544 136.194 54.8266 139.784 59.5392 143.93C64.2594 139.784 71.4241 136.194 78.9642 132.419C95.6152 124.074 114.488 114.616 114.488 96.3889V25.5637C96.3662 24.8071 68.405 15.5583 59.5392 7.62194C50.6811 15.5506 22.7276 24.8071 4.59762 25.5637Z" fill="#DC0000"/>
<path d="M59.547 139.56C59.2635 139.56 58.9723 139.452 58.7501 139.236C58.7271 139.213 58.7041 139.19 58.6811 139.167L58.6121 139.097C58.1754 138.634 58.1907 137.901 58.6428 137.461C58.9799 137.136 59.455 137.059 59.8612 137.221C60.0527 137.268 60.2366 137.36 60.3899 137.515C60.8497 137.955 60.865 138.688 60.4205 139.151L60.3669 139.205C60.1447 139.437 59.8458 139.56 59.547 139.56ZM62.4895 136.974C62.137 136.974 61.7922 136.812 61.5623 136.503C61.1868 135.986 61.2941 135.268 61.7998 134.882L62.4818 135.816L61.8535 134.843C62.3669 134.457 63.0795 134.565 63.4626 135.075C63.8458 135.585 63.7385 136.31 63.2328 136.696C63.2328 136.696 63.1715 136.743 63.1638 136.743C62.9646 136.905 62.727 136.974 62.4895 136.974ZM56.5509 136.936C56.3133 136.936 56.0681 136.858 55.8612 136.704C55.3555 136.318 55.2176 135.577 55.6007 135.06C55.9762 134.55 56.6658 134.419 57.1792 134.797C57.1792 134.797 57.2405 134.843 57.2482 134.843C57.7539 135.229 57.8612 135.955 57.4781 136.465C57.2405 136.773 56.8957 136.936 56.5509 136.936ZM53.3019 134.735C53.095 134.735 52.8881 134.681 52.6965 134.558C52.1601 134.218 51.9609 133.485 52.2904 132.944C52.6276 132.404 53.3019 132.211 53.8383 132.55L53.8996 132.589C54.436 132.929 54.6045 133.639 54.2674 134.187C54.0605 134.542 53.685 134.735 53.3019 134.735ZM65.7691 134.735C65.3783 134.735 65.0028 134.55 64.7883 134.203C64.4511 133.662 64.5891 132.967 65.1254 132.628L65.1867 132.589C65.7231 132.249 66.4358 132.419 66.7729 132.96C67.1101 133.5 66.9415 134.218 66.4051 134.558C66.2059 134.681 65.9837 134.735 65.7691 134.735ZM69.1177 132.805C68.7039 132.805 68.3131 132.581 68.1062 132.195C67.8074 131.632 68.0219 130.929 68.5813 130.628L68.6196 130.605C69.1713 130.288 69.8763 130.481 70.1828 131.045C70.497 131.601 70.3054 132.311 69.7461 132.62L69.6541 132.674C69.4855 132.759 69.3016 132.805 69.1177 132.805ZM49.915 132.767C49.7234 132.767 49.5318 132.72 49.3479 132.612C48.7886 132.311 48.551 131.601 48.8498 131.037C49.1487 130.474 49.823 130.25 50.3824 130.551L50.4744 130.605C51.0261 130.921 51.2176 131.624 50.9111 132.18C50.7042 132.558 50.3134 132.767 49.915 132.767ZM72.5966 130.945C72.1828 130.945 71.7843 130.729 71.5774 130.335C71.2786 129.771 71.4778 129.076 72.0372 128.775L72.1445 128.721C72.7192 128.443 73.4012 128.683 73.677 129.262C73.9529 129.841 73.7153 130.528 73.1406 130.806C72.9721 130.906 72.7805 130.945 72.5966 130.945ZM46.4514 130.929C46.2829 130.929 46.1143 130.891 45.9533 130.813L45.8461 130.759C45.2867 130.458 45.0721 129.756 45.371 129.192C45.6698 128.629 46.3671 128.412 46.9265 128.714L46.3825 129.733L46.9495 128.729C47.5165 129.015 47.7541 129.709 47.4782 130.281C47.279 130.69 46.8729 130.929 46.4514 130.929ZM76.0678 129.184C75.6387 129.184 75.2325 128.945 75.0333 128.528C74.7575 127.949 74.995 127.262 75.5697 126.984L76.0678 128.026L75.6003 126.969C76.1674 126.675 76.857 126.892 77.1482 127.455C77.4394 128.019 77.2325 128.714 76.6808 129.015L76.5735 129.069C76.4049 129.146 76.2364 129.184 76.0678 129.184ZM42.9572 129.154C42.7733 129.154 42.5894 129.107 42.4132 129.015C41.8385 128.737 41.5856 128.034 41.8615 127.463C42.1373 126.884 42.8117 126.637 43.3864 126.915L43.4936 126.969C44.053 127.27 44.2676 127.972 43.9687 128.536C43.7695 128.93 43.371 129.154 42.9572 129.154ZM79.5773 127.424C79.1482 127.424 78.7421 127.185 78.5428 126.768C78.267 126.189 78.5045 125.502 79.0792 125.224L79.5773 126.266L79.1099 125.209C79.6693 124.915 80.3666 125.131 80.6577 125.695C80.9489 126.258 80.742 126.953 80.1903 127.254L80.083 127.308C79.9145 127.393 79.7459 127.424 79.5773 127.424ZM39.4554 127.401C39.2715 127.401 39.0876 127.355 38.9113 127.262C38.3366 126.984 38.0838 126.282 38.3596 125.71C38.6355 125.131 39.3098 124.884 39.8845 125.162L39.9918 125.216C40.5511 125.517 40.7657 126.22 40.4669 126.783C40.2676 127.177 39.8692 127.401 39.4554 127.401ZM83.0868 125.633C82.673 125.633 82.2746 125.417 82.0677 125.023C81.7688 124.46 81.9681 123.765 82.5274 123.464L82.6347 123.41C83.2094 123.132 83.8914 123.371 84.1673 123.95C84.4431 124.529 84.2056 125.216 83.6309 125.494C83.4623 125.595 83.2707 125.633 83.0868 125.633ZM35.9612 125.618C35.7926 125.618 35.624 125.579 35.4631 125.502L35.3558 125.448C34.7965 125.147 34.5819 124.444 34.8807 123.881C35.1796 123.317 35.8769 123.101 36.4363 123.402L35.8922 124.421L36.4593 123.417C37.0263 123.703 37.2639 124.398 36.988 124.969C36.7964 125.378 36.3826 125.618 35.9612 125.618ZM86.5274 123.811C86.1136 123.811 85.7228 123.587 85.5159 123.201C85.217 122.638 85.4316 121.935 85.991 121.634L86.0293 121.611C86.581 121.294 87.286 121.487 87.5925 122.051C87.9067 122.607 87.7151 123.317 87.1557 123.626L87.0638 123.68C86.8952 123.765 86.7113 123.811 86.5274 123.811ZM32.4976 123.773C32.3061 123.773 32.1145 123.726 31.9306 123.618C31.3712 123.317 31.1337 122.607 31.4325 122.043C31.7314 121.48 32.4057 121.256 32.9651 121.557L33.057 121.611C33.6087 121.927 33.8003 122.63 33.4938 123.186C33.2869 123.564 32.9038 123.773 32.4976 123.773ZM89.9373 121.881C89.5465 121.881 89.1557 121.68 88.9488 121.31C88.627 120.762 88.8109 120.051 89.3626 119.727L89.9449 120.723L89.4162 119.689C89.9603 119.357 90.6652 119.534 90.9947 120.082C91.3242 120.63 91.148 121.341 90.6039 121.673C90.6039 121.673 90.535 121.719 90.5273 121.719C90.3357 121.827 90.1365 121.881 89.9373 121.881ZM29.0954 121.843C28.8962 121.843 28.6893 121.788 28.5054 121.68C27.9613 121.356 27.7544 120.623 28.0763 120.075C28.3981 119.526 29.0648 119.326 29.6165 119.65C29.6165 119.65 29.6854 119.696 29.6931 119.696C30.2371 120.028 30.4134 120.739 30.0839 121.287C29.8617 121.642 29.4862 121.843 29.0954 121.843ZM93.3012 119.789C92.9257 119.789 92.5502 119.611 92.3357 119.279C91.9909 118.747 92.1058 118.044 92.6422 117.697L92.7112 117.65C93.2476 117.303 93.9602 117.457 94.2974 117.998C94.6422 118.538 94.4889 119.249 93.9525 119.596C93.761 119.719 93.5311 119.789 93.3012 119.789ZM25.7621 119.781C25.5476 119.781 25.333 119.719 25.1415 119.596L25.0725 119.55C24.5437 119.202 24.3905 118.484 24.743 117.944C25.0955 117.411 25.8004 117.264 26.3368 117.612L26.3905 117.65C26.9268 117.998 27.0801 118.716 26.7353 119.249C26.5131 119.596 26.1376 119.781 25.7621 119.781ZM96.4966 117.589C96.1364 117.589 95.7839 117.419 95.5617 117.102C95.1939 116.585 95.3088 115.859 95.8299 115.489L96.4966 116.431L95.8529 115.466C96.3586 115.08 97.0789 115.172 97.462 115.682C97.8452 116.184 97.7609 116.902 97.2628 117.295L97.1632 117.373C96.964 117.519 96.7264 117.589 96.4966 117.589ZM22.5361 117.55C22.2986 117.55 22.0534 117.473 21.8465 117.318C21.3407 116.932 21.2028 116.191 21.586 115.674C21.9614 115.165 22.6511 115.033 23.1645 115.412C23.1645 115.412 23.2258 115.458 23.2334 115.458C23.7392 115.844 23.8465 116.57 23.4633 117.079C23.2334 117.388 22.8886 117.55 22.5361 117.55ZM99.5616 115.141C99.2321 115.141 98.9103 115.002 98.6804 114.732C98.2666 114.246 98.3279 113.512 98.8184 113.103L98.8567 113.072C99.3317 112.648 100.06 112.694 100.481 113.173C100.903 113.651 100.857 114.385 100.382 114.809L100.305 114.879C100.083 115.056 99.8222 115.141 99.5616 115.141ZM19.4787 115.103C19.2028 115.103 18.9193 115.002 18.6971 114.794C18.2374 114.369 18.1684 113.621 18.5822 113.15C18.9959 112.679 19.6779 112.601 20.1607 113.003C20.176 113.011 20.245 113.072 20.2526 113.088C20.7201 113.52 20.7507 114.254 20.3216 114.724C20.0994 114.972 19.7852 115.103 19.4787 115.103ZM102.404 112.447C102.121 112.447 101.83 112.339 101.608 112.123C101.148 111.683 101.132 110.949 101.577 110.486L101.631 110.432C102.067 109.969 102.795 109.953 103.255 110.401C103.715 110.841 103.73 111.575 103.286 112.038L103.232 112.092C103.002 112.324 102.703 112.447 102.404 112.447ZM16.6435 112.393C16.3447 112.393 16.0382 112.277 15.8159 112.038C15.3792 111.575 15.3638 110.818 15.8236 110.37C16.2834 109.93 16.9807 109.915 17.4251 110.378L17.4788 110.432C17.9155 110.895 17.9002 111.629 17.4481 112.069C17.2105 112.285 16.927 112.393 16.6435 112.393ZM104.933 109.452C104.688 109.452 104.435 109.374 104.228 109.205C103.73 108.811 103.638 108.085 104.029 107.583C104.037 107.576 104.075 107.522 104.075 107.522C104.466 107.02 105.186 106.927 105.684 107.321C106.182 107.715 106.274 108.44 105.883 108.942L105.837 109.004C105.615 109.297 105.27 109.452 104.933 109.452ZM14.1225 109.398C13.77 109.398 13.4252 109.235 13.2029 108.934C13.2029 108.934 13.157 108.873 13.157 108.865C12.7815 108.348 12.8888 107.63 13.3945 107.244C13.9003 106.858 14.6206 106.973 15.0037 107.483L14.0765 108.17L15.042 107.537C15.4251 108.047 15.3179 108.772 14.8121 109.158C14.5976 109.32 14.36 109.398 14.1225 109.398ZM107.033 106.116C106.857 106.116 106.673 106.078 106.504 105.985C105.945 105.684 105.722 105.005 106.021 104.441L106.075 104.349C106.389 103.793 107.094 103.6 107.638 103.908C108.19 104.225 108.381 104.928 108.075 105.483C107.86 105.885 107.447 106.116 107.033 106.116ZM12.0229 106.086C11.6091 106.086 11.2183 105.862 11.0114 105.476C10.7126 104.912 10.9041 104.179 11.4635 103.878C12.0229 103.577 12.7049 103.754 13.0037 104.318L13.042 104.387C13.3409 104.951 13.1263 105.653 12.5669 105.954C12.3907 106.039 12.2068 106.086 12.0229 106.086ZM108.588 102.55C108.466 102.55 108.335 102.527 108.213 102.488C107.615 102.28 107.293 101.623 107.5 101.013L107.523 100.952C107.722 100.342 108.374 100.017 108.979 100.218C109.584 100.419 109.906 101.075 109.707 101.685L109.676 101.77C109.515 102.249 109.071 102.55 108.588 102.55ZM10.475 102.488C9.98462 102.488 9.52486 102.164 9.37927 101.662C9.19536 101.06 9.51719 100.38 10.1149 100.187C10.7126 99.9943 11.3409 100.28 11.5401 100.874C11.5478 100.89 11.5708 100.975 11.5785 100.99C11.7624 101.6 11.4175 102.249 10.8122 102.434C10.6972 102.473 10.5823 102.488 10.475 102.488ZM109.515 98.7051C109.454 98.7051 109.401 98.6973 109.339 98.6896C108.719 98.5892 108.289 98.0411 108.381 97.4158C108.381 97.4003 108.397 97.3154 108.397 97.3C108.512 96.6746 109.102 96.25 109.73 96.3658C110.351 96.4816 110.772 97.0838 110.657 97.7092C110.565 98.2804 110.067 98.7051 109.515 98.7051ZM9.55551 98.6819C8.99613 98.6819 8.50572 98.2727 8.42143 97.6937C8.42143 97.6937 8.41376 97.6165 8.4061 97.6088C8.31415 96.9757 8.75093 96.389 9.37927 96.2963C10.0076 96.2037 10.59 96.6438 10.6819 97.2768L9.54784 97.4467L10.6972 97.3463C10.7892 97.9794 10.3601 98.5661 9.73174 98.6665C9.67044 98.6742 9.61681 98.6819 9.55551 98.6819ZM109.807 94.8295C109.171 94.8295 108.657 94.3122 108.657 93.6715V93.5943C108.657 92.9535 109.171 92.4362 109.807 92.4362C110.443 92.4362 110.956 92.9535 110.956 93.5943V93.6715C110.956 94.3122 110.435 94.8295 109.807 94.8295ZM9.28731 94.7678C8.6513 94.7678 8.1379 94.2505 8.1379 93.6097C8.1379 92.9689 8.6513 92.4131 9.28731 92.4131C9.92331 92.4131 10.4367 92.8917 10.4367 93.5325V93.6097C10.4367 94.2505 9.92331 94.7678 9.28731 94.7678ZM109.807 90.8922C109.171 90.8922 108.657 90.3749 108.657 89.7342V89.657C108.657 89.0162 109.171 88.4989 109.807 88.4989C110.443 88.4989 110.956 89.0162 110.956 89.657V89.7342C110.956 90.3749 110.435 90.8922 109.807 90.8922ZM9.28731 90.8304C8.6513 90.8304 8.1379 90.3132 8.1379 89.6724V89.5952C8.1379 88.9544 8.6513 88.4372 9.28731 88.4372C9.92331 88.4372 10.4367 88.9544 10.4367 89.5952V89.6724C10.4367 90.3132 9.92331 90.8304 9.28731 90.8304ZM109.807 86.9549C109.171 86.9549 108.657 86.4377 108.657 85.7969V85.7197C108.657 85.0789 109.171 84.5616 109.807 84.5616C110.443 84.5616 110.956 85.0789 110.956 85.7197V85.7969C110.956 86.4377 110.435 86.9549 109.807 86.9549ZM9.28731 86.8931C8.6513 86.8931 8.1379 86.3759 8.1379 85.7351V85.6579C8.1379 85.0171 8.6513 84.4999 9.28731 84.4999C9.92331 84.4999 10.4367 85.0171 10.4367 85.6579V85.7351C10.4367 86.3759 9.92331 86.8931 9.28731 86.8931ZM109.807 83.0176C109.171 83.0176 108.657 82.5003 108.657 81.8596V81.7824C108.657 81.1416 109.171 80.6243 109.807 80.6243C110.443 80.6243 110.956 81.1416 110.956 81.7824V81.8596C110.956 82.5003 110.435 83.0176 109.807 83.0176ZM9.28731 82.9558C8.6513 82.9558 8.1379 82.4386 8.1379 81.7978V81.7206C8.1379 81.0798 8.6513 80.5626 9.28731 80.5626C9.92331 80.5626 10.4367 81.0798 10.4367 81.7206V81.7978C10.4367 82.4386 9.92331 82.9558 9.28731 82.9558ZM109.807 79.0417C109.171 79.0417 108.657 78.563 108.657 77.9222V77.845C108.657 77.2043 109.171 76.687 109.807 76.687C110.443 76.687 110.956 77.2043 110.956 77.845C110.956 78.4858 110.435 79.0417 109.807 79.0417ZM9.28731 79.0185C8.6513 79.0185 8.1379 78.5013 8.1379 77.8605V77.7833C8.1379 77.1425 8.6513 76.6253 9.28731 76.6253C9.92331 76.6253 10.4367 77.1425 10.4367 77.7833V77.8605C10.4367 78.5013 9.92331 79.0185 9.28731 79.0185ZM109.807 75.143C109.171 75.143 108.657 74.6257 108.657 73.9849V73.9077C108.657 73.267 109.171 72.7497 109.807 72.7497C110.443 72.7497 110.956 73.267 110.956 73.9077V73.9849C110.956 74.6257 110.435 75.143 109.807 75.143ZM9.28731 75.0812C8.6513 75.0812 8.1379 74.564 8.1379 73.9232C8.1379 73.2824 8.6513 72.7265 9.28731 72.7265C9.92331 72.7265 10.4367 73.2052 10.4367 73.846V73.9232C10.4367 74.564 9.92331 75.0812 9.28731 75.0812ZM109.807 71.2057C109.171 71.2057 108.657 70.6884 108.657 70.0476V69.9704C108.657 69.3297 109.171 68.8124 109.807 68.8124C110.443 68.8124 110.956 69.3297 110.956 69.9704V70.0476C110.956 70.6884 110.435 71.2057 109.807 71.2057ZM9.28731 71.1439C8.6513 71.1439 8.1379 70.6266 8.1379 69.9859V69.9087C8.1379 69.2679 8.6513 68.7506 9.28731 68.7506C9.92331 68.7506 10.4367 69.2679 10.4367 69.9087V69.9859C10.4367 70.6266 9.92331 71.1439 9.28731 71.1439ZM109.807 67.2684C109.171 67.2684 108.657 66.7511 108.657 66.1103V66.0331C108.657 65.3923 109.171 64.8751 109.807 64.8751C110.443 64.8751 110.956 65.3923 110.956 66.0331V66.1103C110.956 66.7511 110.435 67.2684 109.807 67.2684ZM9.28731 67.2066C8.6513 67.2066 8.1379 66.6893 8.1379 66.0486V65.9714C8.1379 65.3306 8.6513 64.8133 9.28731 64.8133C9.92331 64.8133 10.4367 65.3306 10.4367 65.9714V66.0486C10.4367 66.6893 9.92331 67.2066 9.28731 67.2066ZM109.807 63.3311C109.171 63.3311 108.657 62.8138 108.657 62.173V62.0958C108.657 61.455 109.171 60.9378 109.807 60.9378C110.443 60.9378 110.956 61.455 110.956 62.0958V62.173C110.956 62.8138 110.435 63.3311 109.807 63.3311ZM9.28731 63.2693C8.6513 63.2693 8.1379 62.752 8.1379 62.1112V62.0341C8.1379 61.3933 8.6513 60.876 9.28731 60.876C9.92331 60.876 10.4367 61.3933 10.4367 62.0341V62.1112C10.4367 62.752 9.92331 63.2693 9.28731 63.2693ZM109.807 59.3937C109.171 59.3937 108.657 58.8765 108.657 58.2357V58.1585C108.657 57.5177 109.171 57.0005 109.807 57.0005C110.443 57.0005 110.956 57.5177 110.956 58.1585V58.2357C110.956 58.8765 110.435 59.3937 109.807 59.3937ZM9.28731 59.332C8.6513 59.332 8.1379 58.8147 8.1379 58.174V58.0967C8.1379 57.456 8.6513 56.9387 9.28731 56.9387C9.92331 56.9387 10.4367 57.456 10.4367 58.0967V58.174C10.4367 58.8147 9.92331 59.332 9.28731 59.332ZM109.807 55.4178C109.171 55.4178 108.657 54.9392 108.657 54.2984V54.2212C108.657 53.5804 109.171 53.0632 109.807 53.0632C110.443 53.0632 110.956 53.5804 110.956 54.2212C110.956 54.862 110.435 55.4178 109.807 55.4178ZM9.28731 55.3947C8.6513 55.3947 8.1379 54.8774 8.1379 54.2366C8.1379 53.5959 8.6513 53.04 9.28731 53.04C9.92331 53.04 10.4367 53.5187 10.4367 54.1594V54.2366C10.4367 54.8774 9.92331 55.3947 9.28731 55.3947ZM109.807 51.5191C109.171 51.5191 108.657 51.0019 108.657 50.3611V50.2839C108.657 49.6431 109.171 49.1259 109.807 49.1259C110.443 49.1259 110.956 49.6431 110.956 50.2839V50.3611C110.956 51.0019 110.435 51.5191 109.807 51.5191ZM9.28731 51.4574C8.6513 51.4574 8.1379 50.9401 8.1379 50.2993V50.2221C8.1379 49.5813 8.6513 49.0641 9.28731 49.0641C9.92331 49.0641 10.4367 49.5813 10.4367 50.2221V50.2993C10.4367 50.9401 9.92331 51.4574 9.28731 51.4574ZM109.807 47.5818C109.171 47.5818 108.657 47.0646 108.657 46.4238V46.3466C108.657 45.7058 109.171 45.1886 109.807 45.1886C110.443 45.1886 110.956 45.7058 110.956 46.3466V46.4238C110.956 47.0646 110.435 47.5818 109.807 47.5818ZM9.28731 47.5201C8.6513 47.5201 8.1379 47.0028 8.1379 46.362V46.2848C8.1379 45.644 8.6513 45.1268 9.28731 45.1268C9.92331 45.1268 10.4367 45.644 10.4367 46.2848V46.362C10.4367 47.0028 9.92331 47.5201 9.28731 47.5201ZM109.807 43.6445C109.171 43.6445 108.657 43.1273 108.657 42.4865V42.4093C108.657 41.7685 109.171 41.2512 109.807 41.2512C110.443 41.2512 110.956 41.7685 110.956 42.4093V42.4865C110.956 43.1273 110.435 43.6445 109.807 43.6445ZM9.28731 43.5828C8.6513 43.5828 8.1379 43.0655 8.1379 42.4247V42.3475C8.1379 41.7067 8.6513 41.1895 9.28731 41.1895C9.92331 41.1895 10.4367 41.7067 10.4367 42.3475V42.4247C10.4367 43.0655 9.92331 43.5828 9.28731 43.5828ZM109.807 39.6686C109.171 39.6686 108.657 39.1899 108.657 38.5492V38.472C108.657 37.8312 109.171 37.3139 109.807 37.3139C110.443 37.3139 110.956 37.8312 110.956 38.472C110.956 39.1128 110.435 39.6686 109.807 39.6686ZM9.28731 39.6454C8.6513 39.6454 8.1379 39.1282 8.1379 38.4874V38.4102C8.1379 37.7694 8.6513 37.2522 9.28731 37.2522C9.92331 37.2522 10.4367 37.7694 10.4367 38.4102V38.4874C10.4367 39.1282 9.92331 39.6454 9.28731 39.6454ZM109.807 35.7699C109.171 35.7699 108.657 35.2526 108.657 34.6119V34.5347C108.657 33.8939 109.171 33.3766 109.807 33.3766C110.443 33.3766 110.956 33.8939 110.956 34.5347V34.6119C110.956 35.2526 110.435 35.7699 109.807 35.7699ZM9.28731 35.7081C8.6513 35.7081 8.1379 35.1909 8.1379 34.5501C8.1379 33.9093 8.6513 33.3535 9.28731 33.3535C9.92331 33.3535 10.4367 33.8321 10.4367 34.4729V34.5501C10.4367 35.1909 9.92331 35.7081 9.28731 35.7081ZM109.807 31.8326C109.171 31.8326 108.657 31.3153 108.657 30.6746V30.5974C108.657 29.9566 109.171 29.4393 109.807 29.4393C110.443 29.4393 110.956 29.9566 110.956 30.5974V30.6746C110.956 31.3153 110.435 31.8326 109.807 31.8326ZM9.28731 31.7708C8.6513 31.7708 8.1379 31.2536 8.1379 30.6128V30.5356C8.1379 29.8948 8.6513 29.3776 9.28731 29.3776C9.92331 29.3776 10.4367 29.8948 10.4367 30.5356V30.6128C10.4367 31.2536 9.92331 31.7708 9.28731 31.7708ZM106.88 30.7518C106.857 30.7518 106.834 30.7518 106.811 30.7518L106.734 30.744C106.098 30.7054 105.615 30.1573 105.653 29.5165C105.692 28.8757 106.213 28.3894 106.864 28.428C107.5 28.4666 108.021 29.0147 107.983 29.6555C107.952 30.2731 107.477 30.7518 106.88 30.7518ZM12.2758 30.7518C11.6781 30.7518 11.1723 30.2886 11.134 29.6787C11.088 29.0379 11.5631 28.4897 12.1991 28.4357C12.2068 28.4357 12.2834 28.428 12.2911 28.428C12.9041 28.3894 13.4711 28.8757 13.5018 29.5165C13.5401 30.1573 13.0574 30.7054 12.4213 30.744L12.3524 29.586L12.3601 30.744C12.3294 30.744 12.2988 30.7518 12.2758 30.7518ZM102.987 30.3966C102.941 30.3966 102.895 30.3966 102.849 30.3889L102.772 30.3812C102.144 30.304 101.692 29.7327 101.769 29.0919C101.845 28.4589 102.412 28.0034 103.04 28.0806L103.117 28.0883C103.745 28.1655 104.198 28.7368 104.121 29.3776C104.06 29.9566 103.562 30.3966 102.987 30.3966ZM16.1684 30.3889C15.6014 30.3889 15.111 29.9643 15.0267 29.3853C14.9424 28.7522 15.3868 28.1655 16.0152 28.0883L16.1071 28.0729C16.7278 27.9956 17.3102 28.4511 17.3791 29.0842C17.4558 29.7173 17.0037 30.2963 16.3753 30.3735L16.314 30.3812C16.268 30.3812 16.2144 30.3889 16.1684 30.3889ZM99.1095 29.8331C99.0482 29.8331 98.9869 29.8253 98.9256 29.8176C98.9256 29.8176 98.849 29.8022 98.8413 29.8022C98.213 29.6941 97.7915 29.0996 97.8988 28.4666C98.0061 27.8335 98.5885 27.4089 99.2245 27.517C99.8528 27.6251 100.313 28.2195 100.205 28.8526C100.113 29.4239 99.6536 29.8331 99.1095 29.8331ZM20.0381 29.8253C19.494 29.8253 19.0113 29.4316 18.9117 28.8757C18.7967 28.2427 19.2105 27.6405 19.8389 27.5324L19.9385 27.517C20.5592 27.4166 21.1568 27.8412 21.2565 28.4743C21.3561 29.1074 20.9346 29.7018 20.3063 29.8022L20.2526 29.8099C20.176 29.8176 20.1071 29.8253 20.0381 29.8253ZM95.2629 29.1151C95.1862 29.1151 95.1019 29.1074 95.0253 29.0919L95.2629 27.957L94.9717 29.0765C94.351 28.9529 93.9372 28.3508 94.0598 27.7254C94.1824 27.1001 94.7878 26.6832 95.4008 26.8067C95.4084 26.8067 95.4927 26.8222 95.5004 26.8299C96.1211 26.9611 96.5195 27.5788 96.3893 28.2041C96.2743 28.7445 95.7992 29.1151 95.2629 29.1151ZM23.8848 29.0996C23.3407 29.0996 22.8656 28.7136 22.7583 28.1578C22.6357 27.5324 23.0495 26.9225 23.6702 26.8067C24.2756 26.6832 24.9269 27.0847 25.0495 27.71C25.1721 28.3353 24.812 28.9298 24.1989 29.061C24.1913 29.061 24.107 29.0765 24.0993 29.0842C24.0304 29.0996 23.9537 29.0996 23.8848 29.0996ZM91.4468 28.2659C91.3549 28.2659 91.2629 28.2581 91.1786 28.235L91.4468 27.1078L91.1173 28.2195C90.4967 28.0806 90.1135 27.4552 90.2514 26.8299C90.3894 26.2046 91.01 25.8108 91.6231 25.9575C91.6307 25.9575 91.7074 25.9807 91.715 25.9807C92.328 26.1351 92.7112 26.7604 92.5579 27.378C92.4353 27.9107 91.9602 28.2659 91.4468 28.2659ZM27.7008 28.2504C27.1797 28.2504 26.7046 27.8876 26.582 27.3549C26.4364 26.7295 26.8196 26.1119 27.4403 25.9652C28.0609 25.8108 28.7123 26.1891 28.8655 26.8067C29.0188 27.4244 28.6663 28.0497 28.0533 28.1964L27.969 28.2195C27.877 28.235 27.7927 28.2504 27.7008 28.2504ZM87.6538 27.2931C87.5542 27.2931 87.4546 27.2777 87.3473 27.2545L87.2707 27.2313C86.6576 27.0615 86.2975 26.4284 86.4661 25.8108C86.6347 25.1932 87.2707 24.8304 87.876 25.0002L87.9526 25.0234C88.5656 25.1932 88.9258 25.8263 88.7572 26.4439C88.6193 26.9534 88.1595 27.2931 87.6538 27.2931ZM31.4938 27.2777C30.9881 27.2777 30.5283 26.938 30.3827 26.4207C30.2142 25.8031 30.5743 25.17 31.1873 25.0002L31.264 24.977C31.877 24.8072 32.5053 25.17 32.6739 25.7877C32.8425 26.4053 32.4823 27.0383 31.8693 27.2082L31.7927 27.2313C31.7007 27.2622 31.5934 27.2777 31.4938 27.2777ZM83.8914 26.2046C83.7841 26.2046 83.6692 26.1891 83.5542 26.1582L83.8837 25.0465L83.4853 26.1351C82.8799 25.9498 82.5274 25.309 82.7113 24.6991C82.8952 24.0892 83.5313 23.7341 84.1366 23.9194L84.2132 23.9425C84.8186 24.1278 85.1634 24.7763 84.9795 25.3862C84.8416 25.888 84.3818 26.2046 83.8914 26.2046ZM35.2562 26.1891C34.7581 26.1891 34.306 25.8649 34.1528 25.3631C33.9689 24.7532 34.3214 24.1047 34.9267 23.9271C35.5321 23.7418 36.2064 24.0815 36.3903 24.6914C36.5742 25.3013 36.2677 25.9344 35.6623 26.1196L35.5857 26.1428C35.4784 26.1737 35.3635 26.1891 35.2562 26.1891ZM80.1597 25.0156C80.0371 25.0156 79.9068 24.9925 79.7842 24.9539L80.1597 23.8576L79.7382 24.9384C79.1329 24.7454 78.7957 24.0969 78.9949 23.487C79.1865 22.8771 79.8302 22.5375 80.4355 22.7382C80.4432 22.7382 80.5275 22.7691 80.5351 22.7691C81.1328 22.9775 81.4547 23.6337 81.2478 24.2436C81.0868 24.7146 80.6424 25.0156 80.1597 25.0156ZM38.9879 24.9925C38.4975 24.9925 38.0454 24.676 37.8922 24.1819C37.7006 23.572 38.0378 22.9235 38.6355 22.7305C39.2408 22.5375 39.9151 22.854 40.1144 23.4562C40.3136 24.0583 40.0301 24.6991 39.4324 24.8998C39.4247 24.8998 39.3404 24.9307 39.3328 24.9307C39.2178 24.977 39.1029 24.9925 38.9879 24.9925ZM76.4739 23.7109C76.3436 23.7109 76.2057 23.6878 76.0678 23.6337L76.4739 22.5529L76.0141 23.6183C75.4165 23.4021 75.1099 22.7382 75.3245 22.136C75.5391 21.5338 76.198 21.225 76.7957 21.4412C76.8034 21.4412 76.88 21.4721 76.88 21.4721C77.4777 21.696 77.7766 22.3676 77.5544 22.9621C77.3781 23.4176 76.9337 23.7109 76.4739 23.7109ZM42.6737 23.6878C42.1986 23.6878 41.7618 23.3944 41.5933 22.9235C41.3787 22.3213 41.6852 21.6573 42.2829 21.4412C42.873 21.225 43.5703 21.5184 43.7848 22.1206C43.9994 22.715 43.7388 23.3635 43.1488 23.5874C43.1412 23.5874 43.0645 23.6183 43.0645 23.6183C42.9342 23.6646 42.804 23.6878 42.6737 23.6878ZM72.8111 22.275C72.6732 22.275 72.5276 22.2518 72.3897 22.19L72.3054 22.1592C71.723 21.9121 71.4472 21.2327 71.6924 20.646C71.9376 20.0593 72.6119 19.7813 73.1943 20.0284C73.7843 20.2677 74.0985 20.9548 73.8532 21.5493C73.677 21.9893 73.2632 22.275 72.8111 22.275ZM46.3212 22.2518C45.8691 22.2518 45.4476 21.9816 45.2637 21.5415C45.0185 20.9548 45.2944 20.2754 45.8767 20.0284L45.961 19.9975C46.551 19.7582 47.2177 20.0438 47.4552 20.6383C47.6928 21.2327 47.4093 21.9044 46.8192 22.1437L46.7579 22.1669C46.62 22.2209 46.4668 22.2518 46.3212 22.2518ZM69.248 20.6923C69.0871 20.6923 68.9185 20.6537 68.7652 20.5842L68.6963 20.5534C68.1216 20.2832 67.8764 19.5961 68.1446 19.017C68.4128 18.438 69.0947 18.1833 69.6694 18.4612L69.7384 18.4921C70.3131 18.7623 70.5583 19.4494 70.2901 20.0284C70.0909 20.4376 69.6771 20.6923 69.248 20.6923ZM49.8997 20.6614C49.4705 20.6614 49.0567 20.4144 48.8575 19.9975C48.5893 19.4185 48.8345 18.7314 49.4092 18.4612L49.4782 18.4303C50.0529 18.1601 50.7349 18.4071 51.0031 18.9862C51.2713 19.5652 51.0261 20.2523 50.4514 20.5225L50.3824 20.5534C50.2291 20.6306 50.0606 20.6614 49.8997 20.6614ZM65.7538 18.909C65.5622 18.909 65.3783 18.8626 65.2021 18.7623L65.1331 18.7237C64.5737 18.4149 64.3745 17.7123 64.681 17.1487C64.9875 16.5852 65.6848 16.3844 66.2442 16.6933L66.3132 16.7319C66.8725 17.0407 67.0718 17.7432 66.7653 18.3068C66.5507 18.6928 66.1599 18.909 65.7538 18.909ZM53.3862 18.8781C52.9877 18.8781 52.5969 18.6696 52.39 18.2913C52.0759 17.7355 52.2674 17.0252 52.8191 16.7087C52.8268 16.7087 52.8958 16.6624 52.9034 16.6624C53.4628 16.3536 54.1601 16.562 54.4666 17.1179C54.7731 17.6814 54.5662 18.384 54.0145 18.6928L53.4628 17.6814L53.9686 18.7237C53.777 18.8318 53.5777 18.8781 53.3862 18.8781ZM62.4358 16.8322C62.2059 16.8322 61.9684 16.7627 61.7692 16.6161L61.7155 16.5775C61.1945 16.2146 61.0642 15.4889 61.432 14.9639C61.7922 14.439 62.5125 14.3077 63.0335 14.6783L63.1102 14.7323C63.6236 15.1029 63.7462 15.8286 63.3783 16.3458C63.1408 16.6624 62.7883 16.8322 62.4358 16.8322ZM56.7041 16.7936C56.3516 16.7936 56.0068 16.6315 55.7769 16.3227C55.4015 15.8054 55.5087 15.0797 56.0145 14.7014L56.0911 14.6474C56.6122 14.2768 57.3248 14.3926 57.6926 14.9176C58.0604 15.4349 57.9455 16.1606 57.4244 16.5311L57.3784 16.562C57.1869 16.7164 56.9417 16.7936 56.7041 16.7936ZM59.547 14.1456C59.2328 14.1456 58.9187 14.0143 58.7041 13.7441C58.3363 13.3504 58.2903 12.7405 58.5968 12.2927L59.547 10.8645L60.5048 12.3082C60.8497 12.8332 60.7347 13.5743 60.2213 13.9294C60.0144 14.0684 59.7769 14.1456 59.547 14.1456Z" fill="#DC0000"/>
<path d="M61.93 108.293C57.8764 108.293 54.727 105.506 54.2749 101.353C54.1447 100.133 54.4435 99.2917 54.6887 98.6046C54.75 98.4193 54.819 98.2417 54.8726 98.0487C52.9263 97.7245 51.0413 97.1609 49.2329 96.3657C48.7501 96.8366 48.6965 97.269 48.5969 98.1182C48.4743 99.1527 48.3057 100.565 47.3248 102.187C46.344 103.808 44.459 104.997 42.2904 105.383C39.8384 105.815 37.3403 105.167 35.4247 103.623C33.4937 102.063 32.3672 100.056 32.1603 97.8171C31.9688 95.7172 32.6355 93.5941 34.0454 91.8339C34.781 90.9075 35.8538 90.2204 37.0951 89.4175C37.7235 89.0161 38.3901 88.5837 39.0338 88.1051C37.7541 86.314 36.7273 84.3608 35.9687 82.2763C35.5166 82.9171 34.689 83.774 32.9496 84.2372C31.2332 84.6927 29.1872 84.2681 27.4708 83.1101C25.5474 81.8054 24.2754 79.7441 23.9766 77.4435C23.6854 75.166 24.2295 73.0198 25.5091 71.3985C26.7275 69.8545 28.5436 68.8586 30.6278 68.5884C31.624 68.4571 32.4362 68.5884 33.2944 68.7351C33.7465 68.8123 34.2523 68.8972 34.8959 68.959C35.2561 67.083 35.8308 65.2687 36.62 63.5394C36.0607 62.8677 35.6086 62.8214 34.6737 62.7287C33.6469 62.6284 32.2447 62.4817 30.6202 61.5244C28.9957 60.5671 27.7696 58.6988 27.3482 56.5217C26.8731 54.0667 27.4555 51.5344 28.9573 49.5735C30.4669 47.5971 32.4362 46.4236 34.6584 46.1689C36.7273 45.9296 38.8575 46.5626 40.6353 47.9445C41.4859 48.6007 42.3058 49.6893 43.3403 51.0635C43.892 51.7892 44.482 52.5844 45.118 53.3564C46.436 52.4454 47.8382 51.6734 49.3095 51.0403C48.7961 50.5308 47.9839 49.6739 47.5547 47.8673C47.141 46.1303 47.6007 44.0767 48.7884 42.3783C50.1217 40.4637 52.1983 39.2284 54.4818 38.9736C56.7423 38.7266 58.8649 39.3211 60.4511 40.6412C61.953 41.8996 62.9108 43.7525 63.1407 45.8524C63.2709 47.0644 62.9644 47.9368 62.7192 48.6394C62.6426 48.8632 62.566 49.0794 62.497 49.3265C64.428 49.6044 66.2977 50.1139 68.1061 50.8551C68.3666 50.3532 68.4892 49.7742 68.6578 48.9945C68.903 47.8828 69.2019 46.4931 70.0831 45.034C71.0639 43.4128 72.9489 42.2239 75.1175 41.8379C77.5695 41.4055 80.0676 42.054 81.9833 43.5981C85.784 46.6707 86.3587 51.6271 83.3625 55.3945C82.6193 56.321 81.5465 57.0158 80.3051 57.811C79.7458 58.1738 79.1481 58.5598 78.5657 58.9767C79.8683 60.7138 80.9181 62.5975 81.7074 64.6125C82.2438 63.964 83.0484 63.3541 84.443 62.9912C86.1594 62.5357 88.2054 62.9603 89.9142 64.1184C91.8375 65.4231 93.1095 67.4844 93.4084 69.785C93.6996 72.0625 93.1555 74.2087 91.8758 75.8299C90.6575 77.374 88.8414 78.3699 86.7571 78.6401C85.5847 78.7945 84.7188 78.5397 84.0292 78.3313C83.738 78.2464 83.4315 78.1537 83.0714 78.092C82.7036 80.1687 82.0752 82.1837 81.1863 84.106C81.5771 84.3994 81.9833 84.438 82.7112 84.5075C83.738 84.6078 85.1479 84.7468 86.7801 85.7041C88.4046 86.6614 89.6306 88.5297 90.0521 90.7145C90.5272 93.1695 89.9448 95.7018 88.4429 97.6627C86.9334 99.6391 84.9641 100.813 82.7419 101.067C80.6576 101.299 78.5427 100.674 76.765 99.2917C75.8301 98.566 75.1251 97.5006 74.3052 96.2653C73.8455 95.5705 73.355 94.8216 72.7957 94.1114C71.3857 95.0919 69.8762 95.9102 68.2977 96.5664C68.9183 97.1223 69.5007 97.9483 69.8379 99.3689C70.2517 101.106 69.7919 103.159 68.6042 104.858C67.2709 106.773 65.1943 108.008 62.9108 108.263C62.5966 108.278 62.2595 108.293 61.93 108.293ZM48.8957 91.0542L50.0298 91.6332C52.3976 92.8298 54.9416 93.5324 57.5929 93.7177L59.7461 93.8643L59.7384 96.0337C59.7308 98.1877 59.3016 99.3843 59.0258 100.172C58.8419 100.681 58.8419 100.72 58.8572 100.851C59.0181 102.364 60.0526 103.901 62.4434 103.63C63.769 103.484 64.5353 102.65 64.8724 102.171C65.3552 101.484 65.4778 100.789 65.3935 100.434C65.3092 100.079 65.2326 99.9633 65.2326 99.9633C65.2173 99.9633 65.1713 99.9402 65.133 99.9093C63.2173 98.6663 63.156 96.9679 63.6924 94.4665L63.9759 93.1773L65.2249 92.7604C67.5621 91.9883 69.7153 90.784 71.6309 89.1936L73.1635 87.9198L74.6347 89.2631C76.1826 90.6682 77.2784 92.3357 78.1596 93.6713C78.673 94.4511 79.2554 95.3389 79.5925 95.5937C80.4201 96.2345 81.3626 96.5355 82.2515 96.4352C83.2016 96.3271 84.0905 95.7635 84.8185 94.8062C85.7686 93.5633 85.692 92.2508 85.5617 91.5714C85.3702 90.591 84.8798 89.9116 84.4813 89.68C83.7227 89.2322 83.1173 89.1705 82.2821 89.0933C80.7189 88.9389 78.581 88.7304 76.5657 85.6809L75.7995 84.5152L76.4661 83.2877C77.7841 80.8404 78.5734 78.2078 78.8109 75.4594L78.9795 73.4444L80.9871 73.344C83.2246 73.2282 84.512 73.6065 85.3549 73.8613C85.8836 74.0157 85.9985 74.0466 86.1978 74.0234C87.0866 73.9076 87.8376 73.5139 88.3126 72.9194C88.8184 72.2786 89.0176 71.3908 88.8874 70.3563C88.7188 69.0207 87.8759 68.2719 87.3855 67.9399C86.6882 67.469 85.9909 67.3531 85.646 67.4458C85.3242 67.5307 85.2169 67.6079 85.2169 67.6079C85.2323 67.6079 85.2016 67.6619 85.171 67.716C83.9909 69.7927 82.2131 69.8854 79.7228 69.3758L78.3895 69.1056L77.991 67.7932C77.1328 64.983 75.6769 62.4354 73.6769 60.2274L72.1903 58.5907L73.7535 57.0235C75.1021 55.6725 76.6347 54.6843 77.8684 53.8891C78.6577 53.3796 79.5465 52.8083 79.8147 52.4763C80.9258 51.0867 81.3319 48.9636 79.1404 47.1957C77.9297 46.2152 76.6194 46.2693 75.9451 46.3851C74.9642 46.5549 74.2822 47.0336 74.0447 47.435C73.5619 48.2302 73.3857 49.0408 73.1865 49.9749C72.834 51.5962 72.3972 53.6112 70.2517 55.4331L69.1023 56.4136L67.7536 55.7419C65.3016 54.5221 62.6579 53.8428 59.9147 53.7192L57.7538 53.6189L57.7231 51.4418C57.6925 49.2029 58.1293 47.9368 58.4281 47.0953C58.612 46.5626 58.6273 46.4931 58.612 46.3542C58.5124 45.4509 58.1369 44.6866 57.5546 44.2002C56.9262 43.6753 56.0527 43.4591 55.0259 43.5749C53.7002 43.7216 52.9339 44.5554 52.5968 45.034C52.114 45.7211 51.9914 46.4237 52.0757 46.7711C52.2137 47.3578 52.3363 47.4813 52.6504 47.7978C53.7998 48.9559 54.4129 50.1448 54.114 52.8237L53.9531 54.2828L52.5738 54.7538C50.2903 55.5335 48.1907 56.7147 46.3363 58.2587L44.7042 59.6175L43.2253 58.0889C41.8613 56.6838 40.6813 55.1166 39.7311 53.8505C39.0338 52.9241 38.2445 51.8818 37.8844 51.5962C37.0568 50.9554 36.122 50.6543 35.2254 50.7547C34.2753 50.8628 33.3864 51.4264 32.6584 52.3837C31.7083 53.6266 31.7849 54.9391 31.9152 55.6184C32.1067 56.5989 32.5971 57.2783 32.9956 57.5099C33.7619 57.9576 34.3596 58.0194 35.1948 58.1043C37.279 58.3128 39.3173 58.7837 41.302 62.1575L41.9533 63.2691L41.3556 64.4117C40.1909 66.6506 39.4629 69.0748 39.2024 71.607L38.9878 73.7069L36.8882 73.6837C34.8193 73.6606 33.5397 73.4444 32.6125 73.29C31.9152 73.1742 31.5933 73.1279 31.2868 73.1665C30.3979 73.2823 29.647 73.676 29.1719 74.2704C28.6662 74.9112 28.4669 75.7991 28.5972 76.8336C28.7658 78.1692 29.6087 78.918 30.0991 79.25C30.7964 79.7209 31.486 79.8367 31.8385 79.7441C32.1757 79.6515 32.283 79.5742 32.283 79.5742C32.3136 79.5356 32.3443 79.4739 32.3749 79.4121C33.6546 77.2582 35.5166 77.235 38.3059 77.9298L39.5779 78.2464L39.9533 79.5125C40.7656 82.2454 42.1219 84.7236 43.9839 86.8698L45.3709 88.4756L43.8996 90.0042C42.5127 91.4479 40.9035 92.4747 39.6162 93.3085C38.8269 93.8103 37.938 94.3893 37.6775 94.7213C37.0262 95.5396 36.7043 96.4892 36.7886 97.3848C36.8729 98.3421 37.417 99.2531 38.3518 100.002C39.5625 100.982 40.8728 100.936 41.5472 100.813C42.528 100.643 43.21 100.164 43.4475 99.7703C43.9073 99.0137 43.9839 98.4038 44.0835 97.5701C44.2751 95.9565 44.5356 93.7408 47.8536 91.7181L48.8957 91.0542Z" fill="#DC0000"/>
<path d="M61.0101 70.8584C57.0485 70.8584 53.6309 67.8475 53.1865 63.7867C53.1022 62.976 53.1329 62.1731 53.2861 61.3779L57.7918 62.2812C57.7305 62.6054 57.7152 62.9452 57.7535 63.2848C57.9527 65.0914 59.5695 66.4038 61.3626 66.2031C62.6346 66.0641 63.7151 65.184 64.1135 63.9642L68.4736 65.4233C67.5081 68.357 64.9104 70.4724 61.853 70.812C61.5772 70.8429 61.2937 70.8584 61.0101 70.8584Z" fill="#DC0000"/>
<path d="M57.6005 84.2375L53.2634 82.709C53.4243 82.2458 53.4779 81.7594 53.4243 81.2576C53.2327 79.451 51.6235 78.1386 49.8151 78.3393C48.8343 78.4474 47.9684 78.9878 47.4321 79.8139L43.5854 77.2817C44.8804 75.2898 46.9723 73.9929 49.3171 73.7381C53.6465 73.2672 57.5238 76.417 57.9989 80.7635C58.1292 81.9446 57.9913 83.1181 57.6005 84.2375Z" fill="#DC0000"/>
<path d="M62.6424 84.083C62.175 79.7365 65.3014 75.8146 69.6155 75.336L70.1136 79.9372C68.3205 80.138 67.0178 81.7669 67.2171 83.5734L62.6424 84.083Z" fill="#DC0000"/>
</svg>
