<svg width="81" height="115" viewBox="0 0 81 115" fill="none" xmlns="http://www.w3.org/2000/svg">
<path d="M68.6566 67.4272L52.7842 59.9911C52.2662 58.8415 51.6144 57.803 50.8935 56.9141C57.6318 53.5166 62.2593 46.5848 62.2593 38.5974V25.9732C66.1011 23.4688 68.4839 19.1525 68.4839 13.9472C68.4839 7.9385 64.0421 2.58366 63.8521 2.36143L62.0046 0.15625L60.4894 2.60076C58.2405 6.23333 52.5597 7.78465 41.5047 7.78465C30.0613 7.78465 20.7502 17.0028 20.7502 28.3322V38.606C20.7502 46.5421 25.3216 53.4397 31.9951 56.8586C31.5203 57.6235 31.0411 58.474 30.6095 59.38L9.43192 71.4829C3.43607 74.9701 0 80.2096 0 85.8593C0 91.0346 3.59147 96.2143 6.94552 99.3297L16.4853 108.279C16.5242 108.313 16.563 108.343 16.6019 108.377V114.625H20.7545V110.33C21.4107 110.45 22.1013 110.514 22.8308 110.514C26.6856 110.514 30.2037 108.415 32.0038 105.044L43.9652 82.6669C45.3379 80.0857 46.6329 77.6454 48.1222 76.4274C50.2892 74.6582 53.954 70.3247 53.954 65.3118C53.954 65.2348 53.9454 65.1622 53.9454 65.0895L66.8695 71.141C72.9862 74.047 76.7849 79.8121 76.7849 86.1884V114.625H80.9375V86.1841C80.9375 78.2138 76.2366 71.0299 68.6566 67.4272ZM24.9028 38.6017V28.3279C24.9028 19.2636 32.3491 11.8916 41.5047 11.8916C49.5942 11.8916 57.5584 11.2506 62.1039 7.07096C63.183 8.88724 64.3356 11.4642 64.3356 13.9472C64.3356 18.896 61.0895 24.221 53.9583 24.221V28.3322C55.4174 28.3322 56.8073 28.1441 58.111 27.8023V38.606C58.111 47.6703 50.6647 55.0423 41.5091 55.0423C32.3534 55.0423 24.9028 47.666 24.9028 38.6017ZM45.4847 73.2564C43.3523 75.0001 41.8674 77.795 40.2961 80.7523L28.3346 103.12C27.2511 105.146 25.1403 106.407 22.8265 106.407C21.2855 106.407 20.12 106.039 19.3473 105.309L9.7902 96.3468C6.98437 93.7356 4.14832 89.4791 4.14832 85.8636C4.14832 81.7096 6.8376 77.7608 11.5212 75.0385L29.0684 65.0083C29.0641 65.1109 29.0555 65.2135 29.0555 65.316C29.0555 67.9187 29.7764 69.7093 30.3591 71.1495C30.7908 72.2222 31.1318 73.0641 31.1318 74.077C31.1318 74.1752 31.1188 74.312 31.0498 74.4317L22.9733 87.9918L16.1271 83.4746L13.8263 86.8935L24.3201 93.821L34.624 76.5215C35.0556 75.7992 35.2844 74.953 35.2844 74.0812C35.2844 72.282 34.7189 70.8717 34.2182 69.6324C33.7002 68.3503 33.2124 67.1366 33.2124 65.3246C33.2124 62.9741 34.8182 60.115 35.9406 58.4013C37.7147 58.8928 39.5838 59.162 41.5134 59.162C43.3134 59.162 45.0574 58.9355 46.7236 58.5039C48.1567 59.7732 49.8143 62.2476 49.8143 65.3246C49.8057 68.8033 46.9783 72.0342 45.4847 73.2564Z" fill="white"/>
<path d="M66.4119 94.0775H62.2593V114.625H66.4119V94.0775Z" fill="white"/>
<path d="M66.6923 52.4163L63.7591 55.3203L70.2452 61.7418L73.1785 58.8378L66.6923 52.4163Z" fill="white"/>
<path d="M78.8612 42.7129H68.4839V46.8241H78.8612V42.7129Z" fill="white"/>
<path d="M16.3212 52.4142L9.83508 58.8357L12.7684 61.7397L19.2545 55.3182L16.3212 52.4142Z" fill="white"/>
<path d="M14.5299 42.7129H4.15263V46.8241H14.5299V42.7129Z" fill="white"/>
<path d="M43.935 43.5676V29.6485H30.0138V33.4947H40.05V43.5676H43.935Z" fill="white"/>
<path d="M34.8517 39.0427C36.0943 38.8431 36.9381 37.684 36.7364 36.4539C36.5348 35.2238 35.364 34.3884 34.1215 34.588C32.879 34.7877 32.0352 35.9467 32.2368 37.1769C32.4385 38.407 33.6092 39.2424 34.8517 39.0427Z" fill="white"/>
<path d="M51.7044 37.6804C52.1861 36.529 51.6339 35.209 50.4709 34.7321C49.3079 34.2551 47.9746 34.8019 47.4929 35.9533C47.0112 37.1046 47.5634 38.4246 48.7264 38.9016C49.8894 39.3785 51.2227 38.8317 51.7044 37.6804Z" fill="white"/>
<path d="M45.5408 50.1447C43.3048 49.7003 40.9954 49.6661 38.673 50.0721L38.0687 46.7044C40.8141 46.2215 43.5681 46.26 46.2229 46.7899L45.5408 50.1447Z" fill="white"/>
</svg>
