<svg width="83" height="97" viewBox="0 0 83 97" fill="none" xmlns="http://www.w3.org/2000/svg">
<path d="M63.0408 14.9343C60.373 16.6789 49.6716 23.9706 37.4055 36.2675C29.2523 44.4399 22.1295 53.1205 16.2337 62.0679C9.05105 72.9673 3.68114 84.2987 0.256547 95.7656C1.36815 96.1213 2.52251 96.4981 3.68542 96.875C7.00741 85.7257 12.2277 74.695 19.2222 64.0708C24.9769 55.3309 31.9373 46.8451 39.9024 38.8462C50.3771 28.3363 60.6637 20.7313 65.1059 17.8646C64.4175 16.8906 63.6779 15.8447 63.0408 14.9343Z" fill="white"/>
<path d="M79.4498 45.092L76.6409 44.4949C84.5162 34.5313 82.6307 27.9425 82.5367 27.6461C82.3272 26.9601 81.7201 26.4647 80.9975 26.3884L78.2698 26.109C81.7201 15.5525 80.2878 3.01432 80.2194 2.45114C80.1082 1.52803 79.313 0.846289 78.3681 0.875931C69.1247 1.18081 62.3739 3.11171 58.3379 4.67846C56.5422 5.37714 55.1014 6.06735 54.0155 6.64747L53.7205 4.5853C53.6478 4.06446 53.3442 3.59868 52.891 3.3192C52.4378 3.03973 51.8863 2.97198 51.3818 3.13712C44.259 5.42372 38.3119 9.96304 34.8873 13.0076V10.6448C34.8873 9.95881 34.4897 9.33211 33.8655 9.0357C33.2413 8.73929 32.5016 8.82398 31.9587 9.25165C26.7598 13.3675 23.271 17.7798 21.2317 20.8117L20.6117 18.5632C20.4279 17.8899 19.8593 17.3818 19.1624 17.2717C18.4655 17.1616 17.7643 17.4622 17.3753 18.0424C15.3487 21.0573 12.4243 27.6503 10.7056 31.6942L9.35033 29.3737C9.02112 28.8063 8.40119 28.4633 7.74278 28.4845C7.08436 28.5014 6.48581 28.8741 6.18653 29.4584C-1.09876 43.6057 -0.641289 55.8601 1.02612 63.6515C2.84316 72.1373 6.38747 77.2314 6.53711 77.4473C7.10574 78.2561 8.23017 78.4551 9.04677 77.8877C9.86337 77.3245 10.0643 76.2109 9.49142 75.4021C9.45721 75.3555 6.21646 70.6934 4.55332 62.9105C3.12534 56.2412 2.6636 46.0278 7.94799 34.0993L9.41873 36.6188C9.76504 37.2117 10.4192 37.5547 11.1075 37.5038C11.7959 37.453 12.3944 37.0211 12.6509 36.3859C12.6894 36.2928 15.6694 28.9164 18.2945 23.7165L18.8716 25.821C19.0683 26.5409 19.6968 27.0617 20.445 27.1295C21.1932 27.1972 21.9072 26.7949 22.2321 26.1259C22.262 26.0624 25.0795 20.3544 31.2746 14.5574V17.2463C31.2746 17.9873 31.7363 18.6479 32.4332 18.9104C33.1301 19.1729 33.9211 18.9866 34.417 18.4362C34.4897 18.3557 41.3303 10.9031 50.454 7.25723L50.8217 9.83177C50.9115 10.4585 51.3305 10.9878 51.9205 11.2291C52.5105 11.4705 53.186 11.3858 53.6948 11.0047C53.7162 10.9878 55.7598 9.48455 59.8129 7.93051C63.3102 6.59242 69.0093 4.96217 76.7734 4.51755C77.0556 8.51063 77.3934 18.9485 74.1056 26.977C73.8918 27.4979 73.9388 28.0864 74.2296 28.5692C74.5203 29.0519 75.0248 29.3652 75.5891 29.4245L79.189 29.7929C79.2061 30.5043 79.1377 31.529 78.8213 32.8333C78.21 35.34 76.5297 39.3839 71.9807 44.4314C71.5532 44.9056 71.4121 45.5704 71.613 46.176C71.8139 46.7815 72.3227 47.2346 72.9512 47.3659L76.4228 48.1026C74.4476 51.7231 69.4368 59.3917 61.1383 62.3939C60.3602 62.6776 59.8728 63.4483 59.9668 64.2655C60.0566 65.0828 60.7022 65.7306 61.5231 65.8407L67.607 66.6283C65.9695 68.8726 62.8399 72.4507 57.7906 75.618C53.0321 78.6076 47.5425 80.6147 41.4842 81.5844C34.1135 82.7658 25.8619 82.4016 16.952 80.5173L16.3962 84.0488C22.0568 85.2345 27.4823 85.8357 32.6128 85.8357C35.8835 85.8357 39.0387 85.5944 42.0614 85.1117C48.6071 84.0658 54.5499 81.885 59.7231 78.6372C68.5989 73.0689 72.1132 66.315 72.2586 66.0313C72.5237 65.5147 72.5151 64.9049 72.2415 64.3925C71.9679 63.8802 71.4634 63.5329 70.8819 63.4567L67.7737 63.0545C76.5041 57.3972 80.5272 47.9968 80.7239 47.5268C80.9291 47.0356 80.9035 46.4809 80.6555 46.0151C80.4203 45.5366 79.9714 45.2021 79.4498 45.092Z" fill="white"/>
<path d="M62.066 29.1155L47.5767 29.052C47.5767 29.052 47.5639 22.6453 47.2133 20.3671H43.6647C43.9811 22.6495 43.9683 30.7923 43.9683 30.7923C43.9683 31.762 44.7464 32.5538 45.7254 32.575L61.6813 32.6766L62.066 29.1155Z" fill="white"/>
<path d="M15.7378 67.7759C15.7378 67.7759 14.3525 57.338 14.1046 55.7501L10.5859 56.1524C10.804 57.7572 12.3517 69.673 12.3517 69.673C12.4628 70.5071 13.1469 71.155 13.9977 71.2228L25.2249 71.6674L25.6054 68.1147L15.7378 67.7759Z" fill="white"/>
<path d="M23.9466 54.9752L22.8136 37.7199L19.2308 38.1264L20.4792 56.7791C20.5519 57.6514 21.253 58.3458 22.1381 58.4136L41.1422 59.6416L41.5227 56.0889L23.9466 54.9752Z" fill="white"/>
<path d="M35.4816 41.7045C35.4816 41.7045 35.4773 29.721 35.1011 27.7943H31.5055C31.8817 29.721 31.8774 43.3559 31.8774 43.3559C31.8774 44.2875 32.6 45.0624 33.5406 45.1344L58.5046 46.9213L58.8851 43.3686L35.4816 41.7045Z" fill="white"/>
</svg>
