<svg width="132" height="122" viewBox="0 0 132 122" fill="none" xmlns="http://www.w3.org/2000/svg">
<path d="M38.7684 0.1875H33.23V12.3281H38.7684V0.1875Z" fill="#DC0000"/>
<path d="M96.3671 0.1875H90.8288V12.3281H96.3671V0.1875Z" fill="#DC0000"/>
<path d="M85.2904 7.91335H43.1991V12.3281H85.2904V7.91335Z" fill="#DC0000"/>
<path d="M112.881 121.594H18.9316C8.49274 121.594 0 113.217 0 102.92V26.595C0 16.2984 8.49274 7.92139 18.9316 7.92139H29.2808V12.7404H18.9316C11.1879 12.7404 4.88556 18.9489 4.88556 26.587V102.912C4.88556 110.55 11.1879 116.767 18.9316 116.767H112.881C120.625 116.767 126.927 110.55 126.927 102.912V26.587C126.927 18.9489 120.625 12.7324 112.881 12.7324H101.327V7.91335H112.881C123.32 7.91335 131.812 16.2904 131.812 26.587V102.912C131.812 113.217 123.32 121.594 112.881 121.594Z" fill="#DC0000"/>
<path d="M128.489 29.9872H2.21534V32.1946H128.489V29.9872Z" fill="#DC0000"/>
<path d="M52.6025 61.6129C52.6025 65.5247 50.6023 68.8593 47.247 71.1679C51.0539 73.5406 53.3768 77.1318 53.3768 81.2359C53.3768 88.9312 45.6984 94.7027 35.2454 94.7027C29.5027 94.7027 23.9535 93.0354 20.0175 89.7008L23.8245 81.3001C26.0829 83.6728 29.8253 85.0836 33.9549 85.0836C39.1169 85.0836 43.0529 82.775 43.0529 79.9534C43.0529 77.5807 40.5364 75.721 36.923 75.721H32.1482V66.7431H37.6328C40.3428 66.7431 42.2786 65.0117 42.2786 62.7672C42.2786 60.138 39.2459 58.1501 34.6647 58.1501C30.5996 58.1501 26.8572 59.5609 24.5988 61.9336L20.7918 53.5329C24.7278 50.1982 30.277 48.5309 35.7616 48.5309C45.8274 48.5309 52.6025 54.0459 52.6025 61.6129Z" fill="#DC0000"/>
<path d="M64.7656 79.8585H75.388V88.5157H77.0817V95.0086L73.2103 95.4895V91.8824H66.048V95.4895L62.1765 95.0086V88.5157H63.3864C64.2332 87.6981 64.7656 85.8704 64.7656 83.5378V79.8585ZM71.5165 88.5157V83.2252H68.5161V83.2973C68.4435 85.7021 68.2015 87.2893 67.5724 88.5157H71.5165Z" fill="#DC0000"/>
<path d="M78.5335 79.8584H82.405V84.187H86.7604V79.8584H90.6319V91.8823H86.7604V87.5537H82.405V91.8823H78.5335V79.8584Z" fill="#DC0000"/>
<path d="M96.7298 79.8584H104.255V91.8823H100.383V88.3954H98.7865L96.5846 91.8823H91.842L94.8424 88.0106C93.3664 87.3613 92.3986 85.9425 92.3986 84.1389C92.3986 81.646 94.2133 79.8584 96.7298 79.8584ZM100.383 83.1048H97.4557C96.7782 83.1048 96.27 83.5377 96.27 84.1389C96.27 84.7401 96.7782 85.1489 97.4557 85.1489H100.383V83.1048Z" fill="#DC0000"/>
<path d="M73.1168 56.9574C71.9688 56.2337 69.7284 56.2267 68.6754 57.625C67.6225 56.2267 65.382 56.2337 64.2341 56.9574C63.2049 57.6039 63.0386 58.6578 63.1811 59.4167C63.4661 60.9204 64.9545 61.9884 68.6754 64.2017C72.4043 61.9884 73.8926 60.9204 74.1697 59.4167C74.3122 58.6508 74.146 57.6039 73.1168 56.9574Z" fill="#DC0000"/>
<path d="M88.5114 56.9574C87.249 56.2337 84.7852 56.2267 83.6273 57.625C82.4694 56.2267 80.0055 56.2337 78.7431 56.9574C77.6113 57.6039 77.4285 58.6578 77.5852 59.4167C77.8986 60.9204 79.5354 61.9884 83.6273 64.2017C87.7279 61.9884 89.3646 60.9204 89.6694 59.4167C89.8348 58.6508 89.6432 57.6039 88.5114 56.9574Z" fill="#DC0000"/>
<path d="M102.914 56.9574C101.651 56.2337 99.1869 56.2267 98.0286 57.625C96.8704 56.2267 94.4059 56.2337 93.1431 56.9574C92.011 57.6039 91.8281 58.6578 91.9849 59.4167C92.2984 60.9204 93.9356 61.9884 98.0286 64.2017C102.13 61.9884 103.768 60.9204 104.072 59.4167C104.229 58.6508 104.046 57.6039 102.914 56.9574Z" fill="#DC0000"/>
<path d="M103.306 74.1349C102.859 74.1349 102.451 73.6383 102.451 73.0312C102.451 72.4242 102.777 71.9276 103.225 71.9276H103.306C103.754 71.9276 104.121 72.4242 104.121 73.0312C104.121 73.6383 103.763 74.1349 103.306 74.1349ZM99.1535 74.1349C98.7056 74.1349 98.2985 73.6383 98.2985 73.0312C98.2985 72.4242 98.6242 71.9276 99.0721 71.9276H99.1535C99.6014 71.9276 99.9678 72.4242 99.9678 73.0312C99.9678 73.6383 99.6095 74.1349 99.1535 74.1349ZM95.0005 74.1349H94.9191C94.4713 74.1349 94.1048 73.6383 94.1048 73.0312C94.1048 72.4242 94.4713 71.9276 94.9191 71.9276H95.0005C95.4484 71.9276 95.8149 72.4242 95.8149 73.0312C95.8149 73.6383 95.4566 74.1349 95.0005 74.1349ZM90.8476 74.1349C90.3997 74.1349 89.9925 73.6383 89.9925 73.0312C89.9925 72.4242 90.3183 71.9276 90.7661 71.9276H90.8476C91.2954 71.9276 91.6619 72.4242 91.6619 73.0312C91.6619 73.6383 91.3036 74.1349 90.8476 74.1349ZM86.6946 74.1349H86.6132C86.1653 74.1349 85.7989 73.6383 85.7989 73.0312C85.7989 72.4242 86.1653 71.9276 86.6132 71.9276H86.6946C87.1425 71.9276 87.5089 72.4242 87.5089 73.0312C87.5089 73.6383 87.1506 74.1349 86.6946 74.1349ZM82.5416 74.1349C82.0938 74.1349 81.6866 73.6383 81.6866 73.0312C81.6866 72.4242 82.0123 71.9276 82.4602 71.9276H82.5416C82.9895 71.9276 83.3559 72.4242 83.3559 73.0312C83.3559 73.6383 82.9976 74.1349 82.5416 74.1349ZM78.3887 74.1349C77.9408 74.1349 77.5336 73.6383 77.5336 73.0312C77.5336 72.4242 77.8594 71.9276 78.3072 71.9276H78.3887C78.8365 71.9276 79.203 72.4242 79.203 73.0312C79.203 73.6383 78.8447 74.1349 78.3887 74.1349ZM74.2357 74.1349H74.1543C73.7064 74.1349 73.3399 73.6383 73.3399 73.0312C73.3399 72.4242 73.7064 71.9276 74.1543 71.9276H74.2357C74.6835 71.9276 75.05 72.4242 75.05 73.0312C75.05 73.6383 74.6917 74.1349 74.2357 74.1349ZM70.0827 74.1349C69.6348 74.1349 69.2277 73.6383 69.2277 73.0312C69.2277 72.4242 69.5534 71.9276 70.0013 71.9276H70.0827C70.5306 71.9276 70.897 72.4242 70.897 73.0312C70.897 73.6383 70.5387 74.1349 70.0827 74.1349ZM65.9297 74.1349H65.8483C65.4004 74.1349 65.034 73.6383 65.034 73.0312C65.034 72.4242 65.4004 71.9276 65.8483 71.9276H65.9297C66.3776 71.9276 66.744 72.4242 66.744 73.0312C66.744 73.6383 66.3858 74.1349 65.9297 74.1349ZM61.7768 74.1349C61.3289 74.1349 60.9217 73.6383 60.9217 73.0312C60.9217 72.4242 61.2475 71.9276 61.6953 71.9276H61.7768C62.2246 71.9276 62.5911 72.4242 62.5911 73.0312C62.5911 73.6383 62.2328 74.1349 61.7768 74.1349Z" fill="#DC0000"/>
</svg>
