<svg width="147" height="148" viewBox="0 0 147 148" fill="none" xmlns="http://www.w3.org/2000/svg">
<path d="M61.2138 37.4949H88.318V44.3777H67.6738V55.9661H74.2744C84.7369 55.9661 92.3906 62.4978 92.3906 71.4174C92.3906 80.6179 84.5964 87.2197 73.5722 87.2197C67.7441 87.2197 61.916 85.3235 57.6326 81.882L60.2307 75.9825C63.531 78.7918 68.3058 80.5476 72.9402 80.5476C80.1025 80.5476 85.2284 76.5443 85.2284 71.2067C85.2284 66.2201 80.7344 62.4978 74.485 62.4978H61.2138V37.4949Z" fill="#DC0000"/>
<path d="M55.2189 102.021V109.475H51.0058V96.3061H55.7455L59.274 101.705L62.7761 96.3061H67.5422V109.475H63.3291V101.969L60.064 107.368H58.484L55.2189 102.021Z" fill="#DC0000"/>
<path d="M69.9121 96.3061H74.1251V103.233L79.2598 96.3061H83.4729V109.475H79.2598V102.495L74.1251 109.475H69.9121V96.3061Z" fill="#DC0000"/>
<path d="M85.8428 96.3061H90.0559V101.047H94.7956V96.3061H99.0087V109.475H94.7956V104.734H90.0559V109.475H85.8428V96.3061Z" fill="#DC0000"/>
<path d="M71.65 135.198C71.6236 135.198 71.5973 135.198 71.571 135.198C70.6055 135.154 69.8155 134.337 69.8506 133.38C69.8857 132.423 70.6757 131.686 71.6148 131.686C71.6236 131.686 71.7202 131.686 71.729 131.686C72.6945 131.73 73.4493 132.546 73.4054 133.521C73.3527 134.46 72.5803 135.198 71.65 135.198ZM76.0913 135.171C75.1521 135.171 74.327 134.425 74.2919 133.486C74.2568 132.52 74.959 131.712 75.9245 131.668C75.9333 131.668 76.0298 131.668 76.0386 131.668C76.9953 131.651 77.8204 132.406 77.8467 133.372C77.873 134.337 77.1094 135.154 76.1439 135.18C76.1264 135.171 76.1088 135.171 76.0913 135.171ZM67.1999 134.89C67.1297 134.89 67.0594 134.89 66.9892 134.882C66.0325 134.767 65.304 133.898 65.4093 132.941C65.5146 131.984 66.3309 131.282 67.2876 131.387C67.2964 131.387 67.393 131.396 67.4018 131.396C68.3673 131.51 69.0519 132.388 68.9378 133.345C68.8412 134.241 68.0776 134.89 67.1999 134.89ZM80.5325 134.811C79.6548 134.811 78.8561 134.162 78.7508 133.266C78.6367 132.3 79.2774 131.44 80.2429 131.317L80.3307 131.308C81.2962 131.194 82.1651 131.888 82.2792 132.845C82.3933 133.802 81.6999 134.68 80.7432 134.794C80.6642 134.811 80.594 134.811 80.5325 134.811ZM62.7937 134.267C62.6796 134.267 62.5655 134.258 62.4514 134.232C61.5034 134.048 60.8451 133.126 61.0207 132.178C61.1962 131.229 62.0652 130.597 63.0131 130.764C63.0219 130.764 63.1184 130.782 63.1272 130.782C64.0752 130.966 64.6984 131.897 64.514 132.845C64.356 133.688 63.6188 134.267 62.7937 134.267ZM84.8422 134.144C84.0171 134.144 83.2798 133.565 83.1218 132.722C82.9375 131.774 83.5607 130.852 84.5087 130.668L84.8422 132.388L84.5877 130.65C85.5444 130.466 86.466 131.08 86.6503 132.037C86.8346 132.985 86.2202 133.916 85.2635 134.1L85.1757 134.118C85.0704 134.135 84.9563 134.144 84.8422 134.144ZM58.4489 133.31C58.2909 133.31 58.133 133.292 57.9837 133.249C57.0533 132.994 56.4653 132.02 56.711 131.089C56.9568 130.158 57.8696 129.588 58.8 129.834C58.8088 129.834 58.9054 129.86 58.9141 129.869C59.8445 130.123 60.3975 131.098 60.1342 132.028C59.9235 132.801 59.2213 133.31 58.4489 133.31ZM89.1782 133.134C88.4058 133.134 87.6948 132.625 87.4841 131.844C87.2296 130.905 87.7826 129.939 88.713 129.684L88.8007 129.658C89.7399 129.403 90.7054 129.956 90.9599 130.887C91.2145 131.826 90.6615 132.792 89.7311 133.047L89.6434 133.073C89.4854 133.117 89.3362 133.134 89.1782 133.134ZM54.1832 132.028C53.9989 132.028 53.8058 132.002 53.6214 131.932C53.6214 131.932 53.5337 131.905 53.5337 131.897C52.6208 131.581 52.1293 130.58 52.4453 129.667C52.7613 128.754 53.7531 128.262 54.6747 128.578L54.1042 130.237L54.7537 128.604C55.6753 128.912 56.1668 129.913 55.8509 130.834C55.5963 131.563 54.9205 132.028 54.1832 132.028ZM93.4966 131.774C92.7681 131.774 92.0747 131.335 91.8201 130.624C91.4954 129.711 91.9254 128.719 92.8383 128.394L92.9261 128.359C93.8389 128.034 94.8395 128.517 95.1643 129.43C95.489 130.343 95.0063 131.344 94.0934 131.668C93.9003 131.739 93.6985 131.774 93.4966 131.774ZM50.0315 130.431C49.8033 130.431 49.5663 130.387 49.3381 130.29L49.2504 130.255C48.3639 129.869 47.9513 128.833 48.3375 127.946C48.7237 127.059 49.7594 126.647 50.6459 127.033L49.9438 128.64L50.7162 127.059C51.6114 127.446 52.024 128.473 51.6378 129.368C51.3569 130.027 50.7074 130.431 50.0315 130.431ZM97.6307 130.114C96.9461 130.114 96.2878 129.737 96.0069 129.079C95.6207 128.201 95.9718 127.182 96.8495 126.787C96.8583 126.778 96.9461 126.743 96.9636 126.735C97.8589 126.348 98.8858 126.77 99.272 127.656C99.6582 128.552 99.2369 129.579 98.3504 129.965C98.1134 130.071 97.8764 130.114 97.6307 130.114ZM46.0115 128.525C45.7307 128.525 45.4498 128.455 45.1865 128.315C44.3351 127.858 43.9752 126.787 44.4229 125.927C44.8705 125.075 45.8887 124.724 46.7488 125.163C46.7576 125.163 46.8366 125.207 46.8454 125.216C47.6968 125.672 48.0215 126.735 47.5651 127.595C47.2404 128.183 46.6347 128.525 46.0115 128.525ZM101.624 128.157C100.992 128.157 100.378 127.832 100.062 127.244C99.6056 126.383 99.8864 125.347 100.747 124.891L100.826 124.847C101.686 124.39 102.748 124.715 103.204 125.567C103.661 126.418 103.336 127.49 102.485 127.946C102.212 128.086 101.914 128.157 101.624 128.157ZM42.1408 126.322C41.8248 126.322 41.5088 126.234 41.2279 126.059L41.1489 126.006C40.3239 125.497 40.0693 124.408 40.5872 123.592C41.0963 122.766 42.1847 122.512 43.0009 123.03L42.0793 124.522L43.0712 123.074C43.8962 123.583 44.1595 124.663 43.6505 125.488C43.3081 126.023 42.7288 126.322 42.1408 126.322ZM105.46 125.9C104.872 125.9 104.301 125.62 103.968 125.102C103.45 124.285 103.652 123.232 104.459 122.714C104.468 122.705 104.556 122.652 104.565 122.643C105.39 122.134 106.469 122.389 106.978 123.205C107.488 124.031 107.233 125.11 106.417 125.62C106.127 125.813 105.794 125.9 105.46 125.9ZM38.4543 123.837C38.0944 123.837 37.7258 123.723 37.4098 123.495C36.6374 122.916 36.4355 121.801 37.0061 121.019C37.5766 120.238 38.6386 120.045 39.4198 120.615L39.4988 120.677C40.28 121.256 40.438 122.354 39.8675 123.135C39.5164 123.592 38.9897 123.837 38.4543 123.837ZM109.12 123.363C108.585 123.363 108.049 123.126 107.716 122.67C107.145 121.897 107.259 120.835 108.032 120.247C108.041 120.238 108.12 120.177 108.128 120.177C108.909 119.606 110.007 119.781 110.577 120.563C111.148 121.344 110.972 122.442 110.191 123.012C109.866 123.249 109.489 123.363 109.12 123.363ZM34.9522 121.081C34.5484 121.081 34.1359 120.94 33.8024 120.651C33.0738 120.018 32.951 118.886 33.5829 118.149C34.2149 117.411 35.2769 117.297 36.0142 117.92C36.0142 117.92 36.0932 117.982 36.0932 117.991C36.8305 118.623 36.9095 119.729 36.2775 120.466C35.9352 120.879 35.4437 121.081 34.9522 121.081ZM112.578 120.572C112.087 120.572 111.595 120.37 111.262 119.983C110.63 119.255 110.674 118.184 111.393 117.552C111.402 117.543 111.481 117.481 111.49 117.473C112.227 116.849 113.333 116.937 113.965 117.674C114.588 118.412 114.501 119.527 113.763 120.15C113.412 120.422 112.991 120.572 112.578 120.572ZM31.6695 118.078C31.2306 118.078 30.7918 117.92 30.4582 117.587C30.4494 117.578 30.3792 117.508 30.3704 117.499C29.6858 116.814 29.6858 115.699 30.3704 115.014C31.0551 114.33 32.1698 114.33 32.8544 115.014L31.6168 116.252L32.8983 115.05C33.6005 115.717 33.618 116.832 32.951 117.534C32.5911 117.894 32.1347 118.078 31.6695 118.078ZM115.8 117.569C115.352 117.569 114.904 117.394 114.562 117.051C113.877 116.366 113.877 115.251 114.562 114.567L115.8 115.805L114.597 114.523C115.264 113.82 116.379 113.803 117.081 114.47C117.783 115.137 117.801 116.252 117.134 116.955C117.125 116.963 117.055 117.034 117.046 117.042C116.704 117.394 116.247 117.569 115.8 117.569ZM28.6238 114.83C28.1235 114.83 27.6319 114.619 27.2808 114.207C26.6577 113.469 26.7191 112.337 27.4476 111.713C28.1761 111.081 29.247 111.125 29.8789 111.845C29.8877 111.854 29.9491 111.933 29.9579 111.942C30.5811 112.679 30.4933 113.794 29.756 114.417C29.4225 114.698 29.0187 114.83 28.6238 114.83ZM118.819 114.242C118.424 114.242 118.02 114.11 117.704 113.838C116.967 113.206 116.853 112.144 117.476 111.406C117.476 111.406 117.538 111.327 117.546 111.327C118.178 110.59 119.284 110.511 120.021 111.143C120.759 111.775 120.838 112.881 120.206 113.619C119.846 114.022 119.328 114.242 118.819 114.242ZM25.8238 111.371C25.2796 111.371 24.7442 111.116 24.4019 110.651C23.8402 109.87 23.9718 108.746 24.753 108.175C25.5254 107.605 26.5874 107.719 27.1755 108.492C27.1843 108.5 27.2457 108.579 27.2457 108.588C27.8163 109.369 27.6407 110.467 26.8595 111.037C26.5348 111.266 26.1749 111.371 25.8238 111.371ZM121.575 110.748C121.224 110.748 120.864 110.642 120.566 110.423C119.785 109.852 119.591 108.79 120.162 108.009L120.223 107.93C120.803 107.148 121.9 106.982 122.681 107.561C123.462 108.14 123.62 109.238 123.05 110.019C122.681 110.493 122.128 110.748 121.575 110.748ZM23.2784 107.71C22.6903 107.71 22.1198 107.412 21.7863 106.876C21.2772 106.06 21.4966 104.945 22.3129 104.427C23.1204 103.909 24.1737 104.111 24.7003 104.918C24.7091 104.927 24.7618 105.015 24.7705 105.024C25.2796 105.849 25.0251 106.929 24.2088 107.438C23.9192 107.622 23.5944 107.71 23.2784 107.71ZM21.0227 103.874C20.3995 103.874 19.8026 103.549 19.4866 102.961C19.4866 102.952 19.434 102.873 19.434 102.864C18.9775 102.004 19.3023 100.941 20.1537 100.485C21.0139 100.028 22.0759 100.353 22.5323 101.205L20.9875 102.03L22.5675 101.258C23.0326 102.109 22.7254 103.171 21.874 103.645C21.602 103.803 21.3123 103.874 21.0227 103.874ZM126.271 103.25C125.99 103.25 125.709 103.18 125.446 103.04C124.594 102.583 124.27 101.521 124.726 100.661L126.271 101.486L124.744 100.625C125.183 99.7563 126.236 99.4139 127.105 99.8441C127.974 100.283 128.325 101.328 127.886 102.197C127.877 102.214 127.833 102.302 127.824 102.311C127.509 102.908 126.903 103.25 126.271 103.25ZM19.0565 99.8704C18.3719 99.8704 17.7312 99.4754 17.4415 98.8082C17.0641 97.9215 17.4503 96.8592 18.328 96.4729C19.2058 96.0866 20.2239 96.4378 20.6189 97.3157C20.6277 97.3245 20.6628 97.4123 20.6716 97.4298C21.0578 98.3253 20.6365 99.3525 19.7499 99.7388C19.5217 99.8265 19.2935 99.8704 19.0565 99.8704ZM128.176 99.1857C127.947 99.1857 127.728 99.1418 127.509 99.0452C126.622 98.6677 126.192 97.6844 126.569 96.7978C126.578 96.789 126.613 96.6924 126.622 96.6836C127.017 95.7969 128.053 95.4019 128.939 95.7882C129.826 96.1832 130.221 97.2191 129.826 98.1058C129.527 98.773 128.869 99.1857 128.176 99.1857ZM17.3976 95.7355C16.6779 95.7355 15.9933 95.2878 15.7387 94.5679C15.414 93.6548 15.8704 92.6101 16.7832 92.2853C17.6961 91.9605 18.6879 92.3906 19.0127 93.3037L19.0478 93.3915C19.3725 94.3045 18.8898 95.3053 17.9769 95.6301C17.7926 95.7004 17.5907 95.7355 17.3976 95.7355ZM129.799 95.077C129.606 95.077 129.422 95.0419 129.229 94.9805C128.316 94.6644 127.824 93.6636 128.14 92.7506L129.799 93.3212L128.167 92.6716C128.474 91.7498 129.475 91.2669 130.396 91.5742C131.318 91.8815 131.809 92.8823 131.493 93.8041C131.493 93.8041 131.467 93.8919 131.458 93.8919C131.204 94.6205 130.528 95.077 129.799 95.077ZM16.0547 91.4864C15.2823 91.4864 14.5714 90.9772 14.3607 90.1959L14.3344 90.1081C14.0798 89.1687 14.6328 88.203 15.5632 87.9484C16.5024 87.6938 17.4679 88.2469 17.7224 89.1775L17.7487 89.2653C18.0033 90.2047 17.4503 91.1703 16.5199 91.4249C16.3619 91.4601 16.2039 91.4864 16.0547 91.4864ZM131.09 90.8192C130.94 90.8192 130.782 90.8016 130.624 90.7577C129.685 90.5031 129.141 89.5374 129.396 88.5981L131.09 89.0634L129.404 88.563C129.641 87.6236 130.589 87.0442 131.529 87.2812C132.468 87.5095 133.047 88.4664 132.81 89.4057C132.81 89.4233 132.784 89.5199 132.775 89.5286C132.564 90.3012 131.862 90.8192 131.09 90.8192ZM15.0366 87.1495C14.2115 87.1495 13.483 86.5701 13.3162 85.7361L13.2987 85.6483C13.1143 84.7001 13.7375 83.7783 14.6855 83.594C15.6422 83.4096 16.555 84.0329 16.7393 84.9811L15.019 85.3147L16.7569 85.0601C16.9412 86.0082 16.3268 86.9388 15.3701 87.1232C15.2648 87.1407 15.1507 87.1495 15.0366 87.1495ZM132.046 86.4296C131.95 86.4296 131.844 86.4208 131.748 86.4033C130.791 86.2277 130.15 85.3586 130.326 84.4104L130.344 84.3226C130.519 83.3657 131.432 82.7336 132.389 82.9092C133.345 83.0848 133.977 83.9978 133.802 84.9547C133.635 85.7975 132.889 86.4296 132.046 86.4296ZM14.3431 82.7512C13.4654 82.7512 12.7106 82.0927 12.6053 81.1973C12.4911 80.2316 13.1758 79.3186 14.1413 79.2044C15.1068 79.0991 15.9669 79.7312 16.0898 80.6969L16.0986 80.7847C16.2127 81.7504 15.5193 82.6195 14.5626 82.7336C14.4836 82.7424 14.4134 82.7512 14.3431 82.7512ZM132.696 82.0664C132.626 82.0664 132.555 82.0664 132.485 82.0576C131.52 81.9435 130.835 81.0744 130.949 80.1087L132.696 80.3106L130.958 80.0648C131.055 79.0991 131.906 78.3967 132.871 78.4758C133.837 78.5635 134.548 79.4151 134.46 80.372C134.46 80.3896 134.451 80.4949 134.443 80.5037C134.328 81.408 133.574 82.0664 132.696 82.0664ZM13.9833 78.309C13.0529 78.309 12.2717 77.5715 12.2278 76.6321C12.1839 75.6665 12.93 74.7973 13.9043 74.7534C14.8786 74.7095 15.6948 75.4206 15.73 76.3863V76.4741C15.7738 77.4398 15.019 78.2651 14.0535 78.309C14.0359 78.309 14.0096 78.309 13.9833 78.309ZM132.994 77.5803C132.977 77.5803 132.959 77.5803 132.942 77.5803C131.976 77.5539 131.213 76.7902 131.239 75.8157V75.7279C131.239 75.7191 131.239 75.7103 131.239 75.6928C131.239 75.684 131.239 75.6752 131.239 75.6664V75.5787C131.265 74.6129 132.09 73.8579 133.047 73.8755C134.012 73.9018 134.776 74.7095 134.75 75.684C134.75 75.7103 134.75 75.7367 134.75 75.7542C134.75 75.7806 134.75 75.7981 134.75 75.8245C134.732 76.7814 133.942 77.5803 132.994 77.5803ZM13.9569 73.8579C13.9131 73.8579 13.8692 73.8579 13.8165 73.8492C12.8773 73.7789 12.1752 72.9888 12.1927 72.0582V71.9529C12.2278 70.9872 13.0441 70.2322 14.0096 70.2585C14.9751 70.2936 15.7387 71.1101 15.7036 72.0758L13.9482 72.0143L15.7036 72.1197L15.6948 72.2426C15.6422 73.1556 14.8698 73.8579 13.9569 73.8579ZM132.977 73.0239C132.029 73.0239 131.248 72.2689 131.221 71.3208L132.977 71.2681L131.221 71.2857C131.169 70.32 131.915 69.4859 132.88 69.4333C133.863 69.3894 134.671 70.1093 134.732 71.075C134.732 71.0925 134.741 71.1979 134.741 71.2154C134.767 72.1811 134.004 72.9976 133.038 73.0239C133.012 73.0239 132.994 73.0239 132.977 73.0239ZM14.2642 69.4157C14.2027 69.4157 14.1413 69.4157 14.0798 69.4069C13.1143 69.3104 12.4121 68.4412 12.5175 67.4755C12.614 66.5098 13.483 65.7724 14.4485 65.869C15.414 65.9655 16.1162 66.7908 16.0196 67.7477L16.0108 67.8355C15.9055 68.7485 15.1507 69.4157 14.2642 69.4157ZM132.599 68.5466C131.73 68.5466 130.984 67.932 130.879 67.0453L130.87 66.9576C130.756 65.9919 131.45 65.1227 132.406 65.0086C133.363 64.8945 134.241 65.5792 134.355 66.5449C134.469 67.5106 133.784 68.4237 132.819 68.5378C132.749 68.5378 132.67 68.5466 132.599 68.5466ZM14.8873 65.0086C14.782 65.0086 14.6767 64.9998 14.5714 64.9823C13.6146 64.8067 12.9827 63.8937 13.1582 62.9367C13.3338 61.9886 14.2466 61.3126 15.2033 61.4794C16.16 61.655 16.8008 62.5241 16.6252 63.4723L16.6077 63.5601C16.4585 64.4116 15.7212 65.0086 14.8873 65.0086ZM131.906 64.1483C131.098 64.1483 130.387 63.6127 130.212 62.7963C130.212 62.7787 130.186 62.6821 130.186 62.6646C130.01 61.7077 130.642 60.7946 131.599 60.619C132.555 60.4435 133.468 61.0756 133.644 62.0325C133.819 62.9806 133.205 63.9288 132.266 64.1131C132.143 64.1395 132.02 64.1483 131.906 64.1483ZM15.8353 60.6629C15.6861 60.6629 15.5369 60.6454 15.3876 60.6015C14.4485 60.3557 13.8867 59.3988 14.1325 58.4594C14.3783 57.52 15.3438 56.9143 16.2829 57.1601C17.2221 57.4059 17.7926 58.3189 17.5556 59.2583L17.5293 59.3461C17.3274 60.1362 16.6165 60.6629 15.8353 60.6629ZM130.914 59.8553C130.142 59.8553 129.431 59.3461 129.22 58.5647L130.914 58.0994L129.203 58.4857C128.948 57.5551 129.492 56.5807 130.423 56.3261C131.362 56.0627 132.327 56.6158 132.582 57.5464L132.608 57.6342C132.863 58.5735 132.31 59.5392 131.379 59.7938C131.221 59.8377 131.063 59.8553 130.914 59.8553ZM17.1168 56.3963C16.9324 56.3963 16.7393 56.37 16.555 56.2997C15.6334 55.9925 15.1419 54.9916 15.4579 54.0698C15.4579 54.0698 15.4842 53.982 15.493 53.982C15.809 53.069 16.8008 52.5774 17.7224 52.8934C18.6352 53.2095 19.1268 54.2103 18.8108 55.1233L17.1519 54.5527L18.7844 55.2023C18.5299 55.931 17.8453 56.3963 17.1168 56.3963ZM18.7142 52.235C18.4948 52.235 18.2666 52.1911 18.0472 52.1033C17.1519 51.7346 16.7218 50.7074 17.0904 49.812C17.0904 49.8032 17.1343 49.7154 17.1343 49.6978C17.5205 48.8111 18.5562 48.3985 19.4427 48.7848C20.3292 49.1711 20.7418 50.207 20.3556 51.0937L18.7493 50.3914L20.338 51.1376C20.0572 51.8312 19.3989 52.235 18.7142 52.235ZM127.877 51.4361C127.219 51.4361 126.604 51.0762 126.315 50.4353L126.271 50.3475C125.876 49.4608 126.28 48.4249 127.157 48.0298C128.044 47.6348 129.08 48.0386 129.475 48.9253C129.878 49.812 129.501 50.883 128.614 51.2869C128.377 51.3834 128.123 51.4361 127.877 51.4361ZM20.6101 48.2142C20.3292 48.2142 20.0484 48.1439 19.7851 48.0035C18.9337 47.547 18.6089 46.4847 19.0653 45.6243C19.5217 44.7728 20.5926 44.404 21.4527 44.8605C22.3041 45.3083 22.664 46.3267 22.2164 47.187C22.2164 47.1958 22.1725 47.2748 22.1637 47.2836C21.8477 47.8806 21.2421 48.2142 20.6101 48.2142ZM125.902 47.4416C125.288 47.4416 124.709 47.1256 124.401 46.5374L124.357 46.4583C123.901 45.6068 124.226 44.5357 125.077 44.0792C125.937 43.6227 126.999 43.9475 127.456 44.7991C127.912 45.6595 127.605 46.7568 126.754 47.2134C126.482 47.3714 126.192 47.4416 125.902 47.4416ZM22.8132 44.3514C22.4972 44.3514 22.1813 44.2636 21.9004 44.088C21.0753 43.5788 20.812 42.499 21.3211 41.6737L21.3737 41.5947C21.8828 40.7695 22.9712 40.5149 23.7875 41.0329C24.6126 41.542 24.8671 42.6307 24.3492 43.4471L22.8571 42.5253L24.3054 43.5173C23.9806 44.0529 23.4013 44.3514 22.8132 44.3514ZM123.69 43.6227C123.111 43.6227 122.541 43.333 122.207 42.8062L123.69 41.8669L122.172 42.7536C121.637 41.9459 121.865 40.8573 122.681 40.3218C123.489 39.7862 124.577 40.0145 125.112 40.8309C125.121 40.8397 125.174 40.9187 125.174 40.9275C125.692 41.744 125.446 42.8326 124.63 43.3505C124.34 43.5349 124.015 43.6227 123.69 43.6227ZM25.2972 40.6554C24.9373 40.6554 24.5687 40.5412 24.2527 40.313C23.4715 39.7336 23.3135 38.6362 23.884 37.8548C24.4633 37.0823 25.5781 36.8803 26.3592 37.451C27.1404 38.0216 27.3335 39.0839 26.763 39.8652L26.7015 39.9443C26.3592 40.4095 25.8326 40.6554 25.2972 40.6554ZM121.154 39.9618C120.618 39.9618 120.083 39.716 119.741 39.2507L121.154 38.206L119.706 39.198C119.117 38.4255 119.267 37.3281 120.039 36.7399C120.811 36.1517 121.909 36.3009 122.497 37.0735C122.505 37.0823 122.558 37.1613 122.567 37.1613C123.146 37.9426 122.979 39.04 122.198 39.6194C121.882 39.8477 121.522 39.9618 121.154 39.9618ZM28.0445 37.1525C27.6407 37.1525 27.2282 37.012 26.8946 36.7223C26.1574 36.0902 26.0784 34.9841 26.7103 34.2466C27.3423 33.5179 28.4746 33.395 29.2118 34.0271C29.9491 34.6592 30.0632 35.7215 29.4401 36.4589C29.4401 36.4589 29.3786 36.538 29.3698 36.538C29.0275 36.9506 28.536 37.1525 28.0445 37.1525ZM118.31 36.4853C117.845 36.4853 117.38 36.2921 117.037 35.9059C117.028 35.8971 116.967 35.8181 116.958 35.8093C116.335 35.0718 116.423 33.9569 117.16 33.3336C117.897 32.7103 119.003 32.7981 119.635 33.5355C120.258 34.2729 120.197 35.4054 119.469 36.0288C119.135 36.336 118.714 36.4853 118.31 36.4853ZM31.0551 33.8691C30.6162 33.8691 30.1773 33.7111 29.8438 33.3775C29.1416 32.7103 29.1241 31.5953 29.7911 30.893C29.7999 30.8842 29.8701 30.814 29.8789 30.8052C30.5635 30.1204 31.6783 30.1204 32.3629 30.8052C33.0475 31.49 33.0475 32.6049 32.3629 33.2897L31.1253 32.0518L32.3278 33.3336C31.9767 33.6847 31.5115 33.8691 31.0551 33.8691ZM115.299 33.2546C114.852 33.2546 114.404 33.079 114.062 32.7366L115.299 31.4987L114.018 32.7015C113.316 32.0343 113.298 30.9193 113.965 30.217C114.632 29.5147 115.747 29.4971 116.449 30.1643C116.458 30.1731 116.528 30.2433 116.537 30.2521C117.222 30.9369 117.222 32.0518 116.537 32.7366C116.203 33.0878 115.756 33.2546 115.299 33.2546ZM34.2939 30.814C33.7936 30.814 33.3021 30.6033 32.951 30.1907C32.3278 29.4532 32.4156 28.3383 33.1528 27.715C33.8901 27.0916 35.0136 27.1531 35.6456 27.8818C36.2775 28.6104 36.2337 29.6815 35.5139 30.3136C35.5051 30.3223 35.4262 30.3838 35.4174 30.3926C35.0926 30.6823 34.6976 30.814 34.2939 30.814ZM111.982 30.2433C111.595 30.2433 111.209 30.1117 110.893 29.8395C110.893 29.8395 110.814 29.778 110.814 29.7693C110.077 29.1372 109.998 28.031 110.63 27.2936C111.262 26.5561 112.368 26.4771 113.105 27.1092C113.834 27.7413 113.956 28.8738 113.324 29.6112C112.965 30.0239 112.473 30.2433 111.982 30.2433ZM37.7521 28.0134C37.2079 28.0134 36.6725 27.7588 36.3302 27.2936C35.7597 26.5122 35.9352 25.4148 36.7164 24.8442C37.4976 24.2823 38.6211 24.4228 39.1916 25.1953C39.7621 25.9679 39.648 27.0302 38.8756 27.6184C38.8668 27.6272 38.7878 27.6886 38.7791 27.6886C38.4719 27.8993 38.112 28.0134 37.7521 28.0134ZM108.488 27.4867C108.146 27.4867 107.795 27.3813 107.496 27.1619L107.417 27.1004C106.636 26.521 106.478 25.4236 107.049 24.6423C107.628 23.8609 108.725 23.7029 109.506 24.2735C110.279 24.853 110.481 25.9679 109.91 26.7493C109.559 27.2321 109.024 27.4867 108.488 27.4867ZM41.4123 25.4675C40.8242 25.4675 40.2537 25.169 39.9201 24.6335C39.411 23.8083 39.6656 22.7284 40.4819 22.2192C41.2981 21.71 42.4129 21.9383 42.9307 22.746C43.4486 23.5624 43.2467 24.6159 42.4392 25.1339C42.4304 25.1427 42.3426 25.1954 42.3339 25.2041C42.0442 25.3885 41.7282 25.4675 41.4123 25.4675ZM104.828 25.011C104.512 25.011 104.196 24.9232 103.906 24.7476L104.828 23.2552L103.836 24.7037C103.011 24.1945 102.748 23.1147 103.257 22.2895C103.766 21.4642 104.846 21.2009 105.671 21.71L105.75 21.7627C106.575 22.2719 106.829 23.3605 106.311 24.177C105.995 24.7125 105.416 25.011 104.828 25.011ZM45.2479 23.2113C44.6247 23.2113 44.0279 22.8864 43.7119 22.2982C43.2467 21.4467 43.5539 20.3844 44.4053 19.9103C44.4141 19.9103 44.4931 19.8577 44.5019 19.8577C45.3532 19.4011 46.4241 19.726 46.8805 20.5775C47.3369 21.4291 47.0121 22.5002 46.1608 22.9567L45.3357 21.4116L46.1081 22.9918C45.8272 23.141 45.5376 23.2113 45.2479 23.2113ZM100.94 22.8074C100.676 22.8074 100.413 22.746 100.159 22.6143C100.15 22.6143 100.071 22.5704 100.062 22.5616C99.2106 22.1051 98.8858 21.0428 99.3422 20.1825C99.7987 19.3221 100.861 19.0061 101.721 19.4626C102.572 19.9191 102.932 20.9902 102.485 21.8505C102.169 22.4475 101.572 22.8074 100.94 22.8074ZM49.2416 21.2448C48.557 21.2448 47.9162 20.8497 47.6266 20.1825C47.2404 19.287 47.6617 18.2599 48.5482 17.8736C49.4347 17.4961 50.4967 17.8824 50.8829 18.7603C51.2691 19.6382 50.918 20.6566 50.0403 21.0516C50.0315 21.0604 49.9438 21.0955 49.9262 21.1043C49.7068 21.1921 49.4786 21.2448 49.2416 21.2448ZM96.946 20.9024C96.7091 20.9024 96.4721 20.8585 96.2439 20.7531L96.946 19.1465L96.2 20.7356C95.3047 20.3668 94.8746 19.3397 95.2433 18.4442C95.6119 17.5487 96.6388 17.1186 97.5341 17.4873C97.5429 17.4873 97.6307 17.5312 97.6482 17.5312C98.5347 17.9175 98.9473 18.9534 98.5611 19.8401C98.2714 20.5073 97.6219 20.9024 96.946 20.9024ZM53.3757 19.5767C52.6559 19.5767 51.9713 19.129 51.7168 18.4091C51.392 17.4961 51.8748 16.4953 52.7876 16.1704C53.7004 15.8456 54.7449 16.3021 55.0697 17.2151C55.3944 18.1282 54.9644 19.1202 54.0515 19.445L53.9637 19.4802C53.7706 19.5504 53.5776 19.5767 53.3757 19.5767ZM92.7944 19.3046C92.6013 19.3046 92.417 19.2695 92.2239 19.208L92.7944 17.5487L92.1449 19.1817C91.2233 18.8744 90.7317 17.8736 91.0477 16.9518C91.3637 16.03 92.3555 15.5383 93.2771 15.8544C93.2771 15.8544 93.3649 15.8807 93.3649 15.8895C94.2778 16.2055 94.7693 17.2064 94.4533 18.1194C94.2075 18.8481 93.5229 19.3046 92.7944 19.3046ZM57.6326 18.2335C56.8602 18.2335 56.1581 17.7243 55.9386 16.943C55.6841 16.0124 56.2283 15.0379 57.1587 14.7833L57.2464 14.757C58.1856 14.5024 59.1511 15.0555 59.4057 15.9861C59.6602 16.9254 59.1072 17.8911 58.1768 18.1457L57.7116 16.4514L58.0978 18.1633C57.9399 18.216 57.7819 18.2335 57.6326 18.2335ZM88.5199 18.0228C88.3794 18.0228 88.2302 18.0053 88.0898 17.9701L88.002 17.9438C87.0628 17.698 86.5011 16.7411 86.7469 15.8017C86.9926 14.8623 87.9493 14.3005 88.8885 14.5463C89.8277 14.7921 90.4333 15.7578 90.1875 16.6972C89.9857 17.4873 89.301 18.0228 88.5199 18.0228ZM61.9598 17.2151C61.1348 17.2151 60.4063 16.6357 60.2395 15.8017C60.0552 14.8536 60.6696 13.923 61.6263 13.7386L61.7141 13.7211C62.662 13.5367 63.5836 14.16 63.768 15.1082C63.9523 16.0563 63.3291 16.9781 62.3812 17.1625L62.0476 15.4418L62.3022 17.18C62.1881 17.1976 62.0739 17.2151 61.9598 17.2151ZM84.1839 17.0571C84.0786 17.0571 83.982 17.0483 83.8767 17.0308L83.7889 17.0132C82.8322 16.8464 82.2002 15.9334 82.367 14.9765C82.5338 14.0195 83.4466 13.3875 84.4033 13.5543C85.36 13.7211 86.0359 14.6429 85.8691 15.5998C85.7199 16.4601 85.009 17.0571 84.1839 17.0571ZM66.3573 16.5216C65.4795 16.5216 64.7247 15.8632 64.6194 14.9677C64.5053 14.002 65.1987 13.1329 66.1554 13.0187C67.1209 12.9046 68.0337 13.5894 68.1478 14.5551C68.2619 15.5208 67.6212 16.3811 66.6557 16.504L66.5679 16.5128C66.4977 16.5128 66.4275 16.5216 66.3573 16.5216ZM79.7777 16.4338C79.7163 16.4338 79.6548 16.4338 79.5934 16.425L79.5056 16.4162C78.5401 16.3197 77.8379 15.4505 77.9433 14.4848C78.0486 13.5191 78.9088 12.8256 79.8743 12.9222C80.8398 13.0187 81.577 13.8879 81.4805 14.8536C81.3839 15.7578 80.6642 16.4338 79.7777 16.4338ZM70.7986 16.1616C69.8682 16.1616 69.087 15.4242 69.0431 14.4848C68.9992 13.5191 69.7541 12.6939 70.7196 12.65C71.6938 12.6061 72.554 13.3523 72.5979 14.3268C72.6418 15.2925 71.9308 16.1178 70.9653 16.1529H70.8776C70.8512 16.1529 70.8249 16.1616 70.7986 16.1616ZM124.068 107.157C123.41 107.157 122.795 106.797 122.505 106.156L122.462 106.068C122.067 105.182 122.47 104.146 123.348 103.751C124.235 103.356 125.27 103.76 125.665 104.646C126.069 105.533 125.692 106.604 124.805 107.008C124.568 107.104 124.314 107.157 124.068 107.157ZM129.598 55.5623C128.939 55.5623 128.325 55.2023 128.035 54.5615L127.991 54.4737C127.596 53.587 128 52.551 128.878 52.156C129.764 51.7609 130.8 52.1648 131.195 53.0515C131.599 53.9382 131.221 55.0092 130.335 55.413C130.098 55.5096 129.843 55.5623 129.598 55.5623Z" fill="#DC0000"/>
<path d="M69.2713 147.225C67.7265 147.137 66.1642 146.997 64.6281 146.804L65.6902 138.086C67.0419 138.253 68.4199 138.376 69.7804 138.455L69.2713 147.225Z" fill="#DC0000"/>
<path d="M75.8104 147.313L75.5383 138.534C76.8988 138.49 78.2768 138.402 79.6373 138.279L80.4623 147.023C78.9175 147.163 77.3552 147.26 75.8104 147.313Z" fill="#DC0000"/>
<path d="M58.1856 145.724C56.6672 145.399 55.1487 145.021 53.6565 144.609L56.0264 136.154C57.343 136.523 58.6859 136.857 60.0201 137.138L58.1856 145.724Z" fill="#DC0000"/>
<path d="M86.94 146.11L85.3337 137.48C86.6766 137.234 88.0196 136.936 89.3449 136.602L91.5041 145.109C89.9944 145.487 88.4584 145.829 86.94 146.11Z" fill="#DC0000"/>
<path d="M47.4598 142.572C46.0115 142.019 44.5633 141.422 43.1502 140.781L46.7664 132.783C48.004 133.345 49.2855 133.872 50.5669 134.364L47.4598 142.572Z" fill="#DC0000"/>
<path d="M97.7536 143.222L94.8395 134.943C96.1298 134.486 97.42 133.995 98.6664 133.459L102.098 141.536C100.676 142.133 99.2106 142.704 97.7536 143.222Z" fill="#DC0000"/>
<path d="M37.322 137.823C35.9703 137.059 34.6274 136.242 33.3284 135.399L38.1208 128.043C39.2618 128.789 40.4468 129.509 41.6317 130.176L37.322 137.823Z" fill="#DC0000"/>
<path d="M107.988 138.718L103.854 130.975C104.389 130.685 104.925 130.395 105.451 130.097C106.645 129.421 107.821 128.692 108.962 127.955L113.772 135.294C112.482 136.137 111.148 136.953 109.796 137.726C109.199 138.06 108.593 138.393 107.988 138.718Z" fill="#DC0000"/>
<path d="M28.0269 131.589C26.8069 130.632 25.6044 129.623 24.4546 128.587L30.3178 122.055C31.3359 122.968 32.3892 123.855 33.46 124.698L28.0269 131.589Z" fill="#DC0000"/>
<path d="M119.082 131.466L113.64 124.575C114.72 123.723 115.773 122.837 116.774 121.924L122.646 128.446C121.505 129.491 120.302 130.501 119.082 131.466Z" fill="#DC0000"/>
<path d="M19.7851 124.004C18.7318 122.872 17.6961 121.687 16.713 120.484L23.5066 114.927C24.3668 115.98 25.2796 117.025 26.21 118.017L19.7851 124.004Z" fill="#DC0000"/>
<path d="M127.307 123.873L120.873 117.903C121.803 116.902 122.707 115.857 123.568 114.804L130.37 120.352C129.396 121.546 128.36 122.731 127.307 123.873Z" fill="#DC0000"/>
<path d="M12.8071 115.251C11.9382 113.978 11.0956 112.653 10.3056 111.31L17.8628 106.841C18.5562 108.017 19.3023 109.185 20.0659 110.309L12.8071 115.251Z" fill="#DC0000"/>
<path d="M134.276 115.102L127.008 110.186C127.772 109.053 128.509 107.886 129.203 106.709L136.769 111.152C135.979 112.486 135.145 113.82 134.276 115.102Z" fill="#DC0000"/>
<path d="M7.23356 105.551C6.56649 104.155 5.93452 102.715 5.35522 101.284L13.4918 98.0005C14.0008 99.2647 14.5538 100.529 15.1507 101.758L7.23356 105.551Z" fill="#DC0000"/>
<path d="M139.814 105.375L131.88 101.617C132.468 100.38 133.012 99.1154 133.521 97.8512L141.675 101.1C141.104 102.539 140.481 103.979 139.814 105.375Z" fill="#DC0000"/>
<path d="M3.18724 95.1209C2.7396 93.6373 2.33584 92.1185 1.97598 90.6085L10.525 88.6068C10.8322 89.9325 11.1921 91.2669 11.5871 92.575L3.18724 95.1209Z" fill="#DC0000"/>
<path d="M143.825 94.9278L135.417 92.417C135.803 91.1089 136.163 89.7745 136.47 88.44L145.019 90.4241C144.668 91.9341 144.264 93.4529 143.825 94.9278Z" fill="#DC0000"/>
<path d="M0.773489 84.191C0.554058 82.6546 0.38729 81.0919 0.273185 79.5556L9.02412 78.8884C9.12945 80.2404 9.27867 81.6187 9.47177 82.9707L0.773489 84.191Z" fill="#DC0000"/>
<path d="M146.204 83.9978L137.515 82.7863C137.699 81.4343 137.848 80.0648 137.953 78.704L146.704 79.3624C146.582 80.9076 146.415 82.4615 146.204 83.9978Z" fill="#DC0000"/>
<path d="M0.0625305 73.0152C0.0713078 72.585 0.0800851 72.1548 0.0888623 71.7246C0.123971 70.6009 0.185412 69.4684 0.273185 68.3447L9.02412 69.0207C8.94513 70.0039 8.89246 71.0047 8.86613 71.988C8.84858 72.3743 8.8398 72.7518 8.8398 73.1293L0.0625305 73.0152Z" fill="#DC0000"/>
<path d="M138.129 72.9537C138.111 71.5842 138.05 70.2058 137.945 68.8451L146.696 68.1603C146.818 69.7054 146.889 71.2681 146.906 72.822L138.129 72.9537Z" fill="#DC0000"/>
<path d="M9.71753 63.3142L1.06314 61.8745C1.31768 60.3469 1.62488 58.8018 1.97598 57.3005L10.5163 59.2846C10.2091 60.6103 9.93696 61.971 9.71753 63.3142Z" fill="#DC0000"/>
<path d="M137.234 63.1387C137.006 61.7867 136.733 60.4347 136.417 59.1178L144.958 57.0986C145.309 58.5999 145.625 60.145 145.879 61.6813L137.234 63.1387Z" fill="#DC0000"/>
<path d="M12.0698 53.7362L3.73143 50.9972C4.21418 49.5223 4.74959 48.0474 5.32889 46.6076L13.483 49.8646C12.9651 51.1464 12.4911 52.4457 12.0698 53.7362Z" fill="#DC0000"/>
<path d="M134.855 53.5782C134.425 52.2877 133.951 50.9884 133.433 49.7242L141.57 46.432C142.149 47.8718 142.693 49.3467 143.185 50.8128L134.855 53.5782Z" fill="#DC0000"/>
<path d="M15.8441 44.6323L8.01474 40.6641C8.71692 39.2858 9.47176 37.9075 10.2529 36.5731L17.8189 41.0329C17.1255 42.2005 16.4585 43.412 15.8441 44.6323Z" fill="#DC0000"/>
<path d="M131.046 44.4918C130.598 43.6227 130.133 42.7623 129.65 41.9196C129.457 41.5772 129.255 41.2348 129.053 40.8924L136.602 36.4063C136.83 36.7925 137.058 37.1788 137.278 37.5739C137.822 38.5308 138.348 39.5141 138.858 40.4886L131.046 44.4918Z" fill="#DC0000"/>
<path d="M20.9524 36.2043L13.8165 31.0861C14.7206 29.8219 15.6773 28.5753 16.6516 27.3813L23.4452 32.9473C22.585 34.0008 21.7424 35.0982 20.9524 36.2043Z" fill="#DC0000"/>
<path d="M125.902 36.0727C125.104 34.9577 124.261 33.8603 123.401 32.8156L130.177 27.2409C131.16 28.4348 132.117 29.6815 133.021 30.9457L125.902 36.0727Z" fill="#DC0000"/>
<path d="M27.2896 28.6631L21.0227 22.5177C22.111 21.4116 23.2433 20.3229 24.3931 19.287L30.2563 25.8187C29.2382 26.7317 28.2376 27.6886 27.2896 28.6631Z" fill="#DC0000"/>
<path d="M119.556 28.5402C118.6 27.5657 117.599 26.6088 116.581 25.7045L122.435 19.1641C123.585 20.1913 124.726 21.2799 125.814 22.386L119.556 28.5402Z" fill="#DC0000"/>
<path d="M34.7064 22.1753L29.4488 15.1433C30.6864 14.2127 31.9767 13.3172 33.2669 12.4656L38.0681 19.8138C36.9271 20.56 35.7948 21.3589 34.7064 22.1753Z" fill="#DC0000"/>
<path d="M112.131 22.0612C111.034 21.2448 109.901 20.4546 108.76 19.7172L113.544 12.3603C114.843 13.2031 116.133 14.0986 117.371 15.0291L112.131 22.0612Z" fill="#DC0000"/>
<path d="M43.0273 16.8815L38.8844 9.13836C40.2537 8.4097 41.658 7.70737 43.0624 7.06649L46.7049 15.0555C45.4674 15.6261 44.2298 16.2407 43.0273 16.8815Z" fill="#DC0000"/>
<path d="M103.801 16.8025C102.599 16.1616 101.361 15.5559 100.115 14.994L103.722 6.98748C105.135 7.62836 106.548 8.31313 107.909 9.04179L103.801 16.8025Z" fill="#DC0000"/>
<path d="M52.0415 12.9046L49.1187 4.6259C50.5845 4.10793 52.0766 3.63386 53.5688 3.21247L55.9562 11.658C54.6396 12.0355 53.323 12.4481 52.0415 12.9046Z" fill="#DC0000"/>
<path d="M94.7693 12.8607C93.479 12.413 92.1624 12.0004 90.8458 11.6316L93.2069 3.17735C94.6991 3.58997 96.1912 4.06404 97.657 4.57323L94.7693 12.8607Z" fill="#DC0000"/>
<path d="M61.5473 10.3499L59.9235 1.72002C61.4508 1.43031 63.0043 1.19327 64.5316 1.00891L65.5936 9.72656C64.2507 9.88459 62.8902 10.0953 61.5473 10.3499Z" fill="#DC0000"/>
<path d="M85.2459 10.3323C83.903 10.0865 82.5338 9.87581 81.1821 9.709L82.2353 0.991351C83.7714 1.17571 85.3249 1.41275 86.8522 1.69368L85.2459 10.3323Z" fill="#DC0000"/>
<path d="M71.334 9.27883L71.0531 0.5085C72.5803 0.455825 74.1251 0.455825 75.6612 0.5085L75.4505 9.28761H75.3891C74.0462 9.23493 72.6769 9.23493 71.334 9.27883Z" fill="#DC0000"/>
<path d="M75.2311 16.1529C74.5728 16.1529 73.9584 15.7929 73.6687 15.1521L73.6248 15.0643C73.2299 14.1776 73.6336 13.1416 74.5113 12.7466C75.3978 12.3515 76.4336 12.7554 76.8285 13.642C77.2323 14.5287 76.8549 15.5998 75.9684 16.0036C75.7314 16.1002 75.4768 16.1529 75.2311 16.1529Z" fill="#DC0000"/>
</svg>
