<svg width="225" height="225" viewBox="0 0 225 225" fill="none" xmlns="http://www.w3.org/2000/svg">
<path fill-rule="evenodd" clip-rule="evenodd" d="M196.942 143.529C196.397 142.868 195.833 142.191 195.244 141.464L210.258 137.69C211.668 137.329 212.514 135.913 212.171 134.503C211.81 133.095 210.393 132.25 208.98 132.594L191.666 136.944C190.631 135.614 189.55 134.217 188.424 132.755L201.992 127.421C203.342 126.888 204.009 125.353 203.477 124.006C202.944 122.658 201.407 121.993 200.057 122.525L185.104 128.398L182.709 125.224L195.531 119.202C196.85 118.584 197.404 117.011 196.788 115.711C196.169 114.394 194.594 113.842 193.293 114.458L179.477 120.98L177.021 117.761L189.077 111.036C190.348 110.335 190.806 108.722 190.087 107.455C189.384 106.185 187.769 105.729 186.5 106.448L173.792 113.534C172.973 112.461 172.152 111.371 171.313 110.282L182.6 102.838C183.821 102.036 184.15 100.405 183.347 99.1853C182.544 97.966 180.911 97.6381 179.689 98.4406L168.089 106.091C167.253 105.021 166.414 103.932 165.557 102.847L176.07 94.6473C177.224 93.7463 177.424 92.0974 176.522 90.946C175.62 89.7947 173.969 89.5954 172.815 90.4963L162.303 98.6958C161.449 97.6277 160.612 96.5572 159.738 95.4739L169.439 86.5067C170.507 85.5097 170.579 83.8429 169.581 82.7772C168.583 81.7114 166.916 81.6584 165.846 82.6377L156.415 91.3507C155.561 90.2826 154.692 89.2347 153.823 88.1868L162.707 78.4163C163.692 77.3411 163.602 75.6791 162.528 74.7141C161.451 73.7314 159.787 73.8221 158.82 74.8949L150.434 84.1089C149.567 83.0786 148.701 82.0484 147.834 81.0181L155.882 70.4293C156.765 69.2782 156.531 67.6185 155.379 66.7366C154.226 65.8547 152.564 66.0891 151.68 67.2402L144.317 76.9223C143.455 75.9274 142.575 74.9349 141.714 73.94L148.886 62.5201C149.652 61.2957 149.279 59.6736 148.05 58.8925C146.824 58.129 145.2 58.5022 144.417 59.729L138.055 69.8641C137.18 68.907 136.308 67.9675 135.436 67.028L141.679 54.7669C142.343 53.4667 141.831 51.8823 140.532 51.2372C139.23 50.5744 137.643 51.0864 136.979 52.3866L131.583 62.9796C130.716 62.0754 129.834 61.1914 128.969 60.3049L134.266 47.2228C134.817 45.8846 134.166 44.3377 132.826 43.7884C131.486 43.239 129.937 43.8897 129.386 45.2279L124.906 56.3041C124.029 55.4554 123.137 54.6268 122.262 53.7958L126.563 39.9177C126.998 38.5238 126.213 37.0499 124.837 36.6316C123.441 36.1982 121.962 36.965 121.545 38.3564L117.948 49.9383C117.043 49.1475 116.123 48.377 115.225 47.6392L118.52 33.0206C118.844 31.6064 117.943 30.2029 116.526 29.8804C115.11 29.5579 113.704 30.4585 113.381 31.8727L110.641 44.0359C109.673 43.3082 108.692 42.6182 107.733 41.961L109.986 26.7331C110.199 25.2985 109.199 23.9629 107.762 23.7514C106.326 23.5398 104.988 24.5388 104.775 25.9734L102.863 38.8844C101.763 38.2471 100.668 37.6452 99.5805 37.0963L100.786 21.4759C100.89 20.0386 99.8093 18.7685 98.3699 18.6653C96.9129 18.5647 95.658 19.642 95.5364 21.0818L94.445 35.0834C93.1148 34.7308 91.7994 34.4841 90.4637 34.3484L90.6563 18.9609C90.6693 17.5184 89.5074 16.3137 88.0451 16.3039C86.5828 16.294 85.3935 17.4521 85.383 18.9122L85.1877 34.4082C83.9296 34.5676 82.684 34.8153 81.4711 35.1664L78.7956 19.265C78.5561 17.8222 77.1942 16.8618 75.7491 17.1016C74.3217 17.3389 73.3415 18.7016 73.5786 20.1268L76.4612 37.2415C75.5409 37.7495 74.6305 38.3281 73.7832 38.9698L66.5074 23.6991C65.8711 22.3843 64.3139 21.8296 62.9968 22.4655C61.6797 23.1015 61.1235 24.6565 61.7598 25.9714L69.7499 42.7259C69.5778 42.9123 69.4258 43.1138 69.2562 43.3178L56.0757 31.8331C54.9663 30.8731 53.3068 30.9991 52.36 32.087C51.4158 33.1926 51.5236 34.8521 52.6304 35.7944L66.3858 47.7743C66.0308 48.4546 65.6986 49.1677 65.4041 49.8935L51.1884 39.5092C50.0208 38.6475 48.361 38.8996 47.4974 40.0658C46.6339 41.232 46.8856 42.8892 48.0532 43.751L63.7569 55.2219C63.6473 55.7236 63.5578 56.2404 63.4886 56.7724L48.2732 51.193C46.9028 50.684 45.3962 51.3827 44.8858 52.7512C44.3754 54.1197 45.0745 55.6238 46.4448 56.1328L63.124 62.2441C63.1329 62.8191 63.1621 63.4092 63.1912 63.9993L47.137 63.5984C45.6899 63.5683 44.4804 64.7113 44.432 66.1587C44.4013 67.6037 45.5455 68.8109 46.9951 68.8585L63.9003 69.2836C63.9778 69.7048 64.0704 70.1059 64.168 70.5423L48.7852 74.1344C47.3702 74.46 46.4885 75.8809 46.814 77.2936C47.1394 78.7063 48.5621 79.5861 49.9771 79.2605L65.6556 75.5907C65.8941 76.2594 66.1504 76.9255 66.4067 77.5917L52.5308 84.0685C51.2113 84.6867 50.6374 86.2443 51.256 87.5616C51.8746 88.879 53.4343 89.4513 54.7539 88.833L68.6651 82.3513C69.1355 83.2573 69.6237 84.1609 70.127 85.0443L57.0502 92.3268C55.7784 93.0284 55.3205 94.6416 56.0403 95.9086C56.7424 97.1782 58.3578 97.6346 59.6271 96.9154L72.9214 89.5122C73.4905 90.3503 74.0596 91.1885 74.664 92.0216L62.3862 100.11C61.1647 100.912 60.8356 102.543 61.6388 103.763C62.4421 104.982 64.0754 105.31 65.2969 104.507L77.8883 96.2128C78.5232 97.0056 79.1909 97.7758 79.8611 98.5637L68.2963 107.488C67.1404 108.371 66.9401 110.02 67.8242 111.174C68.7059 112.31 70.3597 112.527 71.5156 111.644L83.389 102.478C84.0872 103.208 84.8054 103.953 85.5212 104.68L74.6391 114.48C73.5511 115.462 73.4796 117.129 74.4599 118.197C75.4427 119.283 77.1119 119.354 78.1822 118.375L89.3047 108.36C90.0509 109.048 90.7996 109.752 91.5634 110.437L81.3488 121.133C80.344 122.193 80.3786 123.845 81.4398 124.848C82.5011 125.851 84.1554 125.816 85.1601 124.755L95.5317 113.893C96.3108 114.557 97.1075 115.219 97.9018 115.864L88.3571 127.474C87.433 128.595 87.5939 130.247 88.7159 131.169C89.8379 132.091 91.4925 131.93 92.4165 130.809L102.022 119.118C102.831 119.742 103.659 120.364 104.468 120.988L95.5781 133.532C94.7347 134.714 95.0017 136.351 96.1845 137.193C97.3673 138.034 99.0069 137.767 99.8503 136.586L108.715 124.117C109.678 124.809 110.657 125.481 111.635 126.154L103.629 139.078C102.863 140.302 103.236 141.924 104.483 142.703C105.708 143.467 107.351 143.091 108.113 141.849L116.016 129.083C117.01 129.736 118.001 130.37 119.013 131.02L111.892 144.341C111.207 145.626 111.684 147.216 112.971 147.899C114.257 148.582 115.849 148.105 116.534 146.82L123.498 133.791C124.504 134.405 125.528 135.017 126.55 135.611L120.317 149.348C119.711 150.676 120.291 152.232 121.621 152.837C122.951 153.442 124.51 152.862 125.116 151.534L131.144 138.259C132.181 138.833 133.2 139.409 134.234 139.966L128.892 154.135C128.379 155.486 129.063 157.01 130.416 157.521C131.768 158.033 133.295 157.349 133.826 155.996L138.932 142.455C139.981 142.991 141.013 143.53 142.06 144.048L137.606 158.632C137.189 160.024 137.954 161.482 139.35 161.916C140.743 162.331 142.204 161.567 142.639 160.173L146.844 146.381C147.906 146.879 148.968 147.378 150.011 147.861L146.465 162.875C146.124 164.292 147.007 165.698 148.426 166.038C149.845 166.378 151.253 165.495 151.594 164.078L154.913 150.015C155.988 150.475 157.043 150.921 158.098 151.366L155.478 166.808C155.228 168.23 156.195 169.588 157.637 169.835C159.06 170.084 160.421 169.118 160.669 167.679L163.102 153.344C164.19 153.767 165.257 154.174 166.32 154.547L164.636 170.361C164.479 171.805 165.527 173.098 166.974 173.254C168.421 173.41 169.716 172.363 169.873 170.918L171.42 156.312C172.65 156.715 173.876 157.1 175.063 157.455L175.432 173.25C175.475 174.702 176.682 175.847 178.14 175.821C179.594 175.778 180.741 174.572 180.716 173.117L180.373 158.921C181.252 159.14 182.092 159.345 182.931 159.533L187.765 175.778C188.176 177.161 189.642 177.963 191.044 177.549C192.429 177.137 193.233 175.673 192.819 174.273L188.742 160.586C189.24 160.66 189.737 160.734 190.212 160.775L199.526 174.516C200.345 175.715 201.978 176.043 203.197 175.223C204.398 174.405 204.707 172.759 203.906 171.557L196.685 160.889C198.071 160.747 199.259 160.472 200.23 160.065L211.342 167.627C212.54 168.449 214.192 168.144 215.016 166.947C215.839 165.75 215.534 164.101 214.336 163.279L203.345 155.808C203.38 154.524 203.019 152.99 202.169 151.183L215.245 151.95C216.7 152.033 217.952 150.938 218.036 149.486C218.12 148.034 217.023 146.784 215.569 146.701L198.746 145.706C198.169 145.067 197.594 144.32 196.942 143.529ZM100.462 101.277C103.195 103.646 106.869 103.867 108.686 101.791C110.486 99.7189 109.726 96.1166 106.993 93.7469C104.26 91.3771 100.586 91.157 98.7681 93.2321C96.9683 95.3047 97.7288 98.907 100.462 101.277ZM125.768 116.255C129.383 119.383 134.151 119.809 136.416 117.203C138.682 114.596 137.575 109.944 133.96 106.817C130.344 103.689 125.577 103.263 123.311 105.869C121.046 108.476 122.153 113.128 125.768 116.255ZM97.1798 78.0057C102.172 82.3258 108.747 82.9111 111.863 79.3023C114.982 75.7111 113.462 69.2807 108.473 64.9783C103.481 60.6583 96.9052 60.073 93.789 63.6818C90.6703 67.2729 92.1879 73.6856 97.1798 78.0057Z" fill="#DC0000"/>
<path d="M54.7707 132.157L47.763 124.22L42.7171 128.481L46.3284 132.572C47.8209 134.312 48.5577 136.034 48.5327 137.736C48.5065 139.444 47.7399 140.933 46.2315 142.209C44.7161 143.489 43.0794 144.022 41.3203 143.812C39.5612 143.602 37.9215 142.667 36.4118 141.013L30.8452 134.704L47.659 120.51L56.5923 130.63L54.7707 132.157ZM40.9073 130.01L34.5805 135.357L38.0815 139.325C39.0312 140.404 40.0652 140.997 41.1847 141.097C42.2971 141.201 43.3489 140.839 44.3353 140.002C45.2842 139.201 45.7784 138.283 45.8133 137.241C45.8542 136.201 45.408 135.145 44.4877 134.071L40.9073 130.01Z" fill="#DC0000"/>
<path d="M52.6789 157.239C52.7829 156.9 53.0852 156.394 53.5775 155.733C51.6846 155.828 50.0755 155.263 48.7499 154.04C47.5632 152.951 46.9049 151.73 46.7705 150.368C46.6408 149.014 47.0592 147.83 48.0245 146.822C49.1983 145.596 50.5923 145.083 52.1945 145.281C53.7967 145.479 55.4633 146.371 57.1943 147.959L59.1991 149.803L60.0871 148.876C60.7596 148.172 61.0874 147.414 61.0518 146.605C61.0233 145.79 60.5858 145 59.7464 144.229C59.0102 143.556 58.2226 143.172 57.3779 143.077C56.5332 142.981 55.8601 143.195 55.3669 143.705L53.2945 141.801C53.858 141.213 54.6173 140.843 55.5666 140.689C56.5159 140.534 57.5139 140.629 58.5524 140.983C59.5908 141.336 60.5481 141.914 61.4243 142.716C62.8126 143.993 63.5765 145.331 63.7099 146.728C63.8493 148.126 63.3563 149.44 62.246 150.654L57.0445 156.071C56.01 157.15 55.324 158.139 54.9923 159.04L54.8236 159.212L52.6789 157.239ZM50.7334 152.561C51.3818 153.152 52.1471 153.556 53.0384 153.756C53.9286 153.961 54.7572 153.922 55.5182 153.636L57.8343 151.22L56.2172 149.738C53.6942 147.418 51.7404 146.985 50.3521 148.428C49.7488 149.061 49.4901 149.749 49.5796 150.502C49.675 151.257 50.0599 151.942 50.7334 152.561Z" fill="#DC0000"/>
<path d="M67.7593 160.6L66.1296 159.367L61.8396 164.82L59.5916 163.122L69.6656 150.332L71.9136 152.03L67.6493 157.447L69.1144 158.553L77.7799 156.455L80.4863 158.499L70.4683 160.745L70.8482 171.624L68.008 169.483L67.7593 160.6Z" fill="#DC0000"/>
<path d="M92.5313 168.679L87.8449 165.778L80.2427 177.53L77.8534 176.05L85.4556 164.298L80.8627 161.452L82.0891 159.559L93.7517 166.785L92.5313 168.679Z" fill="#DC0000"/>
<path d="M93.8749 185.449C91.8893 184.436 90.6106 182.976 90.0402 181.064C89.4697 179.152 89.7544 177.128 90.8874 174.996L91.1299 174.545C91.8828 173.125 92.8356 171.995 93.9871 171.161C95.1385 170.326 96.3782 169.85 97.7074 169.726C99.0424 169.603 100.289 169.835 101.457 170.429C103.366 171.398 104.515 172.767 104.925 174.534C105.328 176.3 104.927 178.326 103.709 180.61L103.17 181.627L93.2396 176.571C92.5268 178.004 92.3382 179.358 92.6843 180.64C93.0305 181.922 93.8274 182.876 95.0727 183.515C95.9573 183.965 96.7992 184.168 97.603 184.13C98.4068 184.091 99.1931 183.894 99.9597 183.549L100.872 185.496C98.6645 186.716 96.3277 186.702 93.8749 185.449ZM100.384 172.446C99.3713 171.93 98.3322 171.857 97.2664 172.229C96.2005 172.601 95.235 173.393 94.3877 174.609L101.732 178.346L101.83 178.161C102.421 176.878 102.585 175.741 102.336 174.741C102.081 173.74 101.436 172.977 100.384 172.446Z" fill="#DC0000"/>
<path d="M120.596 188.017C119.666 190.302 118.381 191.932 116.743 192.907C115.104 193.882 113.375 194.014 111.551 193.3C109.686 192.573 108.463 191.418 107.862 189.848L104.912 197.066L102.292 196.039L110.773 175.278L113.166 176.214L112.612 177.929C114.207 177.053 115.958 176.992 117.857 177.731C119.699 178.454 120.878 179.703 121.396 181.479C121.914 183.255 121.681 185.355 120.687 187.777L120.596 188.017ZM118.095 186.702C118.785 185.012 118.962 183.531 118.625 182.262C118.289 180.994 117.478 180.109 116.193 179.606C114.608 178.986 113.136 179.209 111.78 180.274L108.854 187.437C109.08 189.11 110.002 190.268 111.616 190.899C112.872 191.39 114.073 191.296 115.212 190.614C116.347 189.926 117.31 188.624 118.095 186.702Z" fill="#DC0000"/>
<path d="M137.851 184.485L140.567 185.243L136.056 200.777L133.34 200.019L136.632 188.691L126.015 197.976L123.299 197.218L127.811 181.684L130.527 182.442L127.231 193.787L137.851 184.485Z" fill="#DC0000"/>
<path d="M155.97 188.15L158.755 188.627L155.925 204.542L153.141 204.065L155.202 192.46L145.636 202.778L142.852 202.301L145.686 186.393L148.47 186.87L146.407 198.486L155.97 188.15Z" fill="#DC0000"/>
</svg>
