<svg width="96" height="93" viewBox="0 0 96 93" fill="none" xmlns="http://www.w3.org/2000/svg">
<path d="M3.34251 72.3306L0 70.702C3.58073 63.4434 8.5275 59.9122 15.1306 59.9122C18.0563 59.9455 20.9372 60.6858 23.4943 62.0553C27.09 63.6507 30.9722 63.299 34.4264 61.0633C38.9153 58.154 41.7888 52.661 41.7404 47.068C41.6176 32.4361 37.2887 28.5976 32.7067 24.5334C29.1223 21.3538 25.0577 17.7486 23.0589 9.2426L26.6842 8.40236C28.4113 15.7646 31.7017 18.6814 35.182 21.7721C40.166 26.1954 45.3212 30.7667 45.4589 47.0384C45.5184 53.8639 41.9824 60.5895 36.455 64.1689C31.8804 67.1301 26.7103 67.5705 21.9013 65.4052L21.7784 65.3422C19.7387 64.2392 17.4309 63.6396 15.1083 63.6136C10.0201 63.6136 6.27558 66.3861 3.34251 72.3306Z" fill="white"/>
<path d="M95.7343 48.9928L92.0233 48.7078C92.1684 46.8533 92.2429 44.8805 92.2466 42.852C92.2466 30.1152 88.7812 21.1688 81.9511 16.268C77.1197 12.8034 71.7858 12.2852 69.0351 12.2852H68.9048C60.6677 12.2852 57.2209 14.9281 54.7048 16.8565C53.0968 18.0891 51.5781 19.2551 49.4602 19.2551C49.4565 19.2551 49.4528 19.2551 49.4491 19.2551C47.5582 19.2551 45.738 18.363 44.5842 16.8676C42.6003 14.3247 40.8657 12.722 39.3359 11.308C36.2205 8.42827 33.9685 6.34804 33.9685 0H37.6907C37.6907 4.73419 39.0009 5.94458 41.8707 8.59484C43.4229 10.031 45.3584 11.8151 47.5321 14.606C47.9937 15.202 48.7083 15.5536 49.4528 15.5536H49.4565C50.2716 15.5536 51.0347 14.9947 52.4305 13.925C55.2035 11.7966 59.3984 8.58373 68.9011 8.58373H69.0314C75.3516 8.58373 95.9688 11.0563 95.9688 42.852C95.965 44.9804 95.8869 47.0458 95.7343 48.9928Z" fill="white"/>
<path d="M50.588 92.5C33.9425 92.5 25.6644 85.1193 20.7139 80.7071C18.7635 78.9674 17.0773 77.4646 16.0351 77.4646C16.0314 77.4646 16.0277 77.4646 16.0277 77.4646C15.1344 77.4646 14.3229 78.0124 13.9991 78.8341L13.9619 78.923C13.1616 80.6849 12.0896 82.3061 10.7794 83.7349L8.02872 81.2438C9.06721 80.1111 9.91587 78.8267 10.5561 77.435C11.4457 75.2363 13.6343 73.7631 16.0202 73.7631C16.0277 73.7631 16.0351 73.7631 16.0426 73.7631C18.4992 73.7631 20.5724 75.6101 23.1966 77.9495C28.0428 82.2691 35.3644 88.7985 50.562 88.7985C54.6601 88.7504 58.7582 88.1619 62.7223 87.0514L63.731 90.6122C59.458 91.8152 55.0323 92.4482 50.588 92.5Z" fill="white"/>
<path d="M32.9673 67.5298C29.1818 67.5298 25.4932 66.8265 21.9831 65.4385L23.3603 61.9998C26.5689 63.2694 29.9523 63.8765 33.399 63.8283C37.0989 63.7432 40.7615 63.088 44.2715 61.8851L45.4849 65.3867C41.6102 66.7155 37.5716 67.4373 33.4735 67.5335C33.306 67.5298 33.1348 67.5298 32.9673 67.5298Z" fill="white"/>
<path d="M70.0215 81.0439L61.6317 70.8352L64.5164 68.4922L70.0215 75.1956L81.9883 60.6266L84.873 62.9696L70.0215 81.0439Z" fill="white"/>
<path d="M72.7312 92.4408C60.0721 92.4408 49.7729 82.1988 49.7729 69.6063C49.7729 57.0176 60.0721 46.7756 72.7312 46.7756C85.3903 46.7756 95.6933 57.0176 95.6933 69.6063C95.6896 82.1988 85.3903 92.4408 72.7312 92.4408ZM72.7312 50.4771C62.123 50.4771 53.4951 59.0608 53.4951 69.6063C53.4951 80.1519 62.1268 88.7393 72.7312 88.7393C83.3357 88.7393 91.9711 80.1556 91.9711 69.6063C91.9711 59.0571 83.3394 50.4771 72.7312 50.4771Z" fill="white"/>
</svg>
