<svg width="112" height="124" viewBox="0 0 112 124" fill="none" xmlns="http://www.w3.org/2000/svg">
<path d="M96.4646 86.3003L92.4052 83.429C99.1988 73.5025 110.754 49.9635 105.859 31.9058C103.411 22.8794 97.1024 15.9701 87.1097 11.3739C72.588 4.69592 53.1467 3.20745 33.7696 7.29572C33.6855 7.31583 23.8511 9.38762 19.2331 10.3581C20.3159 13.9486 23.505 16.5886 27.3369 16.7998L38.2591 17.4032C42.5212 17.6396 46.358 20.0131 48.5286 23.7493L62.1751 47.243C63.2827 49.1489 65.3099 50.2602 67.4953 50.1446C70.9515 49.9635 74.3038 51.4922 76.4645 54.2429L77.1517 55.1179C79.9206 58.6379 80.7216 63.2894 79.2926 67.5586L78.0516 71.2698C76.4595 76.0218 72.2617 79.4815 67.3618 80.0749L64.0194 80.4822L63.431 75.4888L66.7734 75.0815C69.7994 74.7144 72.3903 72.5822 73.3693 69.6455L74.6103 65.9344C75.4904 63.2994 75.0009 60.4331 73.2901 58.2557L72.6029 57.3807C71.436 55.8923 69.6264 55.0676 67.7524 55.1631C63.7277 55.3743 59.965 53.3176 57.918 49.7976L44.2715 26.3039C42.9414 24.0209 40.5928 22.5676 37.9872 22.4218L27.065 21.8184C20.0044 21.4261 14.3529 15.7186 13.9178 8.54281L13.7843 6.36542L15.8807 5.92291C15.8807 5.92291 32.7411 2.36767 32.7659 2.36264C53.1417 -1.93179 73.6906 -0.322636 89.1419 6.78783C100.539 12.0276 107.763 20.0282 110.62 30.5682C117.35 55.3793 97.3199 85.0482 96.4646 86.3003Z" fill="white"/>
<path d="M21.4876 112.575C19.9251 112.575 18.4022 112.082 17.1118 111.142L14.1105 108.954C11.2279 106.852 10.1698 102.93 11.5938 99.6263L12.8349 96.75L9.50235 93.0238C8.87441 92.3197 8.55302 91.4096 8.59752 90.4541C8.64696 89.5037 9.05733 88.6287 9.75449 87.9901L11.8064 86.1195L8.14264 83.7962C6.73349 82.9012 6.14014 81.1059 6.72852 79.5269L8.7409 74.1312L2.44174 69.7211C1.0573 68.7557 0.177194 67.2219 0.023918 65.5222C-0.129358 63.8226 0.459039 62.1531 1.6457 60.9462L15.4455 46.8661C15.9696 46.328 16.2465 45.5888 16.202 44.8345L16.1921 44.6434C15.757 37.2162 17.0178 29.6582 19.8361 22.7941L19.9004 22.6432L24.4641 24.5793L24.3998 24.7301C21.8683 30.8952 20.736 37.6738 21.1266 44.3417L21.1365 44.5378C21.2651 46.7253 20.4641 48.8725 18.9461 50.4213L5.14631 64.5014C4.94853 64.7076 4.93372 64.944 4.94855 65.0646C4.95844 65.1904 5.01281 65.4217 5.2452 65.5826L12.4838 70.6514C13.8139 71.5817 14.3379 73.3015 13.7693 74.8353L11.7768 80.1756L16.0734 82.9012C16.998 83.4895 17.6062 84.5002 17.7001 85.6065C17.7941 86.7128 17.3639 87.8141 16.553 88.5533L14.1501 90.7408L17.1316 94.0747C18.0562 95.1106 18.2984 96.6092 17.7447 97.8864L16.1278 101.643C15.6383 102.784 16.0042 104.137 16.998 104.866L19.9993 107.054C20.5432 107.451 21.2107 107.617 21.8732 107.521L32.4888 105.982L33.186 110.961L22.5704 112.5C22.1996 112.55 21.8436 112.575 21.4876 112.575Z" fill="white"/>
<path d="M78.0664 112.721C76.9292 112.469 76.2024 111.323 76.4496 110.166C76.6968 109.005 77.8192 108.27 78.9613 108.522C80.1035 108.768 80.8254 109.915 80.5782 111.071C80.3656 112.082 79.4904 112.766 78.5163 112.766C78.368 112.766 78.2147 112.751 78.0664 112.721ZM76.3803 102.578C76.1183 101.426 76.8303 100.27 77.9626 100.003C79.0998 99.7369 80.237 100.456 80.499 101.613C80.7611 102.769 80.054 103.921 78.9168 104.187C78.7537 104.227 78.5955 104.248 78.4372 104.248C77.483 104.248 76.6078 103.574 76.3803 102.578ZM73.1616 95.7391C72.4397 94.8088 72.5979 93.4561 73.5126 92.727C74.4273 91.9928 75.7574 92.1537 76.4792 93.084C77.2011 94.0143 77.0429 95.367 76.1233 96.1012C75.7376 96.413 75.2778 96.5588 74.8229 96.5588C74.1949 96.5588 73.5769 96.2772 73.1616 95.7391ZM67.3766 90.9318C66.3383 90.3937 65.918 89.1013 66.4471 88.0453C66.9712 86.9843 68.2419 86.5619 69.2851 87.0949C69.2851 87.0949 69.2851 87.0949 69.2802 87.0949C70.3235 87.628 70.7438 88.9203 70.2147 89.9814C69.8439 90.7306 69.1022 91.1631 68.3309 91.1631C68.0144 91.1631 67.6881 91.0877 67.3766 90.9318ZM60.1479 89.0762C58.981 89.041 58.0614 88.0554 58.096 86.8686C58.1256 85.6819 59.0997 84.7466 60.2666 84.7818C61.4285 84.8119 62.3481 85.8026 62.3185 86.9893C62.2839 88.1509 61.3445 89.0762 60.2072 89.0762C60.1875 89.0762 60.1677 89.0762 60.1479 89.0762Z" fill="white"/>
<path d="M46.3035 123.532C45.3888 122.793 45.2405 121.44 45.9722 120.515C46.6991 119.585 48.0291 119.434 48.9389 120.173C49.8486 120.912 50.0019 122.265 49.2702 123.195C48.8548 123.723 48.2368 124 47.6187 124C47.1638 124 46.6941 123.849 46.3035 123.532ZM40.4691 116.17C39.9549 115.109 40.3801 113.822 41.4283 113.294C42.4716 112.766 43.7374 113.204 44.2565 114.265C44.7757 115.331 44.3455 116.618 43.3023 117.146C43.0007 117.297 42.6793 117.367 42.3628 117.367C41.5866 117.367 40.8399 116.93 40.4691 116.17ZM38.2639 106.983C38.2442 105.796 39.1688 104.816 40.3356 104.791C41.5025 104.766 42.4667 105.711 42.4914 106.898C42.5112 108.079 41.5866 109.065 40.4197 109.085C40.4049 109.085 40.39 109.085 40.3752 109.085C39.2281 109.085 38.2887 108.155 38.2639 106.983Z" fill="white"/>
<path d="M67.5249 118.348C61.0626 99.4099 43.4704 86.6825 23.7472 86.6825V83.6653C44.7313 83.6653 63.4507 97.2074 70.3284 117.357L67.5249 118.348Z" fill="white"/>
<path d="M59.3123 118.443C53.2356 103.905 39.2727 94.512 23.7472 94.512V91.4949C40.4692 91.4949 55.5001 101.607 62.0465 117.261L59.3123 118.443Z" fill="white"/>
</svg>
