<svg width="129" height="122" viewBox="0 0 129 122" fill="none" xmlns="http://www.w3.org/2000/svg">
<path d="M128.773 55.5202C128.41 52.7301 125.93 50.6252 123.008 50.6252H117.144C116.78 49.447 116.303 48.2984 115.72 47.2139L119.14 43.8273C120.295 42.6837 120.897 41.1013 120.793 39.4844C120.688 37.8724 119.882 36.3739 118.588 35.383C116.337 33.6626 113.082 33.9091 111.016 35.9598L107.69 39.2576C106.595 38.6809 105.44 38.2076 104.245 37.8478V31.9077C104.245 30.2908 103.543 28.7528 102.314 27.6831C101.811 27.2443 101.228 26.8993 100.581 26.6577V20.7768C100.581 19.7662 99.8145 18.9381 98.8039 18.8395C81.6238 17.2374 65.2951 10.9226 51.5799 0.580454C50.878 0.0529925 49.9023 0.0529925 49.2003 0.580454C35.4652 10.9276 19.1315 17.2423 1.97638 18.8444C0.960808 18.9381 0.199131 19.7712 0.199131 20.7817V75.2581C0.199131 100.054 36.67 116.479 47.8462 120.925L49.6284 121.67C49.8724 121.773 50.1313 121.823 50.3951 121.823C50.6639 121.823 50.9228 121.768 51.1667 121.665L52.9191 120.93C62.3479 117.184 85.3824 106.758 95.5979 90.934C95.8816 90.4953 95.9712 89.9777 95.8617 89.47C95.7472 88.9622 95.4435 88.5284 95.0005 88.2524C94.0894 87.6805 92.8747 87.9418 92.2923 88.8439C82.4253 104.135 58.5445 114.512 51.4555 117.327L50.3951 117.77L49.3198 117.327C38.721 113.112 4.13197 97.6185 4.13197 75.263V22.5317C20.844 20.6634 36.8442 14.4473 50.4001 4.55859C63.941 14.4473 79.9412 20.6634 96.6682 22.5317V26.6134C94.4081 27.4218 92.8897 29.5957 92.8897 32.0359V37.8429C91.6999 38.2027 90.5399 38.676 89.4447 39.2527L86.0246 35.8661C84.8746 34.7225 83.2816 34.126 81.6437 34.2295C80.0158 34.333 78.5024 35.1316 77.5018 36.4133C75.7644 38.6414 76.0183 41.8654 78.0843 43.9111L81.4147 47.209C80.8323 48.2935 80.3544 49.4421 79.986 50.6202H73.9921C72.3593 50.6202 70.806 51.3153 69.7258 52.5329C68.6455 53.7456 68.1476 55.3674 68.3567 56.9793C68.7201 59.7695 71.1993 61.8744 74.1216 61.8744H79.986C80.3494 63.0525 80.8273 64.2011 81.4098 65.2856L77.9897 68.6722C76.8347 69.8159 76.2324 71.3933 76.3369 73.0102C76.4414 74.6271 77.243 76.1208 78.5423 77.1165C80.7925 78.8369 84.0482 78.5905 86.1142 76.5398L89.4447 73.2419C90.5399 73.8187 91.6999 74.2919 92.8897 74.6517V80.5869C92.8897 82.2038 93.5916 83.7418 94.8212 84.8115C95.8567 85.7136 97.1959 86.2115 98.5798 86.2115C98.8238 86.2115 99.0677 86.1967 99.3117 86.1672C102.129 85.8073 104.255 83.3524 104.255 80.4588V74.6567C105.445 74.2968 106.605 73.8236 107.7 73.2468L111.12 76.6334C112.27 77.7771 113.868 78.3736 115.501 78.27C117.129 78.1665 118.642 77.3679 119.648 76.0863C121.385 73.8581 121.131 70.6342 119.065 68.5884L116.517 66.0645L117.064 66.3356L115.77 65.2363C116.342 64.1666 116.81 63.0378 117.164 61.8793H123.158C124.79 61.8793 126.344 61.1842 127.424 59.9666C128.484 58.7491 128.982 57.1322 128.773 55.5202ZM113.569 60.1195C113.211 61.4948 112.663 62.8061 111.937 64.0286C111.274 65.1476 111.454 66.5624 112.37 67.4694L116.273 71.3391C116.94 71.9947 117.049 73.0398 116.522 73.7102C116.203 74.1194 115.745 74.3609 115.232 74.3905C114.729 74.4299 114.237 74.2426 113.878 73.8877L109.881 69.9293C108.965 69.0222 107.536 68.8448 106.406 69.5004C105.176 70.2152 103.847 70.7623 102.463 71.1173C101.193 71.4426 100.307 72.5666 100.307 73.8532V80.4637C100.307 81.3954 99.6402 82.2087 98.7889 82.3172C98.2712 82.3813 97.7734 82.2334 97.39 81.8982C97.0117 81.5679 96.7926 81.0897 96.7926 80.5919V73.8532C96.7926 72.5666 95.9065 71.4426 94.642 71.1173C93.2531 70.7623 91.9239 70.2152 90.6942 69.5004C90.2512 69.244 89.7484 69.106 89.2356 69.106C88.4739 69.106 87.7571 69.3969 87.2244 69.9293L83.3164 73.7989C82.6543 74.4546 81.5989 74.563 80.9219 74.0454C80.5087 73.7299 80.2648 73.2764 80.2299 72.7687C80.2001 72.2659 80.3842 71.7778 80.7377 71.4278L84.7353 67.4694C85.6513 66.5624 85.8255 65.1476 85.1634 64.0335C84.4415 62.8159 83.8889 61.4997 83.5305 60.1244C83.2019 58.8723 82.0669 57.9948 80.7676 57.9948H74.0917C73.1508 57.9948 72.3294 57.3343 72.2199 56.4913C72.1552 55.9786 72.3045 55.4906 72.643 55.1061C72.9766 54.7315 73.4595 54.5146 73.9623 54.5146H80.7676C82.0669 54.5146 83.2019 53.6371 83.5305 52.385C83.8889 51.0097 84.4415 49.6935 85.1634 48.4759C85.8255 47.3569 85.6463 45.947 84.7303 45.0351L80.8273 41.1703C80.1602 40.5097 80.0507 39.4696 80.5784 38.7943C80.897 38.3851 81.355 38.1436 81.8727 38.1091C82.3606 38.0746 82.8634 38.2569 83.2219 38.6119L87.2194 42.5703C88.1354 43.4773 89.5642 43.6499 90.6942 42.9992C91.9239 42.2844 93.2531 41.7372 94.642 41.3823C95.9065 41.0569 96.7926 39.933 96.7926 38.6464V32.0359C96.7926 31.1042 97.4597 30.2908 98.306 30.1824C98.8288 30.1232 99.3266 30.2711 99.7049 30.6014C100.083 30.9316 100.302 31.4098 100.302 31.9077V38.6513C100.302 39.9379 101.188 41.0619 102.453 41.3872C103.842 41.7421 105.171 42.2844 106.401 43.0041C107.526 43.6646 108.955 43.4872 109.876 42.5752L113.784 38.7105C114.446 38.0548 115.501 37.9464 116.178 38.464C116.591 38.7795 116.835 39.233 116.87 39.7358C116.9 40.2386 116.716 40.7266 116.362 41.0816L112.37 45.04C111.449 45.947 111.269 47.3618 111.937 48.4808C112.658 49.6984 113.211 51.0146 113.569 52.3899C113.898 53.642 115.033 54.5195 116.332 54.5195H123.008C123.949 54.5195 124.771 55.1801 124.88 56.023C124.945 56.5357 124.795 57.0237 124.457 57.4082C124.123 57.7878 123.64 57.9998 123.138 57.9998H116.327C115.028 57.9899 113.893 58.8674 113.569 60.1195Z" fill="white"/>
<path d="M50.3802 122C50.0914 122 49.8077 121.941 49.5388 121.832L47.7616 121.093C36.5555 116.637 0 100.162 0 75.2532V20.7768C0 19.6726 0.836351 18.7606 1.94651 18.6571C19.0718 17.0599 35.3657 10.76 49.0759 0.432567C49.8425 -0.144189 50.9128 -0.144189 51.6795 0.432567C65.3698 10.76 81.6637 17.0599 98.8088 18.6571C99.919 18.7606 100.755 19.6726 100.755 20.7768V26.5296C101.378 26.776 101.94 27.1211 102.423 27.545C103.693 28.6493 104.419 30.2415 104.419 31.9077V37.7048C105.535 38.0499 106.62 38.4936 107.645 39.0259L110.876 35.8267C113.007 33.7119 116.367 33.4605 118.692 35.2351C120.031 36.2605 120.863 37.8034 120.972 39.4696C121.082 41.1407 120.459 42.7724 119.265 43.9555L115.944 47.2484C116.482 48.2688 116.93 49.3435 117.278 50.4428H123.003C126.02 50.4428 128.579 52.6167 128.952 55.5005C129.166 57.1667 128.654 58.8378 127.538 60.0948C126.423 61.3518 124.815 62.0716 123.133 62.0716H117.278C116.94 63.1462 116.502 64.1962 115.979 65.1969L118.314 67.1786L117.438 66.7448L119.17 68.4652C121.306 70.575 121.56 73.9074 119.767 76.2046C118.732 77.5306 117.169 78.3538 115.486 78.4623C113.803 78.5707 112.151 77.9545 110.961 76.7715L107.635 73.4834C106.605 74.0158 105.52 74.4595 104.409 74.8046V80.4735C104.409 83.4608 102.214 85.9946 99.3017 86.3643C99.0528 86.3939 98.7989 86.4136 98.545 86.4136C97.1113 86.4136 95.7373 85.901 94.6619 84.9693C93.3925 83.8651 92.6656 82.2728 92.6656 80.6066V74.8095C91.5505 74.4644 90.4702 74.0208 89.4397 73.4884L86.2088 76.6877C84.0781 78.8024 80.7178 79.0538 78.3929 77.2792C77.0488 76.2539 76.2224 74.706 76.1129 73.0398C76.0034 71.3736 76.6256 69.737 77.8155 68.5588L81.141 65.2708C80.6033 64.2504 80.1552 63.1807 79.8068 62.0765H74.0817C71.0649 62.0765 68.5061 59.9026 68.1327 57.0188C67.9186 55.3526 68.4314 53.6815 69.5465 52.4244C70.6617 51.1674 72.2697 50.4477 73.9523 50.4477H79.8068C80.1552 49.3435 80.6033 48.2738 81.141 47.2534L77.91 44.0541C75.7744 41.9393 75.5205 38.6119 77.3127 36.3098C78.3481 34.9837 79.9113 34.1605 81.594 34.052C83.2816 33.9436 84.9294 34.5598 86.1192 35.7429L89.4397 39.0309C90.4702 38.4985 91.5555 38.0548 92.6656 37.7098V32.0408C92.6656 29.5711 94.179 27.3577 96.4442 26.4901V22.7042C79.7918 20.8162 63.8613 14.6247 50.3603 4.79521C36.8641 14.6149 20.9386 20.8064 4.29625 22.6944V75.2532C4.29625 97.4903 38.7907 112.939 49.3646 117.144L50.3702 117.563L51.3609 117.149C58.435 114.335 82.276 103.978 92.1131 88.7354C92.7503 87.7495 94.0845 87.4587 95.0801 88.0897C95.563 88.3953 95.9015 88.8686 96.021 89.4256C96.1455 89.9826 96.0409 90.5495 95.7323 91.0277C85.492 106.896 62.4127 117.342 52.9689 121.098L51.2215 121.832C50.9576 121.941 50.6739 122 50.3802 122ZM50.3802 0.368483C50.0018 0.368483 49.6235 0.486792 49.3049 0.72341C35.5399 11.0952 19.1763 17.4247 1.98135 19.0268C1.06535 19.1106 0.373371 19.8648 0.373371 20.7768V75.2532C0.373371 99.9304 36.7496 116.316 47.901 120.748L49.6832 121.492C50.1263 121.68 50.639 121.68 51.0771 121.492L52.8295 120.758C62.2484 117.016 85.2381 106.61 95.4236 90.8305C95.6775 90.4361 95.7621 89.9629 95.6626 89.5045C95.558 89.046 95.2842 88.6516 94.886 88.4002C94.0596 87.8826 92.9594 88.1193 92.4317 88.9326C82.5349 104.268 58.6043 114.67 51.5102 117.489L50.3802 117.963L49.2302 117.489C38.6065 113.265 3.92786 97.7269 3.92786 75.2581V22.3641L4.09214 22.3444C20.7694 20.481 36.7397 14.2747 50.2706 4.40578L50.3802 4.32691L50.4897 4.40578C64.0057 14.2747 79.971 20.481 96.6682 22.3444L96.8325 22.3641V26.7415L96.708 26.7859C94.5225 27.5697 93.054 29.6795 93.054 32.0359V37.976L92.9195 38.0154C91.7397 38.3703 90.5897 38.8436 89.5044 39.4154L89.38 39.4795L85.8603 35.9943C84.7452 34.8901 83.197 34.3133 81.6238 34.4119C80.0457 34.5105 78.5871 35.2844 77.6163 36.5267C75.9386 38.6809 76.1826 41.8013 78.1838 43.783L81.6089 47.1745L81.5442 47.2977C80.9667 48.3724 80.4938 49.5111 80.1304 50.6794L80.0905 50.8125H73.9623C72.3842 50.8125 70.8807 51.4878 69.8353 52.6611C68.7898 53.8343 68.3119 55.4019 68.511 56.9646C68.8595 59.661 71.2591 61.6969 74.0917 61.6969H80.0955L80.1353 61.83C80.4938 62.9983 80.9717 64.137 81.5492 65.2117L81.6139 65.3349L78.0942 68.8201C76.9791 69.9243 76.3966 71.4525 76.4962 73.0151C76.5958 74.5778 77.3724 76.0222 78.6319 76.9834C80.8074 78.6447 83.9586 78.4081 85.9549 76.4264L89.38 73.0349L89.4995 73.0989C90.5847 73.6708 91.7347 74.1391 92.9146 74.4989L93.049 74.5384V80.6066C93.049 82.1693 93.731 83.658 94.9158 84.6932C95.9214 85.5658 97.2108 86.0488 98.55 86.0488C98.7889 86.0488 99.0229 86.0341 99.2569 86.0045C101.98 85.6594 104.036 83.2834 104.036 80.4785V74.5384L104.17 74.4989C105.35 74.144 106.495 73.6757 107.586 73.1039L107.71 73.0398L111.23 76.525C112.345 77.6292 113.888 78.2059 115.466 78.1074C117.044 78.0088 118.503 77.2348 119.474 75.9926C121.151 73.8384 120.907 70.718 118.906 68.7412L115.546 65.4089L115.765 65.5173L115.511 65.3004L115.581 65.1722C116.143 64.1124 116.611 62.9934 116.96 61.8497L116.999 61.7166H123.133C124.711 61.7166 126.214 61.0413 127.26 59.868C128.305 58.6948 128.783 57.1272 128.584 55.5646C128.235 52.8681 125.836 50.8322 123.003 50.8322H117.004L116.965 50.6991C116.606 49.5308 116.133 48.3921 115.551 47.3174L115.486 47.1942L119.006 43.709C120.121 42.6048 120.703 41.0717 120.604 39.509C120.504 37.9464 119.723 36.502 118.468 35.5408C116.293 33.8795 113.141 34.1211 111.14 36.1027L107.715 39.4943L107.591 39.4302C106.51 38.8583 105.36 38.39 104.175 38.0302L104.041 37.9907V31.9077C104.041 30.345 103.359 28.8563 102.174 27.8211C101.691 27.3972 101.124 27.0669 100.496 26.8303L100.377 26.7859V20.7768C100.377 19.8648 99.685 19.1106 98.769 19.0268C81.5541 17.4247 65.1955 11.0952 51.4505 0.72834C51.1369 0.486792 50.7585 0.368483 50.3802 0.368483ZM98.5599 82.5193C98.082 82.5193 97.634 82.3517 97.2706 82.0411C96.8474 81.6714 96.6085 81.144 96.6085 80.5968V73.8581C96.6085 72.6553 95.7821 71.6053 94.5972 71.3046C93.1934 70.9447 91.8442 70.3926 90.5997 69.668C90.1865 69.4264 89.7135 69.2983 89.2356 69.2983C88.5237 69.2983 87.8566 69.5694 87.3588 70.0673L83.4509 73.937C82.724 74.6567 81.5641 74.775 80.8074 74.1982C80.3544 73.8482 80.0806 73.3503 80.0457 72.7884C80.0109 72.2363 80.215 71.694 80.6083 71.3046L84.6058 67.3462C85.4621 66.4983 85.6264 65.1772 85.0091 64.1321C84.2773 62.8997 83.7197 61.5687 83.3563 60.1737C83.0476 59.0005 81.9872 58.1821 80.7775 58.1821H74.1017C73.0712 58.1821 72.1651 57.4526 72.0456 56.516C71.971 55.9491 72.1402 55.4068 72.5136 54.9878C72.887 54.5688 73.4146 54.3322 73.9722 54.3322H80.7775C81.9922 54.3322 83.0526 53.5139 83.3563 52.3406C83.7197 50.9505 84.2773 49.6195 85.0091 48.3871C85.6264 47.3421 85.4621 46.021 84.6058 45.1731L80.7029 41.3083C79.9711 40.5837 79.8565 39.4351 80.439 38.6907C80.7925 38.2422 81.2953 37.971 81.8678 37.9365C82.4104 37.8922 82.968 38.1041 83.3613 38.4936L87.3588 42.452C88.2151 43.2999 89.5493 43.4625 90.6046 42.8513C91.8492 42.1266 93.1934 41.5745 94.6022 41.2147C95.787 40.909 96.6134 39.859 96.6134 38.6612V32.0359C96.6134 31.0154 97.3502 30.1183 98.2911 30C98.8686 29.9309 99.4212 30.0986 99.8394 30.4633C100.263 30.8281 100.501 31.3556 100.501 31.9077V38.6513C100.501 39.8541 101.328 40.9041 102.513 41.2097C103.917 41.5696 105.261 42.1217 106.505 42.8463C107.561 43.4625 108.895 43.2999 109.751 42.4471L113.659 38.5823C114.386 37.8626 115.546 37.7443 116.303 38.321C116.756 38.671 117.029 39.1689 117.064 39.7259C117.099 40.283 116.895 40.8252 116.502 41.2147L112.509 45.1731C111.648 46.021 111.484 47.3421 112.106 48.3871C112.838 49.6195 113.395 50.9505 113.759 52.3456C114.067 53.5188 115.128 54.3371 116.337 54.3371H123.013C124.044 54.3371 124.95 55.0667 125.069 56.0033C125.144 56.5702 124.975 57.1124 124.601 57.5314C124.228 57.9505 123.695 58.1871 123.143 58.1871H116.332C115.118 58.1871 114.057 59.0054 113.754 60.1786C113.39 61.5687 112.833 62.8997 112.101 64.137C111.479 65.1821 111.648 66.5032 112.504 67.3511L116.407 71.2208C117.139 71.9405 117.253 73.0891 116.676 73.8384C116.322 74.287 115.82 74.5581 115.252 74.5926C114.7 74.632 114.157 74.4299 113.754 74.0356L109.756 70.0771C108.9 69.2292 107.566 69.0666 106.51 69.6778C105.261 70.4025 103.922 70.9546 102.518 71.3144C101.333 71.6152 100.501 72.6701 100.501 73.8729V80.4834C100.501 81.5038 99.7647 82.401 98.8238 82.5193C98.7292 82.5144 98.6446 82.5193 98.5599 82.5193ZM89.2356 68.9236C89.7783 68.9236 90.3159 69.0666 90.7888 69.3426C92.0085 70.0525 93.3178 70.5898 94.6918 70.9398C96.0409 71.2849 96.9818 72.4827 96.9818 73.8532V80.5919C96.9818 81.0355 97.176 81.4644 97.5195 81.7601C97.863 82.0559 98.306 82.189 98.774 82.1348C99.5307 82.0362 100.128 81.3017 100.128 80.4637V73.8532C100.128 72.4827 101.074 71.2849 102.423 70.9398C103.792 70.5898 105.101 70.0525 106.321 69.3426C107.526 68.6426 109.044 68.83 110.02 69.8011L114.017 73.7595C114.341 74.0799 114.779 74.2426 115.227 74.2081C115.69 74.1785 116.098 73.9616 116.382 73.5968C116.85 72.9954 116.746 72.0637 116.148 71.4673L112.245 67.5976C111.264 66.6314 111.075 65.1279 111.782 63.9349C112.499 62.7272 113.042 61.4307 113.395 60.0751C113.744 58.7392 114.953 57.8075 116.337 57.8075H123.148C123.596 57.8075 124.029 57.6153 124.327 57.2751C124.631 56.935 124.766 56.4962 124.706 56.0378C124.606 55.2836 123.869 54.697 123.018 54.697H116.342C114.958 54.697 113.749 53.7653 113.4 52.4294C113.047 51.0688 112.504 49.7674 111.787 48.5646C111.08 47.3717 111.269 45.8682 112.25 44.897L116.243 40.9386C116.561 40.6231 116.726 40.1844 116.696 39.7358C116.666 39.2823 116.447 38.8781 116.078 38.5971C115.471 38.1337 114.525 38.2372 113.928 38.8288L110.02 42.6935C109.044 43.6646 107.521 43.852 106.321 43.147C105.106 42.4421 103.792 41.9048 102.423 41.5499C101.074 41.2048 100.133 40.0069 100.133 38.6365V31.9077C100.133 31.464 99.9389 31.0352 99.5954 30.7394C99.2569 30.4436 98.8088 30.3105 98.3409 30.3647C97.5842 30.4633 96.9918 31.1929 96.9918 32.0359V38.6464C96.9918 40.0168 96.0509 41.2147 94.7018 41.5597C93.3278 41.9147 92.0135 42.452 90.8038 43.1569C89.599 43.852 88.0807 43.6646 87.1049 42.6985L83.1074 38.74C82.7888 38.4245 82.3407 38.2569 81.9026 38.2865C81.4396 38.3161 81.0265 38.533 80.7427 38.8978C80.2747 39.4992 80.3793 40.4358 80.9767 41.0273L84.8796 44.8921C85.8554 45.8583 86.0445 47.3667 85.3426 48.5548C84.6307 49.7576 84.0881 51.059 83.7297 52.4146C83.3812 53.7505 82.1714 54.6822 80.7875 54.6822H73.9822C73.5341 54.6822 73.101 54.8744 72.8023 55.2146C72.4987 55.5547 72.3642 55.9934 72.424 56.4519C72.5235 57.2061 73.2603 57.7927 74.1116 57.7927H80.7875C82.1714 57.7927 83.3812 58.7244 83.7297 60.0603C84.0881 61.4209 84.6307 62.7173 85.3426 63.9251C86.0495 65.1131 85.8604 66.6166 84.8846 67.5877L80.8871 71.5461C80.5684 71.8616 80.4042 72.3004 80.434 72.744C80.4639 73.1975 80.6829 73.6018 81.0513 73.8827C81.6587 74.3461 82.6046 74.2426 83.202 73.6511L87.1099 69.7814C87.6625 69.2342 88.4242 68.9236 89.2356 68.9236Z" fill="white"/>
<path d="M57.056 84.7475C58.5047 84.7475 59.8887 84.1263 60.8495 83.0468C61.8103 81.9672 62.2534 80.5278 62.0642 79.0933C61.7406 76.6088 59.5402 74.7405 56.9465 74.7405H52.3217C52.0479 73.8975 51.7044 73.0743 51.3011 72.2954L53.9695 69.6532C54.995 68.6377 55.5327 67.2279 55.4381 65.7934C55.3435 64.3589 54.6316 63.0279 53.4767 62.1455C51.4754 60.6173 48.583 60.8343 46.746 62.6533L44.1523 65.2215C43.3608 64.8173 42.5294 64.4772 41.6831 64.211V59.523C41.6831 58.0885 41.0559 56.7181 39.9656 55.7667C38.8704 54.8153 37.4167 54.3765 35.973 54.5639C33.464 54.8843 31.5772 57.0631 31.5772 59.6314V64.211C30.7309 64.4772 29.8995 64.8222 29.108 65.2215L26.4396 62.5793C25.4191 61.5638 23.9953 61.0364 22.5416 61.1251C21.093 61.2188 19.7488 61.9237 18.8577 63.0673C17.3144 65.049 17.5335 67.9131 19.3705 69.7321L21.9642 72.3004C21.5609 73.0792 21.2174 73.9025 20.9436 74.7454H16.2093C14.7606 74.7454 13.3766 75.3665 12.4158 76.4461C11.455 77.5257 11.0119 78.97 11.2011 80.3996C11.5247 82.8792 13.7251 84.7524 16.3188 84.7524H20.9436C21.2174 85.5953 21.5609 86.4136 21.9642 87.1974L19.2958 89.8397C18.2703 90.8552 17.7376 92.2601 17.8272 93.6995C17.9168 95.134 18.6337 96.465 19.7887 97.3474C21.7899 98.8805 24.6823 98.6586 26.5193 96.8446L29.113 94.2763C29.9045 94.6805 30.7359 95.0206 31.5822 95.2868V99.9748C31.5822 101.409 32.2095 102.78 33.2997 103.731C34.2207 104.535 35.4105 104.978 36.6401 104.978C36.8592 104.978 37.0782 104.964 37.2923 104.939C39.7963 104.618 41.6881 102.44 41.6881 99.8713V95.2917C42.5344 95.0256 43.3658 94.6805 44.1573 94.2812L46.8257 96.9234C47.8512 97.9389 49.275 98.4713 50.7237 98.3776C52.1723 98.284 53.5165 97.5791 54.4076 96.4354C55.9509 94.4537 55.7318 91.5897 53.8948 89.7707L51.3011 87.2024C51.7044 86.4235 52.0479 85.6003 52.3217 84.7573H57.056V84.7475ZM48.7821 82.8742C48.4884 83.9883 48.0454 85.0531 47.4579 86.039C46.8307 87.0988 46.9999 88.4348 47.8711 89.2925L51.117 92.5066C51.555 92.9404 51.6297 93.6157 51.2962 94.0446C51.0174 94.3995 50.6589 94.4734 50.4698 94.4833C50.1512 94.5079 49.8276 94.3847 49.5986 94.1579L46.2781 90.8699C45.4069 90.0073 44.0578 89.8397 42.9874 90.4608C41.9918 91.0425 40.9165 91.4812 39.7914 91.772C38.5966 92.0826 37.7602 93.1474 37.7602 94.3601V99.8516C37.7602 100.463 37.3321 100.995 36.7845 101.064C36.4509 101.109 36.1323 101.01 35.8884 100.793C35.6445 100.581 35.5051 100.276 35.5051 99.9551V94.3551C35.5051 93.1375 34.6687 92.0727 33.469 91.7622C32.3488 91.4763 31.2735 91.0376 30.2729 90.4559C29.8547 90.2094 29.3768 90.0812 28.8889 90.0812C28.1671 90.0812 27.49 90.3573 26.9823 90.8601L23.7364 94.0741C23.3033 94.5079 22.6163 94.5819 22.1832 94.2516C21.9194 94.0495 21.76 93.7587 21.7401 93.4333C21.7202 93.1129 21.8397 92.7974 22.0687 92.5706L25.3892 89.2826C26.2604 88.4249 26.4247 87.0841 25.7974 86.0242C25.215 85.0383 24.7669 83.9735 24.4782 82.8594C24.1695 81.6714 23.0942 80.8433 21.8596 80.8433H16.3088C15.6915 80.8433 15.1539 80.4193 15.0842 79.882C15.0394 79.5517 15.1389 79.2362 15.353 78.9898C15.5671 78.7482 15.8757 78.6102 16.1993 78.6102H21.8546C23.0843 78.6102 24.1596 77.782 24.4732 76.594C24.762 75.4799 25.21 74.4151 25.7925 73.4292C26.4197 72.3743 26.2505 71.0335 25.3842 70.1708L22.1384 66.9567C21.7003 66.5229 21.6256 65.8476 21.9592 65.4187C22.1633 65.1575 22.457 64.9997 22.7856 64.98C23.1042 64.9603 23.4328 65.0786 23.6568 65.3053L26.9773 68.5933C27.8485 69.456 29.1976 69.6236 30.2629 69.0025C31.2636 68.4208 32.3339 67.9821 33.459 67.6912C34.6588 67.3856 35.4951 66.3208 35.4951 65.1032V59.6068C35.4951 58.9955 35.9232 58.4631 36.4659 58.3941C36.7994 58.3547 37.123 58.4483 37.3669 58.6603C37.6109 58.8723 37.7503 59.1779 37.7503 59.4983V65.0983C37.7503 66.3159 38.5866 67.3807 39.7864 67.6912C40.9115 67.9772 41.9818 68.4159 42.9775 68.9976C44.0478 69.6236 45.4019 69.456 46.2681 68.5933L49.5139 65.3793C49.952 64.9455 50.6341 64.8666 51.0672 65.2018C51.331 65.4039 51.4903 65.6948 51.5102 66.0201C51.5301 66.3406 51.4107 66.656 51.1817 66.8828L47.8612 70.1708C46.99 71.0285 46.8257 72.3694 47.4529 73.4292C48.0354 74.4151 48.4834 75.4799 48.7722 76.594C49.0808 77.782 50.1561 78.6102 51.3908 78.6102H56.9415C57.5588 78.6102 58.0965 79.0341 58.1662 79.5714C58.211 79.9017 58.1114 80.2172 57.8974 80.4637C57.6833 80.7052 57.3746 80.8433 57.0511 80.8433H51.3957C50.1661 80.858 49.0908 81.6862 48.7821 82.8742Z" fill="white"/>
<path d="M36.6351 105.156C35.3557 105.156 34.1261 104.697 33.1703 103.864C32.0402 102.878 31.388 101.459 31.388 99.9699V95.415C30.6214 95.1636 29.8697 94.8579 29.1428 94.4932L26.6437 96.9678C24.742 98.8509 21.7451 99.0776 19.6692 97.4903C18.4694 96.5734 17.7326 95.1981 17.6331 93.7094C17.5385 92.2206 18.0911 90.7615 19.1564 89.7066L21.7302 87.158C21.3668 86.4432 21.0531 85.6939 20.7992 84.9348H16.3088C13.6206 84.9348 11.3405 82.9925 11.002 80.4193C10.8078 78.9355 11.2708 77.4419 12.2665 76.3179C13.2621 75.1989 14.6959 74.5532 16.1993 74.5532H20.7992C21.0531 73.7891 21.3668 73.0398 21.7302 72.3299L19.2311 69.8553C17.3294 67.9722 17.1004 65.0046 18.7034 62.949C19.6293 61.7659 21.0183 61.0314 22.5217 60.9328C24.0351 60.8441 25.5037 61.3913 26.5641 62.4413L29.1379 64.9898C29.8647 64.63 30.6164 64.3194 31.3831 64.068V59.6216C31.3831 56.9596 33.3445 54.7019 35.9432 54.3716C37.4416 54.1794 38.95 54.6329 40.0801 55.6237C41.2102 56.6096 41.8623 58.0293 41.8623 59.5181V64.073C42.629 64.3244 43.3807 64.63 44.1075 64.9948L46.6066 62.5201C48.5083 60.6371 51.5053 60.4103 53.5812 61.9976C54.781 62.9145 55.5227 64.2899 55.6173 65.7786C55.7119 67.2673 55.1593 68.7264 54.094 69.7814L51.5202 72.3299C51.8836 73.0447 52.1972 73.794 52.4511 74.5532H56.9415C59.6348 74.5532 61.9148 76.4954 62.2484 79.0686C62.4425 80.5524 61.9796 82.0461 60.9839 83.17C59.9882 84.289 58.5545 84.9348 57.0511 84.9348H52.4511C52.1972 85.6989 51.8836 86.4432 51.5202 87.158L54.0193 89.6326C55.921 91.5157 56.15 94.4833 54.547 96.5389C53.621 97.722 52.2271 98.4565 50.7286 98.5551C49.2252 98.6488 47.7516 98.1016 46.6863 97.0467L44.1125 94.4981C43.3857 94.8579 42.634 95.1685 41.8673 95.4199V99.8664C41.8673 102.528 39.9059 104.786 37.3072 105.121C37.0882 105.141 36.8592 105.156 36.6351 105.156ZM29.0682 94.0446L29.1876 94.1037C29.9742 94.503 30.7956 94.8382 31.627 95.1044L31.7564 95.1439V99.9699C31.7564 101.355 32.3588 102.671 33.4092 103.588C34.2954 104.362 35.4404 104.786 36.6302 104.786C36.8393 104.786 37.0533 104.771 37.2574 104.747C39.6719 104.441 41.489 102.336 41.489 99.8614V95.1439L41.6184 95.1044C42.4498 94.8382 43.2712 94.503 44.0578 94.1037L44.1772 94.0446L46.9402 96.7805C47.9309 97.7614 49.2949 98.2692 50.6938 98.1805C52.0877 98.0917 53.3821 97.4115 54.2433 96.3072C55.7318 94.3995 55.5177 91.639 53.7505 89.889L51.0622 87.227L51.1219 87.1087C51.5202 86.3348 51.8637 85.5214 52.1325 84.6883L52.1724 84.5601H57.0461C58.445 84.5601 59.7742 83.9637 60.7001 82.9235C61.6261 81.8834 62.0492 80.4982 61.87 79.1179C61.5614 76.7271 59.4406 74.9278 56.9366 74.9278H52.1724L52.1325 74.7996C51.8637 73.9665 51.5252 73.1581 51.1219 72.3842L51.0622 72.2659L53.8301 69.525C54.8158 68.544 55.3336 67.1934 55.2439 65.8082C55.1543 64.4279 54.4673 63.1462 53.3522 62.2934C51.4256 60.8195 48.6378 61.0314 46.8705 62.7814L44.1822 65.4434L44.0627 65.3842C43.2762 64.9849 42.4548 64.6497 41.6234 64.3835L41.4939 64.3441V59.523C41.4939 58.1378 40.8916 56.8216 39.8412 55.9047C38.7858 54.9878 37.3869 54.5639 35.9979 54.7463C33.5835 55.0519 31.7614 57.1519 31.7614 59.6314V64.349L31.632 64.3884C30.7956 64.6546 29.9742 64.9898 29.1926 65.3891L29.0731 65.4483L26.3052 62.7124C25.3195 61.7364 23.9505 61.2286 22.5516 61.3124C21.1577 61.4011 19.8633 62.0814 19.0071 63.1856C17.5186 65.0934 17.7326 67.8539 19.4999 69.6039L22.1882 72.2659L22.1284 72.3842C21.7302 73.1581 21.3867 73.9715 21.1179 74.8046L21.078 74.9327H16.2093C14.8104 74.9327 13.4812 75.5292 12.5552 76.5693C11.6293 77.6095 11.2061 78.9996 11.3853 80.3799C11.694 82.7707 13.8197 84.57 16.3188 84.57H21.083L21.1228 84.6982C21.3917 85.5263 21.7302 86.3397 22.1334 87.1136L22.1932 87.2319L19.4252 89.9728C18.4395 90.9488 17.9218 92.3044 18.0114 93.6896C18.101 95.0699 18.788 96.3516 19.9032 97.2044C21.8297 98.6783 24.6176 98.4664 26.3849 96.7164L29.0682 94.0446ZM36.6302 101.271C36.3066 101.271 36.0079 101.158 35.7639 100.946C35.4802 100.699 35.3159 100.345 35.3159 99.9699V94.3699C35.3159 93.2361 34.5343 92.2453 33.4192 91.9594C32.2841 91.6685 31.1889 91.2199 30.1783 90.6333C29.785 90.4066 29.342 90.2833 28.8889 90.2833C28.2169 90.2833 27.5896 90.5397 27.1167 91.008L23.8708 94.222C23.368 94.715 22.5815 94.8037 22.0737 94.4143C21.765 94.1777 21.5808 93.8375 21.5559 93.458C21.531 93.0833 21.6704 92.7185 21.9343 92.4523L25.2548 89.1643C26.0613 88.3657 26.2206 87.1186 25.6381 86.1327C25.0457 85.132 24.5927 84.0524 24.299 82.9235C24.0102 81.8193 23.0096 81.0454 21.8646 81.0454H16.3088C15.6019 81.0454 14.9796 80.5524 14.895 79.9214C14.8452 79.5369 14.9547 79.1721 15.2086 78.8862C15.4576 78.6052 15.821 78.4426 16.1943 78.4426H21.8497C22.9947 78.4426 23.9953 77.6686 24.284 76.5644C24.5778 75.4356 25.0308 74.356 25.6232 73.3553C26.2057 72.3694 26.0513 71.1222 25.2399 70.3236L21.994 67.1096C21.4912 66.6117 21.4066 65.8279 21.7999 65.3251C22.0388 65.0194 22.3774 64.837 22.7607 64.8124C23.139 64.7877 23.5174 64.9307 23.7763 65.192L27.0968 68.48C27.9032 69.2835 29.1627 69.4363 30.1584 68.8595C31.174 68.268 32.2642 67.8243 33.3993 67.5286C34.5144 67.2427 35.296 66.2518 35.296 65.118V59.6216C35.296 58.9167 35.7938 58.3054 36.4261 58.2265C36.8144 58.1822 37.1877 58.2906 37.4765 58.5371C37.7602 58.7836 37.9245 59.1434 37.9245 59.5131V65.1131C37.9245 66.2469 38.7061 67.2377 39.8212 67.5236C40.9613 67.8145 42.0515 68.2631 43.0621 68.8497C44.0578 69.4314 45.3173 69.2785 46.1287 68.475L49.3746 65.261C49.8774 64.7631 50.6689 64.6793 51.1767 65.0687C51.4853 65.3053 51.6695 65.6455 51.6944 66.0251C51.7193 66.3997 51.5799 66.7645 51.3161 67.0307L47.9956 70.3187C47.1891 71.1173 47.0298 72.3644 47.6122 73.3504C48.2047 74.3511 48.6577 75.4306 48.9514 76.5595C49.2401 77.6637 50.2408 78.4376 51.3858 78.4376H56.9366C57.6485 78.4376 58.2658 78.9306 58.3504 79.5616C58.4002 79.9461 58.2857 80.3109 58.0368 80.5968C57.7878 80.8778 57.4244 81.0404 57.0511 81.0404H51.3957C50.2507 81.0404 49.2501 81.8144 48.9614 82.9186C48.6627 84.0524 48.2146 85.132 47.6172 86.1327C47.0348 87.1186 47.1941 88.3657 48.0005 89.1643L51.2464 92.3784C51.7492 92.8763 51.8338 93.6601 51.4405 94.1629C51.117 94.577 50.6988 94.6608 50.4748 94.6755C50.1064 94.7051 49.728 94.5622 49.4592 94.296L46.1387 91.008C45.3272 90.2045 44.0677 90.0516 43.0721 90.6284C42.0615 91.2199 40.9712 91.6636 39.8262 91.9594C38.7111 92.2453 37.9345 93.2361 37.9345 94.3699V99.8614C37.9345 100.561 37.4366 101.178 36.7994 101.261C36.7447 101.266 36.6899 101.271 36.6302 101.271ZM28.8889 89.9087C29.4067 89.9087 29.9194 90.0467 30.3675 90.308C31.3532 90.8798 32.4086 91.3136 33.5138 91.5946C34.7932 91.9249 35.6893 93.0636 35.6893 94.365V99.965C35.6893 100.231 35.8087 100.487 36.0129 100.665C36.217 100.847 36.4858 100.926 36.7646 100.892C37.2176 100.833 37.576 100.379 37.576 99.8614V94.3699C37.576 93.0685 38.4671 91.9298 39.7466 91.5995C40.8567 91.3136 41.9171 90.8798 42.8978 90.308C44.0378 89.6425 45.4865 89.8249 46.4175 90.7467L49.738 94.0347C49.9271 94.222 50.2009 94.3256 50.4598 94.3058C50.6191 94.296 50.9228 94.2368 51.1568 93.9361C51.4356 93.5763 51.3659 93.0094 50.9925 92.6396L47.7467 89.4305C46.8157 88.5136 46.6365 87.0791 47.3036 85.9503C47.8811 84.9791 48.3192 83.9341 48.6079 82.8348C48.9414 81.5679 50.0914 80.6806 51.4057 80.6806H57.061C57.3298 80.6806 57.5887 80.5623 57.7679 80.3602C57.9471 80.1581 58.0268 79.8919 57.992 79.6158C57.9322 79.1672 57.4742 78.8172 56.9515 78.8172H51.4007C50.0864 78.8172 48.9365 77.9299 48.6029 76.663C48.3142 75.5686 47.8811 74.5187 47.3036 73.5475C46.6315 72.4187 46.8157 70.9842 47.7417 70.0673L51.0622 66.7793C51.2514 66.5919 51.3509 66.3258 51.336 66.0596C51.3161 65.7884 51.1866 65.5469 50.9626 65.3744C50.5992 65.0983 50.0267 65.1673 49.6533 65.537L46.4075 68.7511C45.4766 69.6729 44.0279 69.8504 42.8879 69.1849C41.9071 68.6131 40.8517 68.1842 39.7466 67.8983C38.4671 67.568 37.5711 66.4293 37.5711 65.1279V59.5279C37.5711 59.2617 37.4516 59.0054 37.2475 58.8279C37.0434 58.6505 36.7745 58.5716 36.4908 58.6061C36.0427 58.6652 35.6843 59.1138 35.6843 59.6364V65.1328C35.6843 66.4342 34.7882 67.5729 33.5088 67.9032C32.4036 68.1891 31.3432 68.6229 30.3625 69.1947C29.2225 69.8602 27.7788 69.6778 26.8478 68.7609L23.5273 65.4729C23.3382 65.2856 23.0693 65.187 22.8005 65.2018C22.5267 65.2215 22.2828 65.3497 22.1085 65.5715C21.8297 65.9314 21.8994 66.4983 22.2728 66.868L25.5187 70.0771C26.4496 70.999 26.6288 72.4285 25.9567 73.5574C25.3793 74.5285 24.9412 75.5785 24.6574 76.6729C24.3239 77.9398 23.1739 78.8271 21.8596 78.8271H16.1993C15.9305 78.8271 15.6716 78.9454 15.4924 79.1475C15.3082 79.3496 15.2285 79.6158 15.2684 79.8919C15.3281 80.3404 15.7861 80.6904 16.3088 80.6904H21.8596C23.1739 80.6904 24.3239 81.5778 24.6574 82.8447C24.9461 83.939 25.3793 84.989 25.9567 85.9601C26.6288 87.089 26.4446 88.5235 25.5187 89.4404L22.1981 92.7284C22.009 92.9157 21.9094 93.177 21.9243 93.4481C21.9442 93.7192 22.0737 93.9608 22.2977 94.1333C22.6611 94.4094 23.2336 94.3403 23.607 93.9706L26.8528 90.7566C27.3905 90.2045 28.1173 89.9087 28.8889 89.9087Z" fill="white"/>
<path d="M22.223 53.3611C26.35 53.3611 29.7054 50.0386 29.7054 45.952C29.7054 41.8654 26.35 38.5429 22.223 38.5429C18.096 38.5429 14.7407 41.8654 14.7407 45.952C14.7407 50.0386 18.096 53.3611 22.223 53.3611ZM22.223 42.4323C24.1845 42.4323 25.7825 44.0147 25.7825 45.9569C25.7825 47.8991 24.1845 49.4766 22.223 49.4766C20.2616 49.4766 18.6685 47.8991 18.6685 45.9569C18.6685 44.0097 20.2616 42.4323 22.223 42.4323Z" fill="white"/>
<path d="M22.223 53.5484C17.9965 53.5484 14.5565 50.1421 14.5565 45.9569C14.5565 41.7717 17.9965 38.3605 22.223 38.3605C26.4496 38.3605 29.8946 41.7668 29.8946 45.9569C29.8946 50.1421 26.4546 53.5484 22.223 53.5484ZM22.223 38.7302C18.2006 38.7302 14.9299 41.9689 14.9299 45.9569C14.9299 49.94 18.2006 53.1787 22.223 53.1787C26.2455 53.1787 29.5212 49.94 29.5212 45.9569C29.5212 41.9689 26.2455 38.7302 22.223 38.7302ZM22.223 49.659C20.157 49.659 18.4794 47.9977 18.4794 45.952C18.4794 43.9062 20.157 42.2449 22.223 42.2449C24.289 42.2449 25.9667 43.9062 25.9667 45.952C25.9667 47.9977 24.289 49.659 22.223 49.659ZM22.223 42.6147C20.3661 42.6147 18.8527 44.1132 18.8527 45.952C18.8527 47.7907 20.3661 49.2893 22.223 49.2893C24.0799 49.2893 25.5933 47.7907 25.5933 45.952C25.5933 44.1132 24.0799 42.6147 22.223 42.6147Z" fill="white"/>
<path d="M67.6249 26.0169C67.6249 21.9303 64.2696 18.6078 60.1426 18.6078C56.0156 18.6078 52.6602 21.9303 52.6602 26.0169C52.6602 30.1035 56.0156 33.426 60.1426 33.426C64.2696 33.426 67.6249 30.0986 67.6249 26.0169ZM60.1426 29.5366C58.1811 29.5366 56.5831 27.9591 56.5831 26.0169C56.5831 24.0746 58.1811 22.4923 60.1426 22.4923C62.104 22.4923 63.6971 24.0746 63.6971 26.0169C63.702 27.9591 62.104 29.5366 60.1426 29.5366Z" fill="white"/>
<path d="M60.1426 33.6084C55.916 33.6084 52.471 30.2021 52.471 26.0169C52.471 21.8317 55.911 18.4205 60.1426 18.4205C64.3691 18.4205 67.8091 21.8268 67.8091 26.0169C67.8141 30.2021 64.3741 33.6084 60.1426 33.6084ZM60.1426 18.7902C56.1201 18.7902 52.8444 22.0289 52.8444 26.0169C52.8444 30 56.1151 33.2387 60.1426 33.2387C64.165 33.2387 67.4357 30 67.4357 26.0169C67.4407 22.0338 64.17 18.7902 60.1426 18.7902ZM60.1426 29.7239C58.0766 29.7239 56.3989 28.0627 56.3989 26.0169C56.3989 23.9711 58.0766 22.3099 60.1426 22.3099C62.2085 22.3099 63.8862 23.9711 63.8862 26.0169C63.8862 28.0577 62.2085 29.7239 60.1426 29.7239ZM60.1426 22.6796C58.2857 22.6796 56.7723 24.1782 56.7723 26.0169C56.7723 27.8556 58.2857 29.3542 60.1426 29.3542C61.9995 29.3542 63.5129 27.8556 63.5129 26.0169C63.5129 24.1732 62.0044 22.6796 60.1426 22.6796Z" fill="white"/>
<path d="M70.2485 97.9044C74.0768 97.9044 77.1932 94.8185 77.1932 91.0277C77.1932 87.2369 74.0768 84.151 70.2485 84.151C66.4202 84.151 63.3038 87.2369 63.3038 91.0277C63.3038 94.8185 66.4202 97.9044 70.2485 97.9044ZM70.2485 88.0404C71.9112 88.0404 73.2653 89.3812 73.2653 91.0277C73.2653 92.6742 71.9112 94.015 70.2485 94.015C68.5857 94.015 67.2316 92.6742 67.2316 91.0277C67.2316 89.3812 68.5857 88.0404 70.2485 88.0404Z" fill="white"/>
<path d="M70.2485 98.0868C66.3156 98.0868 63.1196 94.9171 63.1196 91.0277C63.1196 87.1334 66.3206 83.9686 70.2485 83.9686C74.1763 83.9686 77.3774 87.1383 77.3774 91.0277C77.3774 94.922 74.1813 98.0868 70.2485 98.0868ZM70.2485 84.3383C66.5247 84.3383 63.4929 87.3404 63.4929 91.0277C63.4929 94.715 66.5247 97.7171 70.2485 97.7171C73.9722 97.7171 77.004 94.715 77.004 91.0277C77.004 87.3404 73.9722 84.3383 70.2485 84.3383ZM70.2485 94.2023C68.4812 94.2023 67.0425 92.7777 67.0425 91.0277C67.0425 89.2777 68.4812 87.8531 70.2485 87.8531C72.0158 87.8531 73.4545 89.2777 73.4545 91.0277C73.4545 92.7777 72.0158 94.2023 70.2485 94.2023ZM70.2485 88.2228C68.6853 88.2228 67.4158 89.4798 67.4158 91.0277C67.4158 92.5756 68.6853 93.8326 70.2485 93.8326C71.8117 93.8326 73.0811 92.5756 73.0811 91.0277C73.0811 89.4798 71.8117 88.2228 70.2485 88.2228Z" fill="white"/>
</svg>
