<svg width="201" height="145" viewBox="0 0 201 145" fill="none" xmlns="http://www.w3.org/2000/svg">
<path d="M158.507 26.748C161.852 26.748 164.951 28.5076 166.665 31.3805L195.602 79.8805C197.391 82.879 197.391 86.6171 195.602 89.6156L166.665 138.116C164.951 140.988 161.852 142.748 158.507 142.748H99.999C96.6536 142.748 93.5548 140.988 91.8408 138.116L62.9038 89.6156C61.1148 86.6171 61.1148 82.879 62.9038 79.8805L91.8408 31.3805C93.5548 28.5076 96.6536 26.748 99.999 26.748H158.507Z" fill="url(#paint0_radial_2802_896)" stroke="white" stroke-width="3"/>
<path d="M120.903 100.631V99.4821C120.926 95.5414 121.279 92.4001 121.962 90.0582C122.668 87.7163 123.692 85.8248 125.035 84.3836C126.379 82.9425 127.995 81.6364 129.885 80.4655C131.296 79.5647 132.56 78.6302 133.675 77.6619C134.791 76.6937 135.679 75.624 136.339 74.4531C136.999 73.2596 137.329 71.931 137.329 70.4674C137.329 68.9136 136.954 67.5512 136.202 66.3803C135.451 65.2094 134.438 64.3086 133.163 63.6781C131.911 63.0476 130.522 62.7323 128.997 62.7323C127.517 62.7323 126.117 63.0589 124.796 63.7119C123.476 64.3424 122.394 65.2882 121.552 66.5492C120.71 67.7877 120.254 69.3302 120.186 71.1767H106.253C106.367 66.673 107.46 62.9575 109.531 60.0302C111.603 57.0803 114.346 54.8847 117.761 53.4436C121.176 51.9799 124.944 51.248 129.065 51.248C133.596 51.248 137.603 51.9911 141.086 53.4774C144.569 54.941 147.301 57.069 149.282 59.8613C151.263 62.6535 152.253 66.02 152.253 69.9607C152.253 72.5953 151.809 74.9372 150.921 76.9864C150.056 79.013 148.838 80.8145 147.267 82.3908C145.696 83.9445 143.841 85.3519 141.701 86.6129C139.902 87.6713 138.422 88.7747 137.261 89.9231C136.123 91.0715 135.269 92.4001 134.7 93.9088C134.153 95.4176 133.869 97.2753 133.846 99.4821V100.631H120.903ZM127.665 122.248C125.388 122.248 123.442 121.46 121.825 119.884C120.232 118.285 119.446 116.371 119.469 114.141C119.446 111.935 120.232 110.043 121.825 108.467C123.442 106.891 125.388 106.102 127.665 106.102C129.828 106.102 131.729 106.891 133.368 108.467C135.007 110.043 135.838 111.935 135.861 114.141C135.838 115.628 135.44 116.99 134.666 118.229C133.914 119.445 132.924 120.424 131.695 121.167C130.465 121.888 129.122 122.248 127.665 122.248Z" fill="white"/>
<path d="M0.00500342 53.4329V11.6682C-0.0841013 8.66617 1.01995 5.75138 3.07481 3.56374C5.12967 1.3761 7.96745 0.0943993 10.9651 0H90.5716C93.5692 0.0943993 96.407 1.3761 98.4619 3.56374C100.517 5.75138 101.621 8.66617 101.532 11.6682V53.4329C101.617 56.4324 100.511 59.3433 98.4564 61.5277C96.4019 63.712 93.5666 64.9916 90.5716 65.0861H36.8992L27.8787 78.3201C27.553 78.7959 27.0804 79.1515 26.5334 79.3324C25.9864 79.5133 25.3953 79.5094 24.8507 79.3214C24.3061 79.1333 23.8382 78.7715 23.5189 78.2915C23.1995 77.8114 23.0462 77.2396 23.0826 76.6639V65.0861H11.0552C9.56448 65.051 8.09537 64.7213 6.73227 64.116C5.36916 63.5107 4.13885 62.6417 3.11207 61.5589C2.08529 60.4761 1.28223 59.2008 0.74901 57.8063C0.215791 56.4118 -0.0369934 54.9255 0.00500342 53.4329Z" fill="white"/>
<path d="M30.1187 38.1074C33.3237 38.1074 35.9219 35.5055 35.9219 32.2959C35.9219 29.0863 33.3237 26.4844 30.1187 26.4844C26.9136 26.4844 24.3154 29.0863 24.3154 32.2959C24.3154 35.5055 26.9136 38.1074 30.1187 38.1074Z" fill="#DC0000"/>
<path d="M49.9939 38.1074C53.199 38.1074 55.7972 35.5055 55.7972 32.2959C55.7972 29.0863 53.199 26.4844 49.9939 26.4844C46.7889 26.4844 44.1907 29.0863 44.1907 32.2959C44.1907 35.5055 46.7889 38.1074 49.9939 38.1074Z" fill="#DC0000"/>
<path d="M69.8843 38.1074C73.0893 38.1074 75.6875 35.5055 75.6875 32.2959C75.6875 29.0863 73.0893 26.4844 69.8843 26.4844C66.6793 26.4844 64.0811 29.0863 64.0811 32.2959C64.0811 35.5055 66.6793 38.1074 69.8843 38.1074Z" fill="#DC0000"/>
<defs>
<radialGradient id="paint0_radial_2802_896" cx="0" cy="0" r="1" gradientUnits="userSpaceOnUse" gradientTransform="translate(73.6324 186.748) rotate(-30.5082) scale(200.921 158.789)">
<stop stop-color="#FAA628"/>
<stop offset="0.59375" stop-color="#E62C28"/>
<stop offset="1" stop-color="#A01A19"/>
</radialGradient>
</defs>
</svg>
