<svg width="48" height="48" viewBox="0 0 48 48" fill="none" xmlns="http://www.w3.org/2000/svg">
<path d="M3.21886 12.002C9.84517 0.524897 24.5209 -3.40745 35.998 3.21886C47.4751 9.84517 51.4074 24.5209 44.7811 35.998C38.1548 47.4751 23.4791 51.4074 12.002 44.7811C0.524897 38.1548 -3.40745 23.4791 3.21886 12.002Z" fill="url(#paint0_radial_943_1019)"/>
<path d="M16.9464 19.4889C16.923 18.1884 17.128 17.087 17.5615 16.1848C18.0068 15.2826 18.5985 14.562 19.3366 14.023C20.0865 13.4841 20.9125 13.0916 21.8147 12.8455C22.7286 12.5995 23.6425 12.4764 24.5564 12.4764C25.8453 12.4764 27.0521 12.7049 28.1769 13.1619C29.3017 13.6071 30.2157 14.2925 30.9187 15.2182C31.6217 16.1321 31.9732 17.2862 31.9732 18.6805C31.9732 19.6764 31.7974 20.52 31.4459 21.2113C31.1061 21.9026 30.6726 22.4943 30.1454 22.9864C29.6298 23.4785 29.0908 23.9413 28.5284 24.3748C27.8489 24.8904 27.304 25.3298 26.8939 25.693C26.4839 26.0562 26.1851 26.4487 25.9976 26.8705C25.8219 27.2806 25.734 27.8196 25.734 28.4874V29.4716H22.0959L22.0783 28.1887C22.0432 27.3333 22.1662 26.5776 22.4474 25.9215C22.7403 25.2653 23.1387 24.6736 23.6425 24.1464C24.1464 23.6191 24.7029 23.1329 25.3122 22.6876C26.1441 22.0666 26.8002 21.4984 27.2806 20.9828C27.761 20.4673 28.0012 19.7701 28.0012 18.8914C28.0012 18.1298 27.8254 17.5088 27.4739 17.0284C27.1341 16.548 26.6889 16.2024 26.1382 15.9915C25.5875 15.7689 24.9958 15.6575 24.3631 15.6575C23.7304 15.6575 23.1797 15.7571 22.7111 15.9563C22.2424 16.1438 21.8499 16.4133 21.5335 16.7648C21.2289 17.1163 20.9945 17.5264 20.8305 17.995C20.6782 18.452 20.5962 18.95 20.5845 19.4889H16.9464ZM21.6214 35.0781C21.6214 34.422 21.8499 33.883 22.3068 33.4612C22.7755 33.0394 23.3379 32.8285 23.994 32.8285C24.6385 32.8285 25.1892 33.0394 25.6461 33.4612C26.1148 33.883 26.3491 34.422 26.3491 35.0781C26.3491 35.7343 26.1148 36.2791 25.6461 36.7126C25.1892 37.1344 24.6385 37.3453 23.994 37.3453C23.3379 37.3453 22.7755 37.1344 22.3068 36.7126C21.8499 36.2791 21.6214 35.7343 21.6214 35.0781Z" fill="white"/>
<defs>
<radialGradient id="paint0_radial_943_1019" cx="0" cy="0" r="1" gradientUnits="userSpaceOnUse" gradientTransform="translate(31.7213 62.5726) rotate(-96.4135) scale(82.5862 71.8841)">
<stop stop-color="#FAA628"/>
<stop offset="0.495518" stop-color="#E62C28"/>
<stop offset="1" stop-color="#A01A19"/>
</radialGradient>
</defs>
</svg>
