<svg width="210" height="226" viewBox="0 0 210 226" fill="none" xmlns="http://www.w3.org/2000/svg">
<path d="M166.46 87.6535C166.911 83.6718 165.693 79.891 163.367 77.0011C163.663 76.0036 163.886 74.9689 164.008 73.8985C164.655 68.19 162.52 62.8114 158.687 59.105C161.491 57.2693 163.486 54.2481 163.893 50.6612C164.619 44.2629 160.019 38.4844 153.623 37.7589C152.719 37.6564 151.831 37.6713 150.963 37.7703C149.74 27.4843 141.598 19.0057 130.865 17.7882C123.156 16.9139 115.915 19.9905 111.149 25.4006C109.685 16.5663 102.525 9.40849 93.1948 8.35018C86.7843 7.62307 80.7278 9.9331 76.4607 14.1325C73.8324 10.211 69.5678 7.42416 64.5079 6.85023C55.3726 5.81404 47.1233 12.3805 46.0862 21.5237C45.8089 23.9688 46.0787 26.346 46.7935 28.5375C45.5294 28.0038 44.1746 27.6333 42.7431 27.4709C34.6825 26.5567 27.4118 32.3524 26.4977 40.4109C26.106 43.8646 26.954 47.1746 28.6776 49.8997C22.164 52.1627 17.1869 57.9921 16.3576 65.3038C15.729 70.8459 17.6196 76.0907 21.1175 79.9036C18.1348 82.2925 16.0542 85.8147 15.5891 89.9154C14.8839 96.1329 18.094 101.889 23.2527 104.734C20.3592 107.822 18.397 111.83 17.8833 116.358C16.6164 127.528 24.6436 137.613 35.8096 138.879C40.7934 139.445 45.559 138.154 49.427 135.562C52.023 139.514 56.2891 142.33 61.3538 142.904C62.2858 143.01 63.2128 143.033 64.1194 142.982C65.3801 149.957 71.0763 155.58 78.4807 156.42C83.8497 157.029 88.9029 154.986 92.3421 151.334C94.2512 154.036 97.2467 155.952 100.794 156.354C104.908 156.821 108.773 155.149 111.277 152.224C113.581 153.738 116.259 154.755 119.184 155.086C129.133 156.215 138.113 149.062 139.242 139.11C139.663 135.399 138.931 131.828 137.335 128.741C147.716 129.201 156.83 121.547 158.02 111.062C158.472 107.076 157.713 103.232 156.04 99.8955C161.503 98.3613 165.779 93.6523 166.46 87.6535ZM134.532 28.2696C137.366 28.591 139.402 31.1493 139.081 33.9845C138.759 36.8198 136.201 38.8569 133.367 38.5354C130.533 38.214 128.497 35.6557 128.818 32.8205C129.14 29.9853 131.697 27.9481 134.532 28.2696ZM130.771 44.818C136.697 45.4901 140.955 50.8396 140.282 56.767C139.61 62.6943 134.262 66.9542 128.337 66.2822C122.411 65.6101 118.153 60.2606 118.825 54.3332C119.493 48.4053 124.846 44.1459 130.771 44.818ZM117.936 73.7225C117.615 76.5577 115.057 78.5949 112.223 78.2734C109.389 77.9519 107.352 75.3937 107.674 72.5585C107.995 69.7232 110.553 67.686 113.387 68.0075C116.217 68.3285 118.258 70.8872 117.936 73.7225ZM107.235 32.6852C111.125 33.1265 113.916 36.6375 113.475 40.5241C113.034 44.4154 109.523 47.207 105.638 46.7663C101.748 46.3251 98.9577 42.814 99.3985 38.9275C99.8394 35.0409 103.35 32.2445 107.235 32.6852ZM89.0136 15.8695C91.8479 16.191 93.8841 18.7492 93.5625 21.5845C93.241 24.4197 90.6835 26.4569 87.8492 26.1354C85.0148 25.8139 82.9785 23.2557 83.3001 20.4204C83.6169 17.5847 86.1793 15.5481 89.0136 15.8695ZM60.0178 13.101C62.5667 13.3901 64.4007 15.6941 64.1115 18.244C63.8223 20.7938 61.5189 22.6285 58.9699 22.3394C56.4209 22.0503 54.587 19.7463 54.8762 17.1964C55.166 14.6419 57.4688 12.8119 60.0178 13.101ZM57.2021 34.1461C61.4773 34.631 64.5507 38.4922 64.0656 42.7689C63.5805 47.0455 59.7204 50.1202 55.4452 49.6353C51.17 49.1504 48.0965 45.2892 48.5816 41.0126C49.0667 36.7359 52.9268 33.6612 57.2021 34.1461ZM25.623 63.8348C26.0283 60.2622 29.2524 57.6984 32.8191 58.1029C36.3905 58.508 38.9533 61.733 38.5486 65.3009C38.1434 68.8735 34.9192 71.4373 31.3525 71.0328C27.7811 70.6277 25.2178 67.4074 25.623 63.8348ZM35.0827 129.406C30.3319 128.867 26.9169 124.577 27.456 119.824C27.995 115.072 32.2841 111.656 37.0349 112.195C41.7857 112.733 45.2006 117.024 44.6616 121.776C44.1225 126.528 39.8335 129.945 35.0827 129.406ZM42.4811 94.7966C38.515 94.3468 35.665 90.7663 36.115 86.7988C36.565 82.8314 40.1445 79.9802 44.1106 80.4301C48.0768 80.88 50.9267 84.4604 50.4767 88.4278C50.0267 92.3953 46.4472 95.2465 42.4811 94.7966ZM61.6068 64.4471C66.0151 64.9471 69.1813 68.9248 68.6812 73.3346C68.181 77.7445 64.2043 80.912 59.7959 80.412C55.3875 79.9119 52.2214 75.9343 52.7216 71.5244C53.2218 67.1146 57.2031 63.9476 61.6068 64.4471ZM58.4665 120.754C52.4222 120.069 48.0756 114.608 48.7614 108.562C49.4472 102.515 54.9065 98.167 60.9508 98.8526C66.995 99.5382 71.3417 104.999 70.6559 111.045C69.9701 117.091 64.5108 121.44 58.4665 120.754ZM70.3237 48.8318C71.0095 42.7855 76.4687 38.4371 82.513 39.1226C88.5573 39.8082 92.904 45.2689 92.2182 51.3152C91.5324 57.3616 86.0731 61.71 80.0288 61.0244C73.9845 60.3388 69.6379 54.8781 70.3237 48.8318ZM76.0986 81.2782C77.0116 73.2291 84.2765 67.4424 92.3229 68.3551C100.369 69.2677 106.154 76.5346 105.241 84.5836C104.328 92.6327 97.0627 98.4194 89.0164 97.5067C80.97 96.5941 75.1857 89.3272 76.0986 81.2782ZM93.7894 109.824C93.3923 113.325 90.2364 115.839 86.7364 115.442C83.2363 115.045 80.7235 111.888 81.1207 108.387C81.5178 104.886 84.6737 102.372 88.1738 102.769C91.6739 103.166 94.186 106.328 93.7894 109.824ZM87.2806 145.763C81.3552 145.091 77.0971 139.741 77.7694 133.814C78.4417 127.887 83.7898 123.627 89.7152 124.299C95.6406 124.971 99.8987 130.32 99.2264 136.248C98.5541 142.175 93.206 146.435 87.2806 145.763ZM105.57 126.565C100.672 126.009 97.1516 121.586 97.7074 116.687C98.2631 111.787 102.685 108.265 107.583 108.82C112.481 109.376 116.001 113.799 115.446 118.698C114.885 123.598 110.468 127.12 105.57 126.565ZM115.146 98.3263C112.597 98.0372 110.763 95.7332 111.052 93.1834C111.341 90.6336 113.645 88.7989 116.193 89.088C118.742 89.3771 120.576 91.6811 120.287 94.2309C119.997 96.7855 117.695 98.6154 115.146 98.3263ZM121.469 143.435C117.897 143.03 115.335 139.805 115.739 136.237C116.145 132.664 119.369 130.1 122.935 130.505C126.507 130.91 129.07 134.135 128.665 137.703C128.26 141.271 125.04 143.84 121.469 143.435ZM134.093 111.331C130.522 110.926 127.959 107.701 128.364 104.133C128.769 100.561 131.993 97.9967 135.56 98.4013C139.127 98.8058 141.694 102.031 141.29 105.599C140.885 109.167 137.66 111.736 134.093 111.331ZM140.535 83.4169C136.645 82.9756 133.855 79.4646 134.295 75.578C134.736 71.6915 138.247 68.8951 142.132 69.3358C146.017 69.7765 148.813 73.2881 148.372 77.1746C147.93 81.066 144.425 83.8581 140.535 83.4169Z" fill="#DC0000"/>
<path d="M113.989 178.707L103.46 180.607L106.985 199.709L104.092 200.231L100.136 178.823L113.558 176.4L113.989 178.707Z" fill="#DC0000"/>
<path d="M130.847 185.131C131.652 187.459 131.757 189.522 131.161 191.312C130.566 193.102 129.337 194.308 127.483 194.93C125.587 195.561 123.894 195.474 122.396 194.66L124.942 202.031L122.268 202.926L114.951 181.73L117.393 180.914L118.11 182.57C118.743 180.887 120.024 179.721 121.962 179.071C123.837 178.444 125.559 178.639 127.131 179.659C128.704 180.679 129.916 182.428 130.768 184.896L130.847 185.131ZM128.071 185.728C127.479 184.002 126.631 182.767 125.534 182.014C124.441 181.266 123.234 181.109 121.927 181.547C120.308 182.087 119.34 183.201 119.017 184.878L121.54 192.196C122.818 193.326 124.284 193.616 125.932 193.063C127.214 192.634 128.059 191.795 128.472 190.548C128.884 189.294 128.75 187.69 128.071 185.728Z" fill="#DC0000"/>
<path d="M140.96 170.62L143.425 169.266L151.445 183.382L148.981 184.736L143.131 174.441L142.335 188.378L139.87 189.732L131.85 175.616L134.314 174.262L140.168 184.569L140.96 170.62Z" fill="#DC0000"/>
<path d="M153.565 162.774C155.164 161.473 156.881 160.959 158.724 161.225C160.567 161.491 162.21 162.479 163.655 164.191L163.822 164.386C164.813 165.558 165.462 166.795 165.782 168.093C166.097 169.396 166.037 170.651 165.603 171.861C165.164 173.075 164.385 174.138 163.258 175.057C161.55 176.445 159.703 177.009 157.72 176.735C155.737 176.469 153.955 175.393 152.369 173.511L151.497 172.473C149.29 169.856 148.035 167.372 147.73 165.028C147.421 162.68 148.091 160.554 149.745 158.639C150.68 157.559 151.224 156.716 151.376 156.128C151.528 155.54 151.401 155.003 150.992 154.52L152.778 153.067C153.588 154.024 153.999 154.952 154.005 155.848C154.015 156.748 153.628 157.702 152.843 158.71L151.522 160.381C150.484 161.731 149.937 163.024 149.889 164.259C149.842 165.493 150.212 166.781 151.017 168.122C151.056 165.908 151.907 164.119 153.565 162.774ZM154.613 164.865C153.548 165.728 152.997 166.767 152.962 167.98C152.927 169.194 153.431 170.419 154.479 171.66L154.633 171.843C155.757 173.177 156.965 173.976 158.252 174.247C159.538 174.51 160.722 174.209 161.796 173.338C162.877 172.457 163.405 171.374 163.37 170.079C163.34 168.788 162.69 167.389 161.422 165.888C160.431 164.716 159.323 164.026 158.094 163.832C156.86 163.635 155.699 163.98 154.613 164.865Z" fill="#DC0000"/>
<path d="M170.974 157.657L169.64 159.195L174.977 163.661L173.135 165.782L160.6 155.307L162.443 153.185L167.749 157.623L168.948 156.243L167.248 147.661L169.468 145.11L171.25 155.023L182.356 155.174L180.029 157.853L170.974 157.657Z" fill="#DC0000"/>
<path d="M176.694 133.417L178.121 131.025L192.339 139.176L190.913 141.568L180.545 135.622L187.061 148.011L185.634 150.403L171.416 142.252L172.843 139.861L183.223 145.81L176.694 133.417Z" fill="#DC0000"/>
</svg>
