<svg width="93" height="107" viewBox="0 0 93 107" fill="none" xmlns="http://www.w3.org/2000/svg">
<path d="M79.6705 69.5968L76.3179 67.3C81.9287 59.3596 91.4721 40.5304 87.4293 26.0857C85.408 18.8653 80.1973 13.3385 71.9443 9.66192C59.9508 4.32007 43.894 3.12941 27.8904 6.39969C27.7638 6.42382 19.6823 8.07706 15.8846 8.84937C16.7789 11.7214 19.4128 13.8332 22.5776 14.0022L31.5983 14.4849C35.1184 14.6739 38.2872 16.5685 40.0799 19.5612L51.3507 38.3542C52.2654 39.8788 53.9397 40.7677 55.7447 40.6752C58.5991 40.5264 61.3678 41.7532 63.1523 43.9535L63.7199 44.6534C66.0068 47.4692 66.6683 51.19 65.4881 54.6051L64.4631 57.5736C63.1482 61.3749 59.6812 64.1423 55.6344 64.617L52.8739 64.9428L52.3879 60.9485L55.1485 60.6227C57.6476 60.329 59.7874 58.6235 60.596 56.2744L61.621 53.3058C62.3479 51.198 61.9436 48.9012 60.5306 47.1635L59.963 46.4636C58.9952 45.2729 57.5047 44.6132 55.9529 44.6897C52.6452 44.8626 49.5212 43.2134 47.8306 40.3977L36.5599 21.6047C35.4614 19.7744 33.5216 18.616 31.3696 18.4993L22.3489 18.0166C16.5175 17.7028 11.85 13.1373 11.4906 7.39726L11.3804 5.65553L13.1118 5.30155C27.041 2.45766 27.0614 2.45364 27.0737 2.44961C43.8859 -0.98156 60.8573 0.305633 73.6186 5.98939C83.0313 10.1808 88.9974 16.5806 91.3578 25.0117C96.9237 44.8666 80.3769 68.5952 79.6705 69.5968Z" fill="white"/>
<path d="M39.1734 106.937C38.9692 106.728 37.0785 104.673 33.0684 97.36C30.2997 92.3118 27.6944 90.1436 26.6653 89.4276L18.6328 90.5539C17.0402 90.7792 15.4394 90.393 14.1327 89.4679L11.6539 87.7181C9.2732 86.0367 8.39932 82.8992 9.5754 80.2564L10.6004 77.9555L7.84802 74.9749C7.32532 74.4117 7.06398 73.6796 7.10074 72.9194C7.14157 72.1591 7.4805 71.4592 8.05629 70.9524L9.75099 69.4601L6.72503 67.6017C5.5612 66.8857 5.07117 65.4497 5.55712 64.1866L7.21915 59.8745L2.01664 56.3468C0.873234 55.5745 0.146346 54.3476 0.019754 52.988C-0.106838 51.6284 0.379123 50.293 1.35919 49.3276L12.7565 38.0646C13.1894 37.6342 13.4181 37.0429 13.3813 36.4395L13.3731 36.2867C13.0138 30.3455 14.0551 24.2997 16.3828 18.809L16.4318 18.6884L20.2009 20.237L20.1478 20.3577C18.0529 25.2892 17.1178 30.7115 17.4445 36.0453L17.4527 36.1982C17.5588 37.948 16.8973 39.6656 15.6436 40.9045L4.2463 52.1674C4.08296 52.3324 4.0707 52.5214 4.08295 52.6179C4.09111 52.7185 4.13602 52.9035 4.32795 53.0323L10.3064 57.0869C11.4048 57.8311 11.8377 59.2068 11.3681 60.4336L9.7224 64.7055L13.267 66.8857C14.0306 67.3563 14.5329 68.1648 14.6105 69.0498C14.6881 69.9347 14.3328 70.8156 13.6631 71.4069L11.6784 73.1567L14.1409 75.8236C14.9045 76.6523 15.1046 77.851 14.6472 78.8727L13.3119 81.8774C12.9076 82.7906 13.2098 83.8726 14.0306 84.4559L16.5094 86.2056C16.9586 86.5234 17.5098 86.6562 18.057 86.5797L27.4371 85.2644L27.9966 85.5299C28.4417 85.7431 32.4681 87.8146 36.6579 95.4573C40.3862 102.259 42.1299 104.174 42.1462 104.194L39.1734 106.937Z" fill="white"/>
<path d="M45.0742 90.2683C43.649 90.2683 42.2238 89.7414 41.1417 88.6835C40.0881 87.6537 39.5041 86.2861 39.5041 84.8299C39.5041 83.3738 40.084 82.0062 41.1417 80.9764C43.3101 78.8606 46.8424 78.8606 49.0108 80.9764C50.0644 82.0062 50.6483 83.3738 50.6483 84.8299C50.6483 86.2861 50.0684 87.6537 49.0108 88.6835C47.9246 89.7414 46.4994 90.2683 45.0742 90.2683ZM45.0742 81.8211C44.2779 81.8211 43.4857 82.1148 42.8772 82.7061C42.2973 83.2732 41.9747 84.0254 41.9747 84.8299C41.9747 85.6304 42.2973 86.3866 42.8772 86.9538C44.086 88.1324 46.0583 88.1324 47.2671 86.9538C47.847 86.3866 48.1695 85.6304 48.1695 84.8299C48.1695 84.0295 47.847 83.2773 47.2671 82.7061C46.6627 82.1188 45.8705 81.8211 45.0742 81.8211Z" fill="white"/>
<path d="M36.8865 83.1204C36.7028 83.1204 36.5149 83.0802 36.3393 82.9957C35.7268 82.698 35.4777 81.9659 35.7799 81.3666C37.0009 78.937 39.0427 76.9419 41.5337 75.7552C42.1503 75.4616 42.8895 75.715 43.1835 76.3224C43.4816 76.9258 43.2243 77.6579 42.6077 77.9475C40.6067 78.9008 38.9692 80.4977 37.9932 82.4446C37.7809 82.871 37.3439 83.1204 36.8865 83.1204Z" fill="white"/>
<path d="M31.9331 84.2588C31.831 84.2588 31.7289 84.2467 31.6269 84.2226C30.9653 84.0576 30.5651 83.3939 30.7326 82.7423C32.2435 76.8735 36.9192 72.308 42.9385 70.8358C43.6041 70.6708 44.2697 71.0731 44.4371 71.7247C44.6005 72.3764 44.2003 73.036 43.5347 73.201C38.4016 74.456 34.416 78.3417 33.1296 83.3416C32.9908 83.8927 32.4885 84.2588 31.9331 84.2588Z" fill="white"/>
<path d="M48.0756 94.0294C47.6183 94.0294 47.1773 93.7759 46.9608 93.3415C46.6627 92.7381 46.92 92.0061 47.5366 91.7164C49.5376 90.7631 51.1751 89.1662 52.1511 87.2193C52.4533 86.6159 53.1965 86.3706 53.805 86.6682C54.4175 86.9659 54.6666 87.698 54.3644 88.2973C53.1434 90.7269 51.1016 92.7221 48.6106 93.9087C48.4391 93.9891 48.2553 94.0294 48.0756 94.0294Z" fill="white"/>
<path d="M46.9077 98.8604C46.3523 98.8604 45.8501 98.4903 45.7072 97.9352C45.5438 97.2835 45.944 96.6239 46.6096 96.4589C51.7427 95.2039 55.7283 91.3182 57.0146 86.3183C57.1821 85.6666 57.8518 85.2724 58.5174 85.4373C59.179 85.6023 59.5791 86.266 59.4117 86.9176C57.9008 92.7904 53.221 97.3519 47.2058 98.8242C47.1078 98.8483 47.0057 98.8604 46.9077 98.8604Z" fill="white"/>
</svg>
