<svg width="194" height="214" viewBox="0 0 194 214" fill="none" xmlns="http://www.w3.org/2000/svg">
<path d="M54.4494 70.2032C54.3614 69.0996 51.9136 68.3572 48.6279 68.3124L47.7935 57.8495C50.7239 57.4558 53.4461 56.4745 55.8529 55.0361L61.4213 63.1261C57.9816 65.5766 55.8221 68.3675 56.5688 69.4511C57.3379 70.5678 60.901 69.4449 64.5262 66.9426C68.1536 64.4401 70.4697 61.5079 69.7028 60.391C69.0668 59.4666 66.5135 60.0788 63.5946 61.737L57.9816 53.5807C60.2597 51.8123 62.1599 49.5963 63.5631 47.0775L72.0493 51.1181C70.4205 54.8244 70.0087 58.1323 71.1594 58.6795C72.3828 59.2624 74.9068 56.5056 76.7991 52.5229C78.6913 48.5402 79.2331 44.8401 78.01 44.2594C76.9588 43.7587 74.9492 45.7239 73.2035 48.8112L64.6789 44.754C65.7432 42.1401 66.3019 39.2808 66.2413 36.3075L75.471 35.5692C75.9611 39.3374 77.1986 42.1468 78.4156 42.0495C79.7646 41.9394 80.5739 38.2877 80.2235 33.8931C79.873 29.4985 78.4952 26.0217 77.146 26.1297C75.9311 26.2268 75.1544 29.1952 75.2657 32.9958L66.0361 33.734C65.6223 30.7867 64.6197 28.0523 63.1548 25.6429L70.9283 20.2821C73.1412 23.0528 75.4368 24.6736 76.3952 24.0122C77.5107 23.2423 76.3894 19.6752 73.89 16.0459C71.3882 12.4125 68.4595 10.094 67.3438 10.8618C66.2944 11.585 67.2252 14.7855 69.4208 18.186L61.6826 23.5242C59.8978 21.2582 57.6706 19.3745 55.1412 17.9906L59.3902 9.04554C62.5349 10.2188 65.153 10.4174 65.6344 9.40357C66.2167 8.1788 63.4631 5.65209 59.4851 3.75787C55.507 1.86365 51.8111 1.32143 51.231 2.54603C50.6676 3.73439 53.2399 6.14687 57.0244 8.01947L52.8088 16.8921C50.2045 15.8545 47.3612 15.3183 44.4056 15.3954L43.571 4.93037C46.808 4.36383 49.1071 3.24174 49.0191 2.13821C48.9135 0.787359 45.266 -0.0227343 40.8764 0.328364C36.4868 0.679462 33.0139 2.05907 33.1218 3.41192C33.2275 4.73658 36.735 5.54042 41.0111 5.24203L41.8386 15.6182C38.9283 16.0452 36.2255 17.0512 33.842 18.5095L27.5734 9.3998C30.1596 7.25981 31.6408 5.09041 31.0048 4.16599C30.2357 3.0493 26.6726 4.17212 23.0474 6.67448C19.42 9.17701 17.1039 12.1092 17.8708 13.2261C18.6154 14.3098 21.9902 13.285 25.5014 10.9379L31.7281 19.9855C29.4261 21.8103 27.5185 24.0968 26.1345 26.6926L17.0662 22.3757C18.695 18.6693 19.1068 15.3614 17.956 14.8142C16.7327 14.2313 14.2087 16.9881 12.3164 20.9708C10.4242 24.9535 9.88236 28.6536 11.1055 29.2343C12.1567 29.735 14.1663 27.7699 15.912 24.6826L25.0596 29.0368C24.0877 31.5517 23.5844 34.2865 23.6408 37.125L13.6813 37.9216C13.1912 34.1534 11.9538 31.344 10.7367 31.4413C9.38755 31.5492 8.57801 35.1988 8.92865 39.5955C9.27912 43.9901 10.657 47.4669 12.0061 47.359C13.221 47.2618 13.9975 44.2913 13.8864 40.4928L23.848 39.6961C24.2422 42.5075 25.1725 45.1277 26.5307 47.4562L18.1997 53.204C15.9868 50.4334 13.6912 48.8126 12.7327 49.474C11.6173 50.2439 12.7386 53.811 15.2379 57.4403C17.7374 61.0717 20.6662 63.3902 21.7818 62.6224C22.8313 61.8992 21.9004 58.6987 19.7048 55.2982L27.9637 49.6019C29.7415 51.9449 31.9872 53.8969 34.5494 55.3349L29.8356 65.2576C25.997 63.5006 22.5026 63.0251 21.939 64.2113C21.3568 65.4361 24.1103 67.9628 28.0884 69.857C32.0664 71.7512 35.7623 72.2935 36.3424 71.0689C36.8239 70.0551 35.0177 68.1486 32.125 66.4468L36.8705 56.4562C39.4548 57.5172 42.2828 58.0808 45.2239 58.0397L46.0514 68.4159C41.782 68.7988 38.4465 70.1522 38.5522 71.4769C38.6599 72.8275 42.3074 73.6376 46.697 73.2865C51.0866 72.9354 54.5573 71.556 54.4494 70.2032ZM46.4547 20.2389C47.975 20.1173 49.3056 21.2523 49.4269 22.7743C49.5483 24.2962 48.4145 25.6284 46.8942 25.75C45.374 25.8716 44.0434 24.7365 43.9221 23.2146C43.8007 21.6926 44.9345 20.3605 46.4547 20.2389ZM31.219 25.1623C31.112 23.8203 32.1123 22.645 33.4528 22.5378C34.7933 22.4305 35.9672 23.4319 36.0742 24.7739C36.1813 26.1159 35.1809 27.2912 33.8405 27.3985C32.5 27.5057 31.3261 26.5043 31.219 25.1623ZM57.3379 24.9038C59.3021 24.7467 61.0209 26.2128 61.1777 28.1792C61.3345 30.1456 59.8699 31.8664 57.9057 32.0236C55.9415 32.1807 54.2228 30.7145 54.066 28.7481C53.9091 26.7817 55.3737 25.0609 57.3379 24.9038ZM44.5447 30.9671C46.5478 30.8069 48.3017 32.303 48.4616 34.3084C48.6215 36.3138 47.127 38.0698 45.1239 38.23C43.1207 38.3902 41.3669 36.8941 41.207 34.8887C41.047 32.8832 42.5415 31.1273 44.5447 30.9671ZM28.8571 37.1659C28.7501 35.8239 29.7504 34.6486 31.0909 34.5414C32.4314 34.4342 33.6053 35.4356 33.7123 36.7776C33.8194 38.1196 32.819 39.2949 31.4785 39.4021C30.1381 39.5093 28.9641 38.5079 28.8571 37.1659ZM51.1738 37.1635C51.0958 36.1857 51.825 35.3267 52.8016 35.2486C53.7783 35.1705 54.6364 35.9004 54.7145 36.8803C54.7927 37.8603 54.0633 38.7172 53.0845 38.7955C52.1057 38.8737 51.2519 38.1435 51.1738 37.1635ZM58.2874 39.5422C59.4178 39.4518 60.4092 40.2955 60.4996 41.4293C60.59 42.5632 59.7471 43.5535 58.6145 43.6441C57.4841 43.7346 56.4928 42.8909 56.4023 41.757C56.3119 40.6232 57.157 39.6327 58.2874 39.5422ZM41.5125 43.7487C41.4423 42.8685 42.0978 42.0961 42.9791 42.0256C43.8584 41.9553 44.6299 42.6114 44.7003 43.4938C44.7705 44.374 44.115 45.1464 43.2337 45.2169C42.3523 45.2874 41.5829 44.6311 41.5125 43.7487ZM32.3083 48.9599C32.1659 47.1734 33.4968 45.6073 35.2834 45.4644C37.0678 45.3217 38.6321 46.6541 38.7747 48.4427C38.9172 50.2291 37.5863 51.7953 35.7997 51.9382C34.0131 52.0811 32.4508 50.7463 32.3083 48.9599ZM47.1944 48.3431C47.0622 46.6845 48.2978 45.2351 49.9523 45.1028C51.609 44.9703 53.0566 46.2073 53.1887 47.8636C53.321 49.5222 52.0854 50.9716 50.4309 51.1039C48.7764 51.2362 47.3267 50.0016 47.1944 48.3431Z" fill="#DC0000"/>
<path d="M0 65.8793L7.03317 59.6857L9.04333 62.0401C9.71158 62.821 10.0545 63.5492 10.0756 64.2201C10.0968 64.891 9.79707 65.4997 9.17957 66.0442C8.85162 66.3345 8.4779 66.4941 8.06334 66.5242C7.64827 66.5568 7.22949 66.4679 6.80898 66.2605C7.03399 66.7426 7.09541 67.2282 6.99077 67.7168C6.88612 68.2055 6.62623 68.6314 6.21656 68.993C5.5866 69.5479 4.90961 69.7751 4.19301 69.6761C3.47444 69.5742 2.78965 69.1412 2.13616 68.3766L0 65.8793ZM4.10026 63.9345L1.57097 66.1623L2.91141 67.7302C3.28934 68.1722 3.69869 68.4217 4.14143 68.4818C4.58469 68.5393 5.00143 68.3969 5.39268 68.0496C6.23993 67.3035 6.25904 66.4604 5.45599 65.5162L4.10026 63.9345ZM4.84386 63.2785L6.06914 64.7137C6.42393 65.1297 6.80904 65.3712 7.22645 65.4415C7.64385 65.5117 8.02476 65.393 8.37412 65.0864C8.76136 64.746 8.94403 64.382 8.92164 63.9967C8.89925 63.6114 8.68927 63.1825 8.28625 62.7115L7.08556 61.3079L4.84386 63.2785Z" fill="#DC0000"/>
<path d="M14.1218 70.4402L15.0229 71.2327L10.5136 76.5587L9.61241 75.7662L12.9004 71.8811L7.1776 73.6312L6.27646 72.8388L10.7833 67.5122L11.687 68.3052L8.39295 72.1944L14.1218 70.4402Z" fill="#DC0000"/>
<path d="M19.7107 78.771C19.142 79.6724 18.4791 80.262 17.7235 80.5454C16.9683 80.8263 16.2442 80.7389 15.5462 80.282C14.8373 79.8149 14.4212 79.2176 14.3018 78.4964L12.5017 81.3453L11.5011 80.6859L16.6815 72.495L17.5957 73.0962L17.2306 73.785C17.9597 73.543 18.6881 73.6603 19.4128 74.1387C20.1147 74.6017 20.5029 75.2348 20.5717 76.0394C20.643 76.8446 20.3759 77.7254 19.7707 78.6791L19.7107 78.771ZM18.7826 77.9962C19.2051 77.3305 19.3958 76.7111 19.3597 76.1392C19.3236 75.5673 19.0602 75.1214 18.57 74.7992C17.9638 74.3991 17.3385 74.3726 16.692 74.7166L14.9044 77.542C14.8632 78.278 15.1501 78.8497 15.7657 79.2544C16.2445 79.5689 16.7467 79.6289 17.2729 79.4317C17.802 79.2326 18.3051 78.7549 18.7826 77.9962Z" fill="#DC0000"/>
<path d="M22.878 82.2728L26.5705 78.2294L27.7174 78.7923L21.7594 84.8851C20.8753 85.749 20.005 85.9732 19.1565 85.5569L18.9605 85.4406L18.5974 85.1671L19.0093 84.2866L19.2883 84.4525C19.6525 84.6318 19.9703 84.696 20.2417 84.6451C20.5151 84.5973 20.8097 84.4073 21.1256 84.075L21.6651 83.5449L22.3712 76.1652L23.5413 76.741L22.878 82.2728Z" fill="#DC0000"/>
<path d="M29.5145 86.003C29.9151 86.1431 30.3087 86.1399 30.6893 85.9975C31.0698 85.855 31.338 85.6041 31.4914 85.2442L32.5563 85.6133C32.4102 85.988 32.1614 86.3088 31.8084 86.57C31.4553 86.8312 31.0444 86.9959 30.5781 87.0644C30.1097 87.13 29.653 87.0879 29.2064 86.9325C28.3082 86.6208 27.6965 86.07 27.3664 85.279C27.0362 84.4881 27.0429 83.5662 27.389 82.5138L27.4511 82.3227C27.6638 81.6714 27.972 81.1355 28.3736 80.7117C28.7753 80.2879 29.2424 80.0123 29.775 79.8848C30.3077 79.7572 30.873 79.7994 31.4744 80.007C32.2133 80.2629 32.7523 80.7008 33.0945 81.3186C33.4366 81.9364 33.5063 82.6101 33.304 83.3371L32.2392 82.9679C32.3475 82.5247 32.3044 82.1139 32.105 81.7345C31.9057 81.3552 31.5945 81.093 31.1672 80.9445C30.595 80.746 30.0821 80.8018 29.6316 81.11C29.1811 81.4181 28.8238 81.967 28.5646 82.7576L28.4949 82.9732C28.2428 83.7419 28.2041 84.3892 28.3793 84.9128C28.5564 85.4395 28.9324 85.8023 29.5145 86.003Z" fill="#DC0000"/>
<path d="M36.3539 84.127L38.1333 84.4399C38.9076 84.5855 39.4901 84.8991 39.8757 85.3795C40.2632 85.8629 40.4004 86.4464 40.288 87.138C40.1752 87.8322 39.8528 88.3493 39.3213 88.687C38.7899 89.0246 38.1305 89.1271 37.3447 88.9868L34.4443 88.4788L35.568 81.5235L36.7385 81.7295L36.3539 84.127ZM36.1976 85.0976L35.7735 87.7147L37.5158 88.0195C37.955 88.0971 38.3127 88.0415 38.5909 87.8557C38.8691 87.67 39.04 87.3768 39.1034 86.9762C39.1663 86.5912 39.1005 86.2541 38.9055 85.9675C38.7105 85.6809 38.4043 85.496 37.9821 85.4116L36.1976 85.0976ZM42.3613 89.8682L41.1834 89.6606L42.3071 82.7053L43.485 82.9129L42.3613 89.8682Z" fill="#DC0000"/>
<path d="M182.917 104.614C183.111 102.906 182.589 101.284 181.593 100.045C181.72 99.6172 181.815 99.1735 181.867 98.7144C182.145 96.2662 181.23 93.9595 179.589 92.37C180.79 91.5827 181.644 90.2869 181.818 88.7486C182.129 86.0046 180.159 83.5264 177.42 83.2152C177.033 83.1713 176.653 83.1777 176.281 83.2201C175.757 78.8088 172.271 75.1725 167.674 74.6504C164.373 74.2754 161.272 75.5949 159.231 77.9151C158.604 74.1264 155.538 71.0566 151.542 70.6027C148.797 70.2909 146.203 71.2816 144.376 73.0826C143.25 71.4008 141.424 70.2056 139.257 69.9594C135.345 69.515 131.812 72.3312 131.368 76.2524C131.25 77.3011 131.365 78.3206 131.671 79.2604C131.13 79.0316 130.55 78.8727 129.937 78.803C126.485 78.4109 123.371 80.8965 122.98 84.3526C122.812 85.8338 123.175 87.2533 123.913 88.4221C121.124 89.3926 118.992 91.8927 118.637 95.0284C118.368 97.4053 119.178 99.6546 120.676 101.29C119.398 102.314 118.507 103.825 118.308 105.584C118.006 108.25 119.381 110.719 121.59 111.939C120.351 113.263 119.511 114.982 119.291 116.924C118.748 121.715 122.186 126.04 126.967 126.583C129.102 126.825 131.143 126.272 132.799 125.16C133.911 126.855 135.738 128.063 137.907 128.309C138.306 128.354 138.703 128.364 139.091 128.342C139.631 131.334 142.07 133.745 145.241 134.106C147.54 134.367 149.704 133.491 151.177 131.924C151.995 133.083 153.277 133.905 154.797 134.077C156.558 134.277 158.213 133.56 159.286 132.306C160.272 132.955 161.419 133.391 162.672 133.534C166.932 134.018 170.778 130.95 171.262 126.682C171.442 125.09 171.128 123.559 170.445 122.235C174.891 122.432 178.794 119.15 179.303 114.653C179.497 112.943 179.172 111.295 178.455 109.864C180.795 109.206 182.626 107.186 182.917 104.614ZM169.244 79.1455C170.458 79.2834 171.33 80.3806 171.192 81.5965C171.055 82.8125 169.959 83.6861 168.746 83.5483C167.532 83.4104 166.66 82.3133 166.798 81.0973C166.935 79.8814 168.031 79.0077 169.244 79.1455ZM167.634 86.2427C170.172 86.5309 171.995 88.8252 171.707 91.3672C171.419 93.9093 169.129 95.7363 166.591 95.448C164.054 95.1598 162.23 92.8655 162.518 90.3235C162.804 87.7811 165.097 85.9544 167.634 86.2427ZM162.138 98.6389C162 99.8549 160.905 100.729 159.691 100.591C158.477 100.453 157.605 99.3557 157.743 98.1397C157.881 96.9238 158.976 96.0501 160.19 96.188C161.401 96.3256 162.275 97.423 162.138 98.6389ZM157.555 81.0393C159.221 81.2285 160.416 82.7343 160.227 84.4011C160.038 86.07 158.535 87.2672 156.871 87.0782C155.205 86.889 154.01 85.3832 154.199 83.7164C154.388 82.0496 155.891 80.8503 157.555 81.0393ZM149.752 73.8275C150.965 73.9654 151.837 75.0626 151.7 76.2785C151.562 77.4945 150.467 78.3681 149.253 78.2303C148.039 78.0924 147.167 76.9952 147.305 75.7793C147.441 74.5631 148.538 73.6897 149.752 73.8275ZM137.334 72.6402C138.426 72.7642 139.211 73.7523 139.088 74.8459C138.964 75.9394 137.977 76.7263 136.886 76.6023C135.794 76.4783 135.009 75.4902 135.133 74.3966C135.257 73.301 136.243 72.5162 137.334 72.6402ZM136.129 81.6658C137.959 81.8738 139.276 83.5297 139.068 85.3639C138.86 87.198 137.207 88.5166 135.376 88.3087C133.545 88.1007 132.229 86.4448 132.437 84.6106C132.645 82.7765 134.298 81.4579 136.129 81.6658ZM122.605 94.3984C122.779 92.8662 124.159 91.7667 125.687 91.9402C127.216 92.1139 128.314 93.497 128.14 95.0272C127.967 96.5594 126.586 97.6589 125.059 97.4854C123.529 97.3117 122.432 95.9306 122.605 94.3984ZM126.656 122.52C124.622 122.289 123.159 120.449 123.39 118.411C123.621 116.373 125.458 114.907 127.492 115.138C129.527 115.37 130.989 117.21 130.758 119.248C130.527 121.286 128.691 122.751 126.656 122.52ZM129.825 107.677C128.126 107.484 126.906 105.949 127.098 104.247C127.291 102.545 128.824 101.323 130.522 101.516C132.221 101.709 133.441 103.244 133.249 104.946C133.056 106.647 131.523 107.87 129.825 107.677ZM138.015 94.661C139.903 94.8754 141.259 96.5814 141.044 98.4726C140.83 100.364 139.127 101.722 137.239 101.508C135.352 101.293 133.996 99.5875 134.21 97.6963C134.424 95.805 136.129 94.4468 138.015 94.661ZM136.67 118.81C134.082 118.516 132.22 116.174 132.514 113.58C132.808 110.987 135.146 109.122 137.734 109.417C140.322 109.711 142.184 112.052 141.89 114.646C141.596 117.239 139.259 119.104 136.67 118.81ZM141.748 87.9641C142.042 85.371 144.379 83.5061 146.968 83.8001C149.556 84.0941 151.418 86.4361 151.124 89.0292C150.83 91.6222 148.492 93.4872 145.904 93.1931C143.316 92.8991 141.454 90.5572 141.748 87.9641ZM144.221 101.879C144.612 98.4274 147.723 95.9456 151.169 96.337C154.615 96.7284 157.092 99.845 156.701 103.297C156.31 106.749 153.199 109.231 149.753 108.839C146.307 108.448 143.83 105.331 144.221 101.879ZM151.797 114.122C151.627 115.623 150.275 116.702 148.776 116.531C147.278 116.361 146.202 115.007 146.372 113.506C146.542 112.004 147.893 110.926 149.392 111.096C150.891 111.266 151.967 112.622 151.797 114.122ZM149.01 129.535C146.472 129.247 144.649 126.952 144.936 124.41C145.224 121.868 147.515 120.041 150.052 120.33C152.59 120.618 154.413 122.912 154.125 125.454C153.837 127.996 151.547 129.823 149.01 129.535ZM156.842 121.301C154.744 121.063 153.237 119.166 153.475 117.065C153.713 114.964 155.606 113.453 157.704 113.691C159.801 113.93 161.309 115.826 161.071 117.928C160.831 120.029 158.94 121.54 156.842 121.301ZM160.943 109.191C159.851 109.067 159.066 108.079 159.189 106.985C159.313 105.892 160.3 105.105 161.391 105.229C162.483 105.353 163.268 106.341 163.144 107.434C163.02 108.53 162.034 109.315 160.943 109.191ZM163.65 128.536C162.121 128.363 161.023 126.98 161.197 125.449C161.37 123.917 162.751 122.818 164.278 122.991C165.808 123.165 166.905 124.548 166.732 126.078C166.559 127.608 165.18 128.71 163.65 128.536ZM169.057 114.768C167.527 114.594 166.43 113.211 166.603 111.681C166.777 110.149 168.157 109.049 169.685 109.223C171.212 109.396 172.312 110.78 172.138 112.31C171.965 113.84 170.584 114.942 169.057 114.768ZM171.815 102.797C170.149 102.607 168.954 101.102 169.143 99.4347C169.332 97.7679 170.835 96.5686 172.499 96.7576C174.163 96.9466 175.36 98.4526 175.171 100.119C174.982 101.788 173.481 102.986 171.815 102.797Z" fill="#DC0000"/>
<path d="M160.447 143.664L155.938 144.479L157.448 152.671L156.209 152.895L154.515 143.713L160.263 142.674L160.447 143.664Z" fill="#DC0000"/>
<path d="M167.666 146.419C168.011 147.417 168.056 148.302 167.801 149.07C167.546 149.837 167.02 150.354 166.226 150.621C165.414 150.892 164.689 150.855 164.047 150.506L165.138 153.667L163.993 154.05L160.859 144.96L161.905 144.61L162.212 145.32C162.483 144.599 163.032 144.099 163.862 143.82C164.665 143.551 165.402 143.635 166.075 144.072C166.749 144.51 167.268 145.26 167.632 146.318L167.666 146.419ZM166.478 146.675C166.224 145.935 165.861 145.405 165.391 145.082C164.923 144.761 164.406 144.694 163.846 144.882C163.153 145.113 162.739 145.591 162.6 146.31L163.681 149.449C164.228 149.933 164.856 150.058 165.562 149.821C166.111 149.637 166.473 149.277 166.649 148.742C166.826 148.204 166.769 147.516 166.478 146.675Z" fill="#DC0000"/>
<path d="M171.997 140.195L173.053 139.615L176.487 145.669L175.432 146.249L172.927 141.834L172.586 147.811L171.531 148.392L168.096 142.338L169.151 141.758L171.658 146.178L171.997 140.195Z" fill="#DC0000"/>
<path d="M177.395 136.831C178.08 136.273 178.816 136.052 179.605 136.166C180.394 136.28 181.098 136.704 181.716 137.438L181.788 137.522C182.212 138.025 182.49 138.555 182.627 139.112C182.762 139.67 182.737 140.209 182.55 140.728C182.362 141.249 182.029 141.704 181.546 142.098C180.815 142.694 180.024 142.935 179.175 142.818C178.326 142.704 177.562 142.243 176.883 141.436L176.51 140.99C175.565 139.868 175.027 138.803 174.896 137.797C174.764 136.79 175.051 135.879 175.759 135.057C176.16 134.594 176.393 134.233 176.458 133.98C176.523 133.728 176.469 133.498 176.293 133.291L177.058 132.668C177.405 133.078 177.581 133.476 177.584 133.86C177.588 134.246 177.422 134.655 177.086 135.088L176.52 135.805C176.076 136.383 175.842 136.938 175.821 137.467C175.801 137.997 175.959 138.549 176.304 139.124C176.321 138.175 176.685 137.407 177.395 136.831ZM177.844 137.727C177.388 138.098 177.152 138.543 177.137 139.063C177.122 139.584 177.338 140.109 177.787 140.642L177.853 140.72C178.334 141.292 178.852 141.635 179.402 141.751C179.953 141.864 180.46 141.735 180.92 141.361C181.383 140.983 181.609 140.519 181.594 139.964C181.581 139.41 181.303 138.81 180.76 138.166C180.335 137.663 179.861 137.368 179.335 137.285C178.807 137.2 178.309 137.348 177.844 137.727Z" fill="#DC0000"/>
<path d="M184.85 134.636L184.279 135.296L186.565 137.211L185.776 138.121L180.408 133.628L181.197 132.718L183.47 134.621L183.983 134.03L183.255 130.349L184.206 129.255L184.969 133.507L189.725 133.571L188.728 134.72L184.85 134.636Z" fill="#DC0000"/>
<path d="M187.3 124.24L187.911 123.215L194 126.71L193.389 127.736L188.949 125.186L191.74 130.499L191.129 131.525L185.04 128.03L185.651 127.004L190.096 129.555L187.3 124.24Z" fill="#DC0000"/>
<path fill-rule="evenodd" clip-rule="evenodd" d="M80.5735 187.08C80.3405 186.796 80.0988 186.506 79.8463 186.194L86.2762 184.575C86.88 184.421 87.2424 183.813 87.0955 183.209C86.941 182.605 86.3339 182.243 85.729 182.39L78.3144 184.256C77.8711 183.685 77.4083 183.086 76.9261 182.459L82.7364 180.171C83.3144 179.943 83.6002 179.285 83.3721 178.707C83.144 178.129 82.4859 177.844 81.9079 178.072L75.5043 180.59L74.4785 179.229L79.9693 176.647C80.5344 176.382 80.7716 175.707 80.5077 175.15C80.2428 174.585 79.5684 174.348 79.0108 174.612L73.0945 177.409L72.0428 176.029L77.2054 173.145C77.75 172.844 77.9461 172.152 77.6379 171.609C77.3372 171.064 76.6454 170.868 76.1019 171.177L70.6599 174.216C70.3093 173.756 69.9577 173.288 69.5984 172.821L74.4318 169.629C74.9549 169.285 75.0958 168.585 74.7518 168.062C74.4079 167.539 73.7084 167.399 73.1853 167.743L68.2177 171.024C67.8595 170.565 67.5003 170.098 67.1335 169.632L71.6355 166.116C72.1294 165.729 72.2152 165.022 71.829 164.529C71.4428 164.035 70.7356 163.949 70.2417 164.336L65.7397 167.852C65.374 167.394 65.0158 166.935 64.6415 166.47L68.7958 162.625C69.2531 162.197 69.2837 161.482 68.8564 161.025C68.429 160.568 67.7152 160.545 67.2569 160.965L63.2184 164.702C62.8527 164.244 62.4805 163.795 62.1082 163.345L65.9129 159.155C66.3345 158.694 66.296 157.981 65.8361 157.567C65.3751 157.146 64.6623 157.185 64.2482 157.645L60.6571 161.596C60.2859 161.154 59.9147 160.713 59.5436 160.271L62.9899 155.729C63.3683 155.236 63.2681 154.524 62.7746 154.146C62.281 153.768 61.5692 153.868 61.1907 154.362L58.0372 158.514C57.6682 158.087 57.2916 157.662 56.9226 157.235L59.9943 152.337C60.322 151.812 60.1622 151.117 59.6362 150.782C59.1112 150.454 58.4154 150.614 58.0802 151.14L55.3557 155.487C54.9812 155.077 54.6078 154.674 54.2344 154.271L56.9077 149.012C57.1922 148.455 56.9729 147.775 56.4165 147.499C55.859 147.214 55.1793 147.434 54.8948 147.992L52.5842 152.535C52.2129 152.147 51.8351 151.768 51.4649 151.387L53.7334 145.777C53.9692 145.203 53.6904 144.54 53.1166 144.304C52.5427 144.068 51.8792 144.347 51.6433 144.921L49.7249 149.672C49.3492 149.308 48.9671 148.952 48.5925 148.596L50.4344 142.644C50.6206 142.046 50.2844 141.414 49.6953 141.235C49.0976 141.049 48.4642 141.378 48.2856 141.974L46.7453 146.942C46.3577 146.602 45.9636 146.272 45.5792 145.956L46.9902 139.686C47.1288 139.08 46.7428 138.478 46.1363 138.339C45.5298 138.201 44.9277 138.587 44.7892 139.194L43.616 144.41C43.2013 144.098 42.7812 143.802 42.3708 143.52L43.3356 136.99C43.4266 136.374 42.9984 135.801 42.3832 135.711C41.768 135.62 41.195 136.048 41.104 136.664L40.2849 142.201C39.8139 141.928 39.3451 141.669 38.8794 141.434L39.3958 134.735C39.4403 134.118 38.9774 133.574 38.361 133.529C37.737 133.486 37.1996 133.948 37.1475 134.566L36.6802 140.571C36.1105 140.419 35.5472 140.314 34.9752 140.255L35.0576 133.656C35.0632 133.038 34.5657 132.521 33.9394 132.517C33.3132 132.512 32.8039 133.009 32.7994 133.635L32.7158 140.281C32.177 140.349 31.6436 140.456 31.1242 140.606L29.9784 133.787C29.8758 133.168 29.2926 132.756 28.6738 132.859C28.0625 132.961 27.6427 133.545 27.7443 134.156L28.9787 141.496C28.5846 141.714 28.1948 141.962 27.8319 142.237L24.7161 135.688C24.4436 135.124 23.7768 134.887 23.2127 135.159C22.6487 135.432 22.4105 136.099 22.683 136.663L26.1047 143.848C26.0309 143.928 25.9659 144.015 25.8932 144.102L20.2488 139.177C19.7737 138.765 19.063 138.819 18.6576 139.286C18.2532 139.76 18.2994 140.471 18.7734 140.876L24.664 146.013C24.512 146.305 24.3697 146.611 24.2436 146.922L18.1559 142.469C17.6558 142.099 16.945 142.207 16.5752 142.708C16.2054 143.208 16.3132 143.918 16.8132 144.288L23.5382 149.208C23.4912 149.423 23.453 149.644 23.4233 149.872L16.9074 147.48C16.3206 147.261 15.6754 147.561 15.4568 148.148C15.2382 148.735 15.5376 149.38 16.1244 149.598L23.2672 152.219C23.271 152.466 23.2835 152.719 23.2959 152.972L16.4209 152.8C15.8012 152.787 15.2832 153.277 15.2625 153.898C15.2493 154.518 15.7393 155.035 16.3601 155.056L23.5996 155.238C23.6328 155.419 23.6725 155.591 23.7143 155.778L17.1267 157.319C16.5207 157.458 16.1431 158.068 16.2825 158.673C16.4219 159.279 17.0312 159.657 17.6371 159.517L24.3513 157.943C24.4535 158.23 24.5632 158.516 24.6729 158.801L18.7307 161.579C18.1656 161.844 17.9199 162.512 18.1848 163.077C18.4497 163.642 19.1176 163.887 19.6827 163.622L25.6401 160.842C25.8416 161.231 26.0506 161.619 26.2661 161.997L20.6661 165.121C20.1215 165.422 19.9254 166.113 20.2336 166.657C20.5343 167.201 21.2261 167.397 21.7697 167.089L27.4628 163.914C27.7065 164.273 27.9502 164.633 28.2091 164.99L22.9512 168.459C22.4281 168.803 22.2872 169.502 22.6312 170.025C22.9751 170.548 23.6746 170.689 24.1977 170.345L29.5899 166.787C29.8617 167.127 30.1477 167.458 30.4347 167.796L25.4822 171.623C24.9871 172.002 24.9014 172.709 25.28 173.204C25.6576 173.691 26.3658 173.784 26.8608 173.405L31.9455 169.474C32.2445 169.787 32.5521 170.107 32.8586 170.419L28.1984 174.622C27.7325 175.043 27.7019 175.758 28.1217 176.216C28.5425 176.681 29.2574 176.712 29.7157 176.292L34.4789 171.997C34.7984 172.292 35.119 172.594 35.4461 172.888L31.0718 177.475C30.6415 177.93 30.6563 178.638 31.1108 179.068C31.5652 179.498 32.2737 179.483 32.704 179.028L37.1455 174.37C37.4792 174.655 37.8204 174.939 38.1605 175.215L34.073 180.194C33.6773 180.675 33.7462 181.383 34.2267 181.779C34.7072 182.174 35.4157 182.105 35.8115 181.625L39.9249 176.611C40.2716 176.878 40.6258 177.145 40.9724 177.413L37.1654 182.793C36.8042 183.299 36.9185 184.001 37.4251 184.362C37.9316 184.723 38.6337 184.609 38.9949 184.102L42.7911 178.754C43.2036 179.051 43.6227 179.34 44.0418 179.628L40.6129 185.171C40.2853 185.696 40.445 186.392 40.9786 186.726C41.5036 187.053 42.2069 186.892 42.5336 186.359L45.9179 180.885C46.3435 181.164 46.768 181.436 47.2011 181.715L44.1516 187.428C43.8584 187.979 44.0626 188.661 44.6136 188.954C45.1646 189.247 45.8464 189.042 46.1395 188.491L49.1217 182.903C49.5527 183.167 49.9913 183.429 50.4288 183.684L47.7596 189.575C47.5 190.145 47.7485 190.812 48.318 191.072C48.8874 191.331 49.5552 191.082 49.8149 190.513L52.3961 184.82C52.8401 185.066 53.2765 185.313 53.7195 185.552L51.4317 191.628C51.2121 192.208 51.505 192.861 52.0842 193.081C52.6635 193.3 53.3173 193.007 53.5446 192.427L55.7312 186.619C56.1807 186.849 56.6226 187.08 57.071 187.302L55.1635 193.557C54.985 194.154 55.3125 194.779 55.9102 194.965C56.5069 195.144 57.1327 194.816 57.3188 194.218L59.1196 188.303C59.5745 188.517 60.0294 188.73 60.4757 188.938L58.9572 195.377C58.8111 195.984 59.1895 196.587 59.797 196.733C60.4046 196.879 61.0077 196.5 61.1539 195.893L62.5753 189.861C63.0356 190.059 63.4873 190.25 63.939 190.441L62.8171 197.064C62.7099 197.673 63.1241 198.256 63.7414 198.362C64.3512 198.469 64.9339 198.054 65.04 197.437L66.082 191.289C66.5478 191.47 67.005 191.645 67.46 191.805L66.739 198.587C66.6718 199.207 67.1206 199.761 67.7402 199.828C68.3598 199.895 68.9145 199.446 68.9817 198.826L69.6443 192.562C70.1706 192.735 70.6959 192.9 71.204 193.052L71.3623 199.826C71.3805 200.449 71.8976 200.94 72.5217 200.929C73.1447 200.91 73.6357 200.393 73.625 199.769L73.4783 193.681C73.8545 193.775 74.2145 193.863 74.5734 193.943L76.6435 200.911C76.8197 201.504 77.4474 201.847 78.048 201.67C78.6411 201.493 78.9852 200.866 78.8079 200.265L77.0622 194.395C77.2752 194.427 77.4882 194.459 77.6915 194.476L81.6803 200.369C82.0308 200.883 82.7303 201.024 83.2523 200.672C83.7667 200.322 83.899 199.616 83.5561 199.1L80.4634 194.525C81.0573 194.464 81.5659 194.346 81.9816 194.171L86.7403 197.415C87.2534 197.767 87.961 197.636 88.3135 197.123C88.666 196.61 88.5355 195.902 88.0225 195.55L83.3155 192.346C83.3307 191.795 83.1763 191.137 82.8122 190.363L88.4119 190.692C89.0348 190.727 89.5711 190.257 89.6069 189.635C89.6428 189.012 89.1734 188.476 88.5505 188.44L81.346 188.013C81.0989 187.739 80.853 187.419 80.5735 187.08ZM39.2568 168.959C40.4271 169.975 42.0006 170.07 42.7789 169.18C43.5497 168.291 43.224 166.746 42.0536 165.73C40.8833 164.713 39.3098 164.619 38.5315 165.509C37.7607 166.398 38.0864 167.943 39.2568 168.959ZM50.094 175.383C51.6423 176.724 53.6839 176.907 54.6541 175.789C55.6243 174.671 55.1503 172.676 53.602 171.335C52.0538 169.994 50.0122 169.811 49.0419 170.929C48.0717 172.047 48.5457 174.042 50.094 175.383ZM37.8513 158.979C39.9891 160.832 42.8049 161.083 44.1394 159.535C45.475 157.995 44.824 155.237 42.6873 153.392C40.5496 151.539 37.7337 151.288 36.3992 152.836C35.0636 154.376 35.7135 157.126 37.8513 158.979Z" fill="#DC0000"/>
<path d="M19.6901 182.203L16.6891 178.799L14.5282 180.626L16.0747 182.38C16.7139 183.127 17.0294 183.865 17.0187 184.595C17.0075 185.328 16.6792 185.966 16.0332 186.514C15.3843 187.063 14.6834 187.291 13.93 187.201C13.1767 187.111 12.4745 186.71 11.828 186.001L9.44416 183.295L16.6445 177.208L20.4702 181.548L19.6901 182.203ZM13.7532 181.282L11.0438 183.575L12.543 185.277C12.9498 185.74 13.3926 185.994 13.872 186.037C14.3483 186.081 14.7988 185.926 15.2212 185.567C15.6275 185.224 15.8392 184.83 15.8542 184.383C15.8716 183.937 15.6806 183.484 15.2865 183.024L13.7532 181.282Z" fill="#DC0000"/>
<path d="M18.7943 192.96C18.8388 192.814 18.9683 192.597 19.1791 192.314C18.3685 192.354 17.6794 192.112 17.1117 191.588C16.6035 191.121 16.3216 190.597 16.264 190.013C16.2085 189.432 16.3877 188.924 16.8011 188.492C17.3038 187.966 17.9007 187.746 18.5868 187.831C19.273 187.916 19.9867 188.299 20.7279 188.98L21.5865 189.771L21.9668 189.373C22.2548 189.071 22.3952 188.746 22.3799 188.399C22.3677 188.05 22.1803 187.711 21.8209 187.38C21.5056 187.091 21.1683 186.927 20.8066 186.886C20.4448 186.845 20.1566 186.936 19.9454 187.155L19.0579 186.339C19.2992 186.087 19.6244 185.928 20.0309 185.862C20.4375 185.795 20.8648 185.836 21.3095 185.988C21.7543 186.139 22.1642 186.387 22.5394 186.731C23.134 187.279 23.4611 187.853 23.5182 188.452C23.5779 189.051 23.3668 189.615 22.8913 190.135L20.6638 192.459C20.2208 192.921 19.927 193.346 19.785 193.732L19.7127 193.806L18.7943 192.96ZM17.9611 190.953C18.2388 191.207 18.5665 191.38 18.9482 191.466C19.3295 191.554 19.6843 191.537 20.0102 191.414L21.002 190.378L20.3095 189.742C19.2291 188.747 18.3924 188.562 17.7979 189.181C17.5395 189.452 17.4287 189.747 17.467 190.07C17.5079 190.394 17.6727 190.688 17.9611 190.953Z" fill="#DC0000"/>
<path d="M25.2523 194.401L24.5544 193.872L22.7173 196.211L21.7546 195.482L26.0687 189.997L27.0314 190.726L25.2052 193.049L25.8327 193.523L29.5436 192.623L30.7026 193.5L26.4124 194.463L26.5751 199.129L25.3588 198.211L25.2523 194.401Z" fill="#DC0000"/>
<path d="M35.8607 197.866L33.8538 196.622L30.5983 201.662L29.575 201.027L32.8306 195.987L30.8638 194.766L31.389 193.955L36.3834 197.054L35.8607 197.866Z" fill="#DC0000"/>
<path d="M36.4361 205.058C35.5858 204.623 35.0382 203.997 34.7939 203.177C34.5496 202.358 34.6716 201.489 35.1568 200.575L35.2606 200.382C35.583 199.773 35.9911 199.288 36.4842 198.93C36.9773 198.572 37.5082 198.368 38.0774 198.315C38.6491 198.262 39.1828 198.361 39.6832 198.616C40.5006 199.032 40.9929 199.619 41.1681 200.377C41.3409 201.134 41.169 202.003 40.6473 202.983L40.4167 203.419L36.1641 201.25C35.8588 201.865 35.778 202.446 35.9263 202.995C36.0745 203.545 36.4158 203.955 36.9491 204.229C37.3279 204.422 37.6884 204.509 38.0327 204.492C38.3769 204.476 38.7136 204.391 39.0419 204.243L39.4327 205.078C38.4872 205.601 37.4865 205.595 36.4361 205.058ZM39.2235 199.482C38.7899 199.26 38.3449 199.229 37.8885 199.388C37.432 199.548 37.0186 199.888 36.6557 200.409L39.8008 202.012L39.8427 201.932C40.0958 201.382 40.1661 200.895 40.0595 200.466C39.9503 200.037 39.6742 199.709 39.2235 199.482Z" fill="#DC0000"/>
<path d="M47.8794 206.159C47.4809 207.139 46.9308 207.838 46.229 208.256C45.5273 208.675 44.787 208.731 44.0056 208.425C43.207 208.113 42.6834 207.618 42.4259 206.944L41.1628 210.04L40.0408 209.6L43.6728 200.696L44.6976 201.097L44.4602 201.833C45.1431 201.457 45.8932 201.431 46.7064 201.748C47.4949 202.058 48 202.594 48.2218 203.355C48.4435 204.117 48.344 205.018 47.9181 206.056L47.8794 206.159ZM46.8081 205.595C47.1036 204.871 47.1795 204.235 47.0353 203.691C46.8911 203.147 46.544 202.768 45.9939 202.552C45.3147 202.286 44.6847 202.382 44.1039 202.839L42.8508 205.911C42.9475 206.628 43.3423 207.125 44.0336 207.395C44.5716 207.606 45.0858 207.565 45.5738 207.273C46.0597 206.978 46.4718 206.42 46.8081 205.595Z" fill="#DC0000"/>
<path d="M55.2686 204.645L56.4318 204.97L54.4998 211.632L53.3366 211.307L54.7464 206.449L50.2 210.43L49.0368 210.105L50.9688 203.443L52.132 203.768L50.7207 208.634L55.2686 204.645Z" fill="#DC0000"/>
<path d="M63.0281 206.216L64.2203 206.421L63.0088 213.246L61.8165 213.042L62.699 208.065L58.6026 212.49L57.4104 212.285L58.624 205.463L59.8162 205.667L58.9327 210.649L63.0281 206.216Z" fill="#DC0000"/>
</svg>
