<svg width="949" height="71" viewBox="0 0 949 71" fill="none" xmlns="http://www.w3.org/2000/svg">
<path d="M40.5085 56.8288L48.1984 13.6095H30.7574L30.5988 14.7096C25.2872 44.4131 17.9937 57.536 7.68762 57.536C5.54713 57.536 2.1382 57.1431 0.156265 56.5931L2.45531 43.5487C3.40664 43.9416 5.23002 44.1773 6.0228 44.1773C10.1452 44.1773 13.237 38.7553 17.7559 13.138L19.7378 1.82237H63.7368L53.9856 56.8288H40.5085Z" fill="#6D6E71"/>
<path d="M66.4043 29.3256C69.179 13.5309 83.9246 1.03656 99.9387 1.03656C115.953 1.03656 126.259 13.5309 123.484 29.3256C120.63 45.1989 105.884 57.6146 89.8705 57.6146C73.8564 57.6146 63.5503 45.1989 66.4043 29.3256ZM79.8815 29.3256C78.296 38.1266 83.6868 45.0417 92.0902 45.0417C100.494 45.0417 108.421 38.1266 110.007 29.3256C111.513 20.5246 106.122 13.6095 97.7189 13.6095C89.3155 13.6095 81.3878 20.5246 79.8815 29.3256Z" fill="#6D6E71"/>
<path d="M126.103 56.8288L135.854 1.82237H160.827C172.798 1.82237 180.725 9.91617 178.902 20.2888C177.079 30.6615 166.297 38.7553 154.326 38.7553H142.752L139.58 56.8288H126.103ZM144.892 26.9682H156.387C160.748 26.9682 164.791 24.0607 165.425 20.2888C166.059 16.5169 163.126 13.6095 158.766 13.6095H147.27L144.892 26.9682Z" fill="#6D6E71"/>
<path d="M181.682 29.3256C184.456 13.5309 199.202 1.03656 215.216 1.03656C231.23 1.03656 241.536 13.5309 238.762 29.3256C235.908 45.1989 221.162 57.6146 205.148 57.6146C189.134 57.6146 178.828 45.1989 181.682 29.3256ZM195.159 29.3256C193.573 38.1266 198.964 45.0417 207.368 45.0417C215.771 45.0417 223.699 38.1266 225.284 29.3256C226.791 20.5246 221.4 13.6095 212.996 13.6095C204.593 13.6095 196.665 20.5246 195.159 29.3256Z" fill="#6D6E71"/>
<path d="M293.879 13.6095H274.853L267.163 56.8288H253.686L261.375 13.6095H242.349L244.41 1.82237H295.94L293.879 13.6095Z" fill="#D7282F"/>
<path d="M292.11 56.8288L301.861 1.82237H326.834C338.805 1.82237 346.733 9.91617 344.909 20.2888C343.086 30.6615 332.304 38.7553 320.333 38.7553H308.759L305.588 56.8288H292.11ZM310.899 26.9682H322.394C326.755 26.9682 330.798 24.0607 331.432 20.2888C332.066 16.5169 329.133 13.6095 324.773 13.6095H313.277L310.899 26.9682Z" fill="#D7282F"/>
<path d="M396.682 56.8288H383.205L389.309 22.5676L358.233 56.8288H344.756L354.507 1.82237H367.984L361.959 36.0835L392.956 1.82237H406.433L396.682 56.8288Z" fill="#D7282F"/>
<path d="M406.214 56.8288L415.965 1.82237H429.442L421.752 45.0417H446.328L454.018 1.82237H467.496L459.806 45.0417H466.941L462.818 68.6159L449.024 70.1875L451.402 56.8288H406.214Z" fill="#6D6E71"/>
<path d="M523.173 56.8288H509.696L515.8 22.5676L484.723 56.8288H471.246L480.997 1.82237H494.475L488.45 36.0835L519.447 1.82237H532.924L523.173 56.8288Z" fill="#6D6E71"/>
<path d="M532.663 56.8288L542.414 1.82237H555.891L552.165 22.9606H577.138L580.864 1.82237H594.341L584.59 56.8288H571.113L575.076 34.7476H550.104L546.14 56.8288H532.663Z" fill="#6D6E71"/>
<path d="M599.362 7.23699C599.362 3.69182 602.285 0.8125 605.843 0.8125C609.438 0.8125 612.325 3.69182 612.325 7.23699C612.325 10.7822 609.438 13.6615 605.843 13.6615C602.285 13.6615 599.362 10.7822 599.362 7.23699ZM600.469 7.23699C600.469 10.1703 602.884 12.5637 605.843 12.5637C608.821 12.5637 611.217 10.1703 611.217 7.23699C611.217 4.30368 608.821 1.91024 605.843 1.91024C602.884 1.91024 600.469 4.30368 600.469 7.23699ZM603.501 10.3863V4.08773H606.333C607.641 4.08773 608.657 4.96952 608.657 6.12125C608.657 6.91307 608.149 7.59691 607.404 7.92083L608.657 10.3863H607.423L606.37 8.15478C606.352 8.15478 606.352 8.15478 606.333 8.15478H604.681V10.3863H603.501ZM604.681 7.09303H606.333C606.969 7.09303 607.477 6.66113 607.477 6.12125C607.477 5.56338 606.969 5.11349 606.333 5.11349H604.681V7.09303Z" fill="#6D6E71"/>
<path d="M615.417 23.2937H637.622L635.807 33.5245H613.602L615.417 23.2937Z" fill="#6D6E71"/>
<path d="M702.253 55.5971H687.013L684.818 45.722H664.829L659.173 55.5971H643.638L676.08 1.11646H689.145L702.253 55.5971ZM688.702 53.5049H699.572L687.457 3.20865H677.262L647.31 53.5049H657.906L663.563 43.6298H686.465L688.702 53.5049ZM684.713 35.2401H668.46L680.238 14.5902L684.713 35.2401ZM672.069 33.1479H682.095L679.33 20.4274L672.069 33.1479Z" fill="#6D6E71"/>
<path d="M711.202 56.2666C709.239 56.2666 705.82 55.911 703.73 55.3251L702.802 55.0741L705.398 40.4287L706.622 40.9309C707.34 41.2238 708.923 41.4539 709.619 41.4539C712.659 41.4539 715.551 36.5791 719.772 12.7491L721.82 1.09555H765.871L756.225 55.5762H741.238L748.563 14.4019H734.125L734.104 14.5483C728.912 43.4206 721.862 56.2666 711.202 56.2666ZM705.229 53.5468C706.981 53.9024 709.472 54.1954 711.202 54.1954C720.511 54.1954 727.118 41.5167 731.993 14.2554L732.268 12.3515H751.053L743.729 53.5259H754.431L763.338 3.22958H723.571L721.841 13.1466C717.303 38.8805 714.157 43.588 709.619 43.588C709.028 43.588 707.994 43.4833 707.065 43.2741L705.229 53.5468Z" fill="#6D6E71"/>
<path d="M814.713 55.5971H799.727L805.131 25.344L777.691 55.5971H763.127L772.794 1.11646H787.78L782.461 31.3905L809.838 1.11646H824.402L814.713 55.5971ZM802.239 53.5049H812.94L821.848 3.20865H810.745L779.084 38.211L785.247 3.20865H774.546L765.617 53.5049H776.741L808.487 18.5026L802.239 53.5049Z" fill="#6D6E71"/>
<path d="M834.28 56.2666C832.021 56.2666 828.876 55.8691 827.251 55.1159L826.534 54.7812L828.834 41.6213L829.974 41.956C831.853 42.5 834.765 42.9603 836.475 42.9603C838.691 42.9603 839.641 42.1443 840.57 40.7426L842.216 38.2947L826.808 1.13739H843.23L851.968 23.5657L866.87 1.13739H883.038L852.242 46.1195C847.81 52.5634 841.288 56.2666 834.28 56.2666ZM828.898 53.5049C830.248 53.9025 832.423 54.1744 834.28 54.1744C840.549 54.1744 846.459 50.806 850.469 44.906L879.028 3.18774H867.989L851.461 28.0639L841.773 3.18774H829.953L844.602 38.483L842.322 41.8514C840.844 44.111 839.135 45.0106 836.454 45.0106C834.871 45.0106 832.465 44.6759 830.502 44.2156L828.898 53.5049Z" fill="#6D6E71"/>
<path d="M938.614 55.5971H923.628L928.757 26.5994L913.581 48.1071H903.681L895.935 26.2646L890.742 55.5971H875.756L885.423 1.11646H902.246L911.85 28.838L931.29 1.11646H948.281L938.614 55.5971ZM926.161 53.5049H936.862L945.769 3.20865H932.409L911.217 33.4199L900.747 3.20865H887.217L878.289 53.5049H888.99L895.259 18.0214L905.18 46.0149H912.504L932.514 17.6657L926.161 53.5049Z" fill="#6D6E71"/>
</svg>
