<svg width="95" height="94" viewBox="0 0 95 94" fill="none" xmlns="http://www.w3.org/2000/svg">
<path d="M19.2813 93.6562C14.3434 93.6562 9.40145 91.7974 5.64207 88.0837C-1.88069 80.6523 -1.88069 68.5639 5.64207 61.1364L11.7546 55.0982C16.0852 50.8201 22.0459 48.8547 28.1184 49.7072L27.5551 53.6143C22.7411 52.9394 18.0109 54.4983 14.5751 57.8884L8.4626 63.9267C2.50193 69.8189 2.50193 79.4012 8.4626 85.2934C14.4273 91.1857 24.1273 91.1857 30.092 85.2934L36.2045 79.2552C39.6363 75.8651 41.2144 71.1923 40.5312 66.4327L44.4863 65.8763C45.3493 71.8711 43.3597 77.7634 39.029 82.0415L32.9165 88.0797C29.1612 91.8014 24.2192 93.6562 19.2813 93.6562Z" fill="white"/>
<path d="M19.2813 86.8287C15.9734 86.8287 12.8652 85.5579 10.5321 83.2531C5.70599 78.4896 5.70599 70.7345 10.5321 65.9671L16.6445 59.9288C17.6433 58.9422 18.7939 58.137 20.0603 57.5411L21.7782 61.1049C20.9233 61.5074 20.1442 62.0521 19.4651 62.719L13.3526 68.7573C11.7745 70.3162 10.9036 72.396 10.9036 74.6101C10.9036 76.8241 11.7745 78.9039 13.3526 80.4628C14.9307 82.0217 17.0361 82.8821 19.2773 82.8821C21.5186 82.8821 23.624 82.0217 25.202 80.4628L31.3145 74.4246C31.9937 73.7537 32.541 72.988 32.9485 72.1395L36.5561 73.8365C35.9528 75.0876 35.1378 76.2242 34.139 77.2109L28.0266 83.2491C25.6974 85.5579 22.5892 86.8287 19.2813 86.8287Z" fill="white"/>
<path d="M30.2838 69.1322C28.8256 69.1322 27.4553 68.5718 26.4245 67.5536C25.3938 66.5354 24.8265 65.1817 24.8265 63.7412C24.8265 62.3007 25.3938 60.947 26.4245 59.9288L41.2863 45.2475L49.0008 52.8684L34.139 67.5496C33.1123 68.5718 31.742 69.1322 30.2838 69.1322ZM41.2903 50.828L29.2531 62.719C28.9774 62.9913 28.8256 63.3544 28.8256 63.7412C28.8256 64.128 28.9774 64.4871 29.2531 64.7594C29.8044 65.304 30.7672 65.304 31.3185 64.7594L43.3557 52.8684L41.2903 50.828Z" fill="white"/>
<path d="M69.4637 44.1504C68.5448 44.1504 67.6139 44.0872 66.6831 43.953L67.2464 40.0459C72.0604 40.7208 76.7907 39.1658 80.2264 35.7718L86.3389 29.7335C89.2274 26.8801 90.8174 23.0875 90.8174 19.0501C90.8174 15.0128 89.2274 11.2201 86.3389 8.36675C83.4505 5.51337 79.6112 3.94263 75.5242 3.94263C71.4372 3.94263 67.5979 5.51337 64.7095 8.36675L58.597 14.405C55.1652 17.7951 53.5871 22.4679 54.2703 27.2274L50.3152 27.7839C49.4522 21.7891 51.4418 15.8968 55.7725 11.6187L61.885 5.58046C65.5285 1.98118 70.3705 0 75.5242 0C80.6779 0 85.5199 1.98118 89.1635 5.58046C92.807 9.17974 94.8125 13.963 94.8125 19.0541C94.8125 24.1452 92.807 28.9284 89.1635 32.5277L83.0509 38.566C79.3835 42.185 74.5454 44.1504 69.4637 44.1504Z" fill="white"/>
<path d="M74.7412 36.1191L73.0233 32.5553C73.8782 32.1528 74.6573 31.6081 75.3364 30.9412L81.4489 24.9029C83.027 23.344 83.8979 21.2642 83.8979 19.0501C83.8979 16.8361 83.027 14.7563 81.4489 13.1974C78.181 9.96906 72.8675 9.973 69.5995 13.1974L63.487 19.2356C62.8118 19.9065 62.2605 20.6722 61.853 21.5207L58.2454 19.8237C58.8487 18.5726 59.6637 17.436 60.6625 16.4493L66.775 10.4111C71.597 5.64361 79.4474 5.64361 84.2735 10.4111C86.6066 12.7159 87.893 15.7863 87.893 19.0541C87.893 22.3218 86.6066 25.3923 84.2735 27.6971L78.161 33.7354C77.1622 34.7181 76.0116 35.5232 74.7412 36.1191Z" fill="white"/>
<path d="M53.5152 48.4127L45.8007 40.7918L60.6625 26.1106C62.7879 24.011 66.2516 24.007 68.377 26.1106C70.5024 28.2141 70.5024 31.6318 68.377 33.7314L53.5152 48.4127ZM51.4498 40.7918L53.5152 42.8322L65.5525 30.9412C66.1198 30.3768 66.1198 29.4612 65.5525 28.9008C64.9852 28.3364 64.0543 28.3364 63.487 28.9008L51.4498 40.7918Z" fill="white"/>
<path d="M35.4003 32.1865L32.5753 34.9772L35.0217 37.3939L37.8467 34.6032L35.4003 32.1865Z" fill="white"/>
<path d="M29.6048 39.5176L27.9161 43.0943L31.0517 44.539L32.7404 40.9622L29.6048 39.5176Z" fill="white"/>
<path d="M43.622 27.5716L40.0012 29.2395L41.4633 32.337L45.0841 30.6691L43.622 27.5716Z" fill="white"/>
<path d="M59.7799 56.2735L56.955 59.0641L59.4014 61.4808L62.2263 58.6902L59.7799 56.2735Z" fill="white"/>
<path d="M53.3302 61.3178L49.7095 62.9856L51.1716 66.0831L54.7923 64.4153L53.3302 61.3178Z" fill="white"/>
<path d="M63.7627 49.1212L62.0744 52.698L65.2099 54.1424L66.8983 50.5656L63.7627 49.1212Z" fill="white"/>
</svg>
