<svg width="108" height="94" viewBox="0 0 108 94" fill="none" xmlns="http://www.w3.org/2000/svg">
<path d="M10.4116 2.64315H6.69982V24.1142H10.4116V2.64315Z" fill="white"/>
<path d="M17.1077 2.64315H13.3959V24.1142H17.1077V2.64315Z" fill="white"/>
<path d="M11.9038 90.3541C9.03456 90.3541 6.69982 88.0514 6.69982 85.2216V35.5178C3.05853 34.2146 0 29.2834 0 24.1105V5.94527H3.71181V24.1105C3.71181 26.0911 4.37622 28.2583 5.49348 29.9094C6.44371 31.3152 7.61664 32.1901 8.55573 32.1901H10.4116V85.2179C10.4116 86.0306 11.0798 86.6896 11.9038 86.6896C12.7278 86.6896 13.3959 86.0306 13.3959 85.2179V32.1901H15.2518C16.1872 32.1901 17.3602 31.3152 18.3141 29.9094C19.4313 28.2583 20.0958 26.0911 20.0958 24.1105V5.94527H23.8076V24.1105C23.8076 29.2834 20.7528 34.2146 17.1077 35.5178V85.2179C17.1077 88.0514 14.773 90.3541 11.9038 90.3541Z" fill="white"/>
<path d="M102.327 90.3541C100.935 90.3541 99.6251 89.8196 98.6452 88.8495C97.6615 87.8794 97.1196 86.5908 97.1196 85.2179L97.1233 52.9436L90.4235 46.3357V20.8084C90.4235 6.49074 104.428 1.14952 105.022 0.926202L107.531 0V85.2179C107.535 88.0514 105.2 90.3541 102.327 90.3541ZM94.139 44.8238L100.839 51.4317L100.835 85.2216C100.835 85.617 100.991 85.983 101.273 86.2613C101.555 86.5395 101.93 86.6933 102.327 86.6933C103.155 86.6933 103.823 86.0343 103.823 85.2216V5.57186C100.249 7.60364 94.139 12.3189 94.139 20.8084V44.8238Z" fill="white"/>
<path d="M84.2656 16.84C76.0959 8.86299 65.2648 4.46993 53.7656 4.46993C45.0763 4.46993 36.695 6.99594 29.5275 11.7734L27.4489 8.73852C35.2325 3.55105 44.3339 0.809054 53.7656 0.809054C66.2485 0.809054 78.0075 5.57918 86.875 14.2372L84.2656 16.84Z" fill="white"/>
<path d="M53.7656 93.6562C41.4907 93.6562 29.8727 89.0216 21.0497 80.6089L23.6294 77.9767C31.7546 85.7268 42.4594 89.9954 53.7656 89.9954C68.7762 89.9954 82.5099 82.5015 90.5052 69.9484L93.6491 71.896C84.9709 85.5218 70.0605 93.6562 53.7656 93.6562Z" fill="white"/>
<path d="M53.7656 70.5341C40.7372 70.5341 30.1399 60.0823 30.1399 47.2326C30.1399 34.383 40.7372 23.9312 53.7656 23.9312C66.7941 23.9312 77.3913 34.383 77.3913 47.2326C77.3913 60.0823 66.7941 70.5341 53.7656 70.5341ZM53.7656 27.592C42.7861 27.592 33.8517 36.4038 33.8517 47.2326C33.8517 58.0615 42.7861 66.8733 53.7656 66.8733C64.7452 66.8733 73.6795 58.0615 73.6795 47.2326C73.6795 36.4038 64.7452 27.592 53.7656 27.592Z" fill="white"/>
<path d="M54.4003 58.3361L44.2337 50.3151L46.5536 47.456L53.1346 52.6471L60.4803 38.1573L63.7987 39.7937L54.4003 58.3361Z" fill="white"/>
</svg>
