<svg width="111" height="110" viewBox="0 0 111 110" fill="none" xmlns="http://www.w3.org/2000/svg">
<path d="M68.4673 62.6695C68.4673 62.6872 68.4584 62.7005 68.4584 62.7183C68.4584 64.5203 69.9232 65.9805 71.7308 65.9805C73.5384 65.9805 75.0032 64.5203 75.0032 62.7183C75.0032 60.9163 73.5384 59.4561 71.7308 59.4561C71.1253 59.4561 70.591 59.6647 70.1057 59.9488L61.9313 55.2441C62.1049 54.6449 62.2296 54.028 62.2296 53.3756C62.2296 52.7231 62.1049 52.1018 61.9313 51.507L89.117 35.8618C89.9896 36.7717 91.1116 37.4286 92.3805 37.7348V47.5613C90.6886 48.2049 89.4821 49.8204 89.4821 51.7334C89.4821 54.2055 91.4945 56.2117 93.9744 56.2117C96.4544 56.2117 98.4668 54.2055 98.4668 51.7334C98.4668 49.8204 97.2602 48.2005 95.5683 47.5613V37.7304C98.5113 37.0158 100.706 34.3883 100.706 31.2327C100.706 27.5266 97.6921 24.5263 93.9789 24.5263C92.0644 24.5263 90.3503 25.3296 89.1259 26.6079L64.0506 12.1744C64.4023 11.2068 64.6249 10.1771 64.6249 9.08974C64.6249 4.06996 60.5422 0 55.5067 0C50.4711 0 46.3884 4.06996 46.3884 9.08974C46.3884 10.1771 46.611 11.2068 46.9627 12.1744L21.883 26.6035C20.6586 25.3252 18.94 24.5219 17.03 24.5219C13.3123 24.5219 10.3026 27.5266 10.3026 31.2282C10.3026 34.3839 12.4976 37.0114 15.4405 37.726V47.5525C13.7487 48.196 12.5421 49.8116 12.5421 51.7245C12.5421 54.1967 14.5545 56.2028 17.0344 56.2028C19.5144 56.2028 21.5268 54.1967 21.5268 51.7245C21.5268 49.8116 20.3202 48.196 18.6284 47.5525V37.726C19.8928 37.4197 21.0192 36.7628 21.8919 35.853L49.0776 51.4981C48.9039 52.0973 48.7793 52.7143 48.7793 53.3667C48.7793 54.0191 48.9039 54.6405 49.0776 55.2352L40.9833 59.8955C40.5114 59.6336 39.9993 59.4472 39.425 59.4472C37.6174 59.4472 36.1526 60.9074 36.1526 62.7094C36.1526 64.5114 37.6174 65.9716 39.425 65.9716C41.2326 65.9716 42.6974 64.5114 42.6974 62.7094C42.6974 62.665 42.6752 62.6295 42.6752 62.5896L50.6581 57.9959C51.8825 59.2741 53.6011 60.0775 55.5156 60.0775C57.4301 60.0775 59.1442 59.2741 60.373 57.9959L68.4673 62.6695ZM53.9083 46.8734C52.6394 47.1796 51.5174 47.8365 50.6448 48.7464L23.4591 33.1012C23.6327 32.502 23.7574 31.8851 23.7574 31.2327C23.7574 30.5802 23.6327 29.9633 23.4591 29.3641L48.5566 14.9173C49.9012 16.5107 51.7623 17.638 53.9083 18.0197V46.8734ZM57.0917 18.0153C59.2332 17.638 61.0943 16.5062 62.4433 14.9128L87.5409 29.3597C87.3672 29.9544 87.2426 30.5758 87.2426 31.2282C87.2426 31.8807 87.3672 32.502 87.5409 33.1012L60.3552 48.7464C59.4826 47.8365 58.3606 47.1796 57.0917 46.8734V18.0153Z" fill="white"/>
<path d="M108.774 56.0031C80.1323 56.0031 56.8334 79.2289 56.8334 107.781V110H59.0596C87.7011 110 111 86.7741 111 58.2222V56.0031H108.774ZM61.3391 105.508C62.4967 81.2084 82.118 61.6486 106.494 60.4947C105.337 84.7946 85.7154 104.354 61.3391 105.508Z" fill="white"/>
<path d="M2.22614 56.0031H0V58.2222C0 86.7741 23.2988 110 51.9404 110H54.1665V107.781C54.1665 79.2334 30.8677 56.0031 2.22614 56.0031ZM4.50571 60.4947C28.882 61.6486 48.5032 81.2084 49.6608 105.508C25.2845 104.354 5.66331 84.7946 4.50571 60.4947Z" fill="white"/>
</svg>
