<svg width="239" height="238" viewBox="0 0 239 238" fill="none" xmlns="http://www.w3.org/2000/svg">
<path d="M151.159 180.779C151.207 178.199 145.588 175.914 137.826 175.057L138.276 150.587C145.299 150.345 151.966 148.693 157.992 145.907L169.291 165.957C160.586 170.854 154.832 176.835 156.347 179.521C157.908 182.288 166.596 180.5 175.752 175.525C184.912 170.55 191.07 164.278 189.514 161.51C188.224 159.219 182.042 160.054 174.753 163.232L163.365 143.018C169.164 139.438 174.172 134.731 178.074 129.208L197.213 140.531C192.501 148.758 190.761 156.339 193.357 157.873C196.115 159.506 202.725 153.688 208.123 144.881C213.522 136.073 215.661 127.612 212.902 125.983C210.531 124.58 205.322 128.679 200.478 135.443L181.252 124.073C184.375 118.252 186.359 111.745 186.905 104.832L208.909 105.236C209.195 114.092 211.472 120.895 214.373 120.948C217.59 121.002 220.35 112.715 220.539 102.437C220.728 92.159 218.274 83.7753 215.057 83.7162C212.161 83.663 209.636 90.3727 209.019 99.2173L187.015 98.813C186.719 91.879 184.981 85.304 182.073 79.377L201.704 68.721C206.297 75.6579 211.351 79.9454 213.772 78.6306C216.589 77.0998 214.762 68.5653 209.691 59.5705C204.614 50.5655 198.223 44.5136 195.406 46.0393C192.756 47.4767 194.217 55.1169 198.623 63.5111L179.082 74.1231C175.385 68.4555 170.552 63.5735 164.889 59.782L177.013 40.0002C184.18 43.444 190.327 44.5055 191.7 42.2635C193.362 39.555 187.433 33.0603 178.462 27.7522C169.49 22.4442 160.873 20.3382 159.217 23.0467C157.609 25.675 163.135 31.8631 171.654 37.0766L159.626 56.6978C153.706 53.6928 147.105 51.7963 140.095 51.2972L140.545 26.8222C148.333 26.2501 154.032 24.1738 154.079 21.593C154.142 18.4342 145.702 15.7177 135.237 15.5254C124.772 15.3331 116.237 17.7377 116.179 20.9016C116.122 23.9997 124.233 26.6696 134.417 26.9582L133.971 51.2253C126.988 51.5484 120.361 53.2627 114.385 56.0998L101.667 33.5233C108.28 29.1509 112.286 24.4567 110.996 22.1657C109.435 19.3981 100.747 21.1862 91.5915 26.1611C82.431 31.1359 76.2732 37.4086 77.8285 40.1762C79.3389 42.8617 87.5594 41.2578 96.409 36.6171L109.043 59.0399C103.175 62.7463 98.1325 67.6142 94.2575 73.3202L73.8059 61.2227C78.5175 52.996 80.2578 45.4147 77.6623 43.8809C74.9035 42.2477 68.2944 48.0657 62.8956 56.8732C57.4969 65.6807 55.3582 74.1423 58.1172 75.7704C60.4878 77.1733 65.6967 73.0744 70.5414 66.3109L91.1718 78.5132C88.2901 84.1258 86.4661 90.3564 85.942 96.9558L62.1981 96.5195C61.9115 87.6633 59.635 80.8603 56.7335 80.807C53.517 80.7479 50.7567 89.0307 50.5677 99.3136C50.3789 109.591 52.833 117.975 56.0494 118.034C58.9458 118.087 61.4707 111.373 62.0876 102.533L85.8367 102.969C86.118 109.584 87.7119 115.877 90.3854 121.592L69.3466 133.018C64.7537 126.081 59.6988 121.794 57.2783 123.109C54.4613 124.639 56.2877 133.174 61.3593 142.169C66.4308 151.169 72.8219 157.22 75.6388 155.695C78.2888 154.257 76.8282 146.617 72.4221 138.223L93.2782 126.9C96.9409 132.744 101.801 137.789 107.529 141.713L94.0798 163.657C85.4066 158.699 77.2506 156.795 75.6427 159.418C73.9816 162.126 79.9099 168.621 88.8814 173.929C97.8529 179.237 106.47 181.343 108.126 178.634C109.5 176.392 105.669 171.554 99.2202 166.942L112.76 144.848C118.627 147.903 125.187 149.859 132.153 150.439L131.707 174.706C121.519 174.615 113.316 176.99 113.259 180.088C113.201 183.247 121.641 185.964 132.106 186.156C142.572 186.348 151.101 183.943 151.159 180.779ZM143.821 63.0063C147.445 63.0729 150.329 66.0119 150.264 69.5714C150.199 73.1308 147.208 75.9619 143.584 75.8953C139.959 75.8287 137.075 72.8897 137.14 69.3302C137.206 65.7708 140.196 62.9397 143.821 63.0063ZM106.64 70.9356C106.697 67.797 109.336 65.2992 112.532 65.358C115.727 65.4167 118.272 68.0097 118.215 71.1483C118.157 74.2869 115.518 76.7846 112.323 76.7259C109.127 76.6672 106.582 74.0742 106.64 70.9356ZM168.485 76.3275C173.167 76.4135 176.893 80.21 176.809 84.8089C176.724 89.4078 172.861 93.0649 168.179 92.9788C163.496 92.8928 159.77 89.0963 159.854 84.4974C159.939 79.8985 163.802 76.2414 168.485 76.3275ZM136.817 87.4623C141.593 87.55 145.395 91.424 145.309 96.1142C145.223 100.804 141.281 104.536 136.505 104.448C131.73 104.361 127.927 100.487 128.013 95.7964C128.1 91.1062 132.042 87.3745 136.817 87.4623ZM98.272 98.2475C98.3297 95.1089 100.968 92.6112 104.164 92.6699C107.36 92.7286 109.905 95.3216 109.847 98.4602C109.789 101.599 107.151 104.097 103.955 104.038C100.759 103.979 98.2143 101.386 98.272 98.2475ZM151.063 103.361C151.105 101.075 153.029 99.2486 155.358 99.2914C157.686 99.3342 159.547 101.225 159.505 103.517C159.463 105.808 157.539 107.629 155.205 107.587C152.872 107.544 151.021 105.653 151.063 103.361ZM167.34 110.513C170.035 110.563 172.185 112.748 172.136 115.399C172.087 118.051 169.864 120.156 167.164 120.106C164.469 120.057 162.319 117.872 162.368 115.22C162.416 112.568 164.645 110.464 167.34 110.513ZM126.684 116.426C126.722 114.367 128.451 112.725 130.553 112.764C132.649 112.802 134.322 114.502 134.284 116.565C134.246 118.624 132.517 120.266 130.415 120.227C128.314 120.189 126.646 118.489 126.684 116.426ZM103.704 126.406C103.781 122.228 107.292 118.9 111.551 118.978C115.806 119.056 119.197 122.507 119.12 126.69C119.044 130.868 115.533 134.197 111.273 134.118C107.014 134.04 103.627 130.585 103.704 126.406ZM139.061 128.39C139.132 124.511 142.391 121.431 146.335 121.504C150.285 121.576 153.423 124.779 153.351 128.653C153.28 132.532 150.022 135.611 146.077 135.539C142.133 135.466 138.989 132.269 139.061 128.39Z" fill="#DC0000"/>
<path d="M22.859 171.264L39.2824 156.822L43.9763 162.312C45.5368 164.133 46.3376 165.83 46.3869 167.395C46.4362 168.959 45.7364 170.378 44.2945 171.648C43.5287 172.325 42.656 172.697 41.6879 172.767C40.7187 172.843 39.7408 172.636 38.7588 172.152C39.2843 173.276 39.4277 174.409 39.1833 175.548C38.939 176.688 38.3321 177.681 37.3755 178.524C35.9044 179.818 34.3236 180.347 32.6502 180.117C30.9723 179.879 29.3732 178.869 27.8472 177.087L22.859 171.264ZM32.4336 166.729L26.5274 171.923L29.6575 175.579C30.54 176.61 31.4959 177.192 32.5298 177.332C33.5648 177.466 34.538 177.134 35.4516 176.324C37.43 174.584 37.4747 172.618 35.5994 170.417L32.4336 166.729ZM34.17 165.199L37.0312 168.546C37.8597 169.516 38.759 170.079 39.7337 170.243C40.7084 170.407 41.5978 170.13 42.4136 169.415C43.3179 168.621 43.7445 167.772 43.6922 166.874C43.6399 165.976 43.1496 164.976 42.2085 163.877L39.4047 160.604L34.17 165.199Z" fill="#DC0000"/>
<path d="M55.8351 181.898L57.9394 183.746L47.4095 196.165L45.3052 194.317L52.9832 185.258L39.6196 189.339L37.5153 187.491L48.0395 175.071L50.1495 176.92L42.4576 185.988L55.8351 181.898Z" fill="#DC0000"/>
<path d="M68.8859 201.323C67.558 203.425 66.0101 204.8 64.2455 205.461C62.4822 206.116 60.7913 205.912 59.1613 204.846C57.506 203.757 56.5343 202.365 56.2554 200.683L52.052 207.326L49.7155 205.788L61.8124 186.689L63.9472 188.091L63.0946 189.697C64.7972 189.133 66.4981 189.407 68.1903 190.522C69.8294 191.602 70.7358 193.078 70.8966 194.954C71.0631 196.832 70.4393 198.885 69.0261 201.109L68.8859 201.323ZM66.7188 199.517C67.7054 197.964 68.1507 196.52 68.0664 195.187C67.9821 193.853 67.367 192.814 66.2223 192.062C64.8068 191.129 63.3465 191.067 61.8369 191.87L57.6628 198.458C57.5665 200.174 58.2364 201.507 59.6739 202.45C60.792 203.184 61.9648 203.324 63.1934 202.864C64.4289 202.399 65.6037 201.286 66.7188 199.517Z" fill="#DC0000"/>
<path d="M76.282 209.488L84.9044 200.06L87.5826 201.373L73.6701 215.579C71.6054 217.594 69.5732 218.117 67.5919 217.146L67.1341 216.875L66.2862 216.237L67.2481 214.184L67.8996 214.571C68.75 214.989 69.4922 215.139 70.126 215.02C70.7645 214.909 71.4524 214.465 72.1899 213.691L73.4499 212.455L75.0985 195.247L77.831 196.59L76.282 209.488Z" fill="#DC0000"/>
<path d="M91.7792 218.186C92.7146 218.513 93.6337 218.505 94.5223 218.173C95.411 217.841 96.0373 217.256 96.3955 216.417L98.8821 217.278C98.541 218.151 97.96 218.899 97.1356 219.508C96.3112 220.117 95.3516 220.501 94.2627 220.661C93.1691 220.814 92.1026 220.716 91.0596 220.354C88.9623 219.627 87.5339 218.342 86.7629 216.498C85.992 214.654 86.0077 212.504 86.8157 210.05L86.9609 209.605C87.4576 208.086 88.1772 206.836 89.115 205.848C90.0529 204.86 91.1437 204.218 92.3875 203.92C93.6313 203.623 94.9513 203.721 96.3557 204.205C98.0812 204.802 99.3399 205.823 100.139 207.263C100.938 208.704 101.1 210.275 100.628 211.97L98.1415 211.109C98.3945 210.076 98.2939 209.118 97.8284 208.233C97.3628 207.349 96.6363 206.738 95.6384 206.391C94.3021 205.928 93.1046 206.059 92.0526 206.777C91.0007 207.496 90.1663 208.775 89.5611 210.619L89.3983 211.122C88.8096 212.914 88.7192 214.423 89.1282 215.644C89.5419 216.872 90.4198 217.718 91.7792 218.186Z" fill="#DC0000"/>
<path d="M107.75 213.812L111.905 214.541C113.713 214.881 115.073 215.612 115.974 216.732C116.879 217.86 117.199 219.22 116.937 220.833C116.673 222.451 115.92 223.657 114.679 224.444C113.438 225.232 111.899 225.471 110.064 225.144L103.291 223.959L105.915 207.741L108.648 208.222L107.75 213.812ZM107.385 216.075L106.395 222.177L110.463 222.888C111.489 223.069 112.324 222.939 112.974 222.506C113.623 222.073 114.022 221.389 114.171 220.455C114.317 219.558 114.164 218.772 113.708 218.103C113.253 217.435 112.538 217.004 111.552 216.807L107.385 216.075ZM121.778 227.199L119.028 226.715L121.652 210.497L124.402 210.981L121.778 227.199Z" fill="#DC0000"/>
</svg>
